<?xml version="1.0" encoding="utf-8" standalone="no"?>
<!DOCTYPE svg PUBLIC "-//W3C//DTD SVG 1.1//EN"
  "http://www.w3.org/Graphics/SVG/1.1/DTD/svg11.dtd">
<svg xmlns:xlink="http://www.w3.org/1999/xlink" width="510.560875pt" height="415.256763pt" viewBox="0 0 510.560875 415.256763" xmlns="http://www.w3.org/2000/svg" version="1.1">
 <metadata>
  <rdf:RDF xmlns:dc="http://purl.org/dc/elements/1.1/" xmlns:cc="http://creativecommons.org/ns#" xmlns:rdf="http://www.w3.org/1999/02/22-rdf-syntax-ns#">
   <cc:Work>
    <dc:type rdf:resource="http://purl.org/dc/dcmitype/StillImage"/>
    <dc:date>2026-05-23T16:40:35.569902</dc:date>
    <dc:format>image/svg+xml</dc:format>
    <dc:creator>
     <cc:Agent>
      <dc:title>Matplotlib v3.10.8, https://matplotlib.org/</dc:title>
     </cc:Agent>
    </dc:creator>
   </cc:Work>
  </rdf:RDF>
 </metadata>
 <defs>
  <style type="text/css">*{stroke-linejoin: round; stroke-linecap: butt}</style>
 </defs>
 <g id="figure_1">
  <g id="patch_1">
   <path d="M 0 415.256763 
L 510.560875 415.256763 
L 510.560875 0 
L 0 0 
z
" style="fill: #ffffff"/>
  </g>
  <g id="axes_1">
   <g id="patch_2">
    <path d="M 34.496875 179.101831 
L 503.360875 179.101831 
L 503.360875 42.912 
L 34.496875 42.912 
z
" style="fill: #ffffff"/>
   </g>
   <g id="matplotlib.axis_1">
    <g id="xtick_1">
     <g id="line2d_1">
      <defs>
       <path id="me7b6ef0c50" d="M 0 0 
L 0 3.5 
" style="stroke: #000000; stroke-width: 0.8"/>
      </defs>
      <g>
       <use xlink:href="#me7b6ef0c50" x="38.50426" y="179.101831" style="stroke: #000000; stroke-width: 0.8"/>
      </g>
     </g>
    </g>
    <g id="xtick_2">
     <g id="line2d_2">
      <g>
       <use xlink:href="#me7b6ef0c50" x="78.578106" y="179.101831" style="stroke: #000000; stroke-width: 0.8"/>
      </g>
     </g>
    </g>
    <g id="xtick_3">
     <g id="line2d_3">
      <g>
       <use xlink:href="#me7b6ef0c50" x="118.651952" y="179.101831" style="stroke: #000000; stroke-width: 0.8"/>
      </g>
     </g>
    </g>
    <g id="xtick_4">
     <g id="line2d_4">
      <g>
       <use xlink:href="#me7b6ef0c50" x="158.725798" y="179.101831" style="stroke: #000000; stroke-width: 0.8"/>
      </g>
     </g>
    </g>
    <g id="xtick_5">
     <g id="line2d_5">
      <g>
       <use xlink:href="#me7b6ef0c50" x="198.799644" y="179.101831" style="stroke: #000000; stroke-width: 0.8"/>
      </g>
     </g>
    </g>
    <g id="xtick_6">
     <g id="line2d_6">
      <g>
       <use xlink:href="#me7b6ef0c50" x="238.87349" y="179.101831" style="stroke: #000000; stroke-width: 0.8"/>
      </g>
     </g>
    </g>
    <g id="xtick_7">
     <g id="line2d_7">
      <g>
       <use xlink:href="#me7b6ef0c50" x="278.947337" y="179.101831" style="stroke: #000000; stroke-width: 0.8"/>
      </g>
     </g>
    </g>
    <g id="xtick_8">
     <g id="line2d_8">
      <g>
       <use xlink:href="#me7b6ef0c50" x="319.021183" y="179.101831" style="stroke: #000000; stroke-width: 0.8"/>
      </g>
     </g>
    </g>
    <g id="xtick_9">
     <g id="line2d_9">
      <g>
       <use xlink:href="#me7b6ef0c50" x="359.095029" y="179.101831" style="stroke: #000000; stroke-width: 0.8"/>
      </g>
     </g>
    </g>
    <g id="xtick_10">
     <g id="line2d_10">
      <g>
       <use xlink:href="#me7b6ef0c50" x="399.168875" y="179.101831" style="stroke: #000000; stroke-width: 0.8"/>
      </g>
     </g>
    </g>
    <g id="xtick_11">
     <g id="line2d_11">
      <g>
       <use xlink:href="#me7b6ef0c50" x="439.242721" y="179.101831" style="stroke: #000000; stroke-width: 0.8"/>
      </g>
     </g>
    </g>
    <g id="xtick_12">
     <g id="line2d_12">
      <g>
       <use xlink:href="#me7b6ef0c50" x="479.316567" y="179.101831" style="stroke: #000000; stroke-width: 0.8"/>
      </g>
     </g>
    </g>
   </g>
   <g id="matplotlib.axis_2">
    <g id="ytick_1">
     <g id="line2d_13">
      <path d="M 34.496875 177.011656 
L 503.360875 177.011656 
" clip-path="url(#p908b019c10)" style="fill: none; stroke-dasharray: 1.665,0.72; stroke-dashoffset: 0; stroke: #b0b0b0; stroke-opacity: 0.45; stroke-width: 0.45"/>
     </g>
     <g id="line2d_14">
      <defs>
       <path id="m71b7b4737c" d="M 0 0 
L -3.5 0 
" style="stroke: #000000; stroke-width: 0.8"/>
      </defs>
      <g>
       <use xlink:href="#m71b7b4737c" x="34.496875" y="177.011656" style="stroke: #000000; stroke-width: 0.8"/>
      </g>
     </g>
     <g id="text_1">
      <text style="font-size: 8px; font-family: 'SimSun', 'Microsoft YaHei', 'SimHei', 'Arial Unicode MS', 'DejaVu Sans', sans-serif; text-anchor: end" x="27.496875" y="179.871031" transform="rotate(-0 27.496875 179.871031)">0</text>
     </g>
    </g>
    <g id="ytick_2">
     <g id="line2d_15">
      <path d="M 34.496875 151.378548 
L 503.360875 151.378548 
" clip-path="url(#p908b019c10)" style="fill: none; stroke-dasharray: 1.665,0.72; stroke-dashoffset: 0; stroke: #b0b0b0; stroke-opacity: 0.45; stroke-width: 0.45"/>
     </g>
     <g id="line2d_16">
      <g>
       <use xlink:href="#m71b7b4737c" x="34.496875" y="151.378548" style="stroke: #000000; stroke-width: 0.8"/>
      </g>
     </g>
     <g id="text_2">
      <text style="font-size: 8px; font-family: 'SimSun', 'Microsoft YaHei', 'SimHei', 'Arial Unicode MS', 'DejaVu Sans', sans-serif; text-anchor: end" x="27.496875" y="154.237923" transform="rotate(-0 27.496875 154.237923)">5</text>
     </g>
    </g>
    <g id="ytick_3">
     <g id="line2d_17">
      <path d="M 34.496875 125.74544 
L 503.360875 125.74544 
" clip-path="url(#p908b019c10)" style="fill: none; stroke-dasharray: 1.665,0.72; stroke-dashoffset: 0; stroke: #b0b0b0; stroke-opacity: 0.45; stroke-width: 0.45"/>
     </g>
     <g id="line2d_18">
      <g>
       <use xlink:href="#m71b7b4737c" x="34.496875" y="125.74544" style="stroke: #000000; stroke-width: 0.8"/>
      </g>
     </g>
     <g id="text_3">
      <text style="font-size: 8px; font-family: 'SimSun', 'Microsoft YaHei', 'SimHei', 'Arial Unicode MS', 'DejaVu Sans', sans-serif; text-anchor: end" x="27.496875" y="128.604815" transform="rotate(-0 27.496875 128.604815)">10</text>
     </g>
    </g>
    <g id="ytick_4">
     <g id="line2d_19">
      <path d="M 34.496875 100.112332 
L 503.360875 100.112332 
" clip-path="url(#p908b019c10)" style="fill: none; stroke-dasharray: 1.665,0.72; stroke-dashoffset: 0; stroke: #b0b0b0; stroke-opacity: 0.45; stroke-width: 0.45"/>
     </g>
     <g id="line2d_20">
      <g>
       <use xlink:href="#m71b7b4737c" x="34.496875" y="100.112332" style="stroke: #000000; stroke-width: 0.8"/>
      </g>
     </g>
     <g id="text_4">
      <text style="font-size: 8px; font-family: 'SimSun', 'Microsoft YaHei', 'SimHei', 'Arial Unicode MS', 'DejaVu Sans', sans-serif; text-anchor: end" x="27.496875" y="102.971707" transform="rotate(-0 27.496875 102.971707)">15</text>
     </g>
    </g>
    <g id="ytick_5">
     <g id="line2d_21">
      <path d="M 34.496875 74.479224 
L 503.360875 74.479224 
" clip-path="url(#p908b019c10)" style="fill: none; stroke-dasharray: 1.665,0.72; stroke-dashoffset: 0; stroke: #b0b0b0; stroke-opacity: 0.45; stroke-width: 0.45"/>
     </g>
     <g id="line2d_22">
      <g>
       <use xlink:href="#m71b7b4737c" x="34.496875" y="74.479224" style="stroke: #000000; stroke-width: 0.8"/>
      </g>
     </g>
     <g id="text_5">
      <text style="font-size: 8px; font-family: 'SimSun', 'Microsoft YaHei', 'SimHei', 'Arial Unicode MS', 'DejaVu Sans', sans-serif; text-anchor: end" x="27.496875" y="77.338599" transform="rotate(-0 27.496875 77.338599)">20</text>
     </g>
    </g>
    <g id="ytick_6">
     <g id="line2d_23">
      <path d="M 34.496875 48.846116 
L 503.360875 48.846116 
" clip-path="url(#p908b019c10)" style="fill: none; stroke-dasharray: 1.665,0.72; stroke-dashoffset: 0; stroke: #b0b0b0; stroke-opacity: 0.45; stroke-width: 0.45"/>
     </g>
     <g id="line2d_24">
      <g>
       <use xlink:href="#m71b7b4737c" x="34.496875" y="48.846116" style="stroke: #000000; stroke-width: 0.8"/>
      </g>
     </g>
     <g id="text_6">
      <text style="font-size: 8px; font-family: 'SimSun', 'Microsoft YaHei', 'SimHei', 'Arial Unicode MS', 'DejaVu Sans', sans-serif; text-anchor: end" x="27.496875" y="51.705491" transform="rotate(-0 27.496875 51.705491)">25</text>
     </g>
    </g>
    <g id="text_7">
     <text style="font-size: 9px; font-family: 'SimSun', 'Microsoft YaHei', 'SimHei', 'Arial Unicode MS', 'DejaVu Sans', sans-serif; text-anchor: middle" x="14.336719" y="111.006915" transform="rotate(-90 14.336719 111.006915)">负荷功率/MW</text>
    </g>
   </g>
   <g id="line2d_25">
    <path d="M 38.50426 169.989209 
L 58.541183 171.373397 
L 78.578106 172.911384 
L 98.615029 171.9363 
L 118.651952 170.961217 
L 138.688875 168.654237 
L 158.725798 164.194076 
L 178.762721 159.733916 
L 198.799644 156.454928 
L 218.836567 155.479845 
L 238.87349 155.888949 
L 258.910413 157.017831 
L 278.947337 160.299895 
L 298.98426 163.222069 
L 319.021183 158.402019 
L 339.058106 157.426936 
L 359.095029 157.786825 
L 379.131952 160.915089 
L 399.168875 163.631173 
L 419.205798 166.144243 
L 439.242721 167.476139 
L 459.279644 168.654237 
L 479.316567 169.014126 
L 499.35349 169.42323 
" clip-path="url(#p908b019c10)" style="fill: none; stroke: #666666; stroke-width: 1.6; stroke-linecap: square"/>
    <defs>
     <path id="m343e2fea3a" d="M 0 2.1 
C 0.556927 2.1 1.091118 1.878731 1.484924 1.484924 
C 1.878731 1.091118 2.1 0.556927 2.1 0 
C 2.1 -0.556927 1.878731 -1.091118 1.484924 -1.484924 
C 1.091118 -1.878731 0.556927 -2.1 0 -2.1 
C -0.556927 -2.1 -1.091118 -1.878731 -1.484924 -1.484924 
C -1.878731 -1.091118 -2.1 -0.556927 -2.1 0 
C -2.1 0.556927 -1.878731 1.091118 -1.484924 1.484924 
C -1.091118 1.878731 -0.556927 2.1 0 2.1 
z
" style="stroke: #666666"/>
    </defs>
    <g clip-path="url(#p908b019c10)">
     <use xlink:href="#m343e2fea3a" x="38.50426" y="169.989209" style="fill: #666666; stroke: #666666"/>
     <use xlink:href="#m343e2fea3a" x="58.541183" y="171.373397" style="fill: #666666; stroke: #666666"/>
     <use xlink:href="#m343e2fea3a" x="78.578106" y="172.911384" style="fill: #666666; stroke: #666666"/>
     <use xlink:href="#m343e2fea3a" x="98.615029" y="171.9363" style="fill: #666666; stroke: #666666"/>
     <use xlink:href="#m343e2fea3a" x="118.651952" y="170.961217" style="fill: #666666; stroke: #666666"/>
     <use xlink:href="#m343e2fea3a" x="138.688875" y="168.654237" style="fill: #666666; stroke: #666666"/>
     <use xlink:href="#m343e2fea3a" x="158.725798" y="164.194076" style="fill: #666666; stroke: #666666"/>
     <use xlink:href="#m343e2fea3a" x="178.762721" y="159.733916" style="fill: #666666; stroke: #666666"/>
     <use xlink:href="#m343e2fea3a" x="198.799644" y="156.454928" style="fill: #666666; stroke: #666666"/>
     <use xlink:href="#m343e2fea3a" x="218.836567" y="155.479845" style="fill: #666666; stroke: #666666"/>
     <use xlink:href="#m343e2fea3a" x="238.87349" y="155.888949" style="fill: #666666; stroke: #666666"/>
     <use xlink:href="#m343e2fea3a" x="258.910413" y="157.017831" style="fill: #666666; stroke: #666666"/>
     <use xlink:href="#m343e2fea3a" x="278.947337" y="160.299895" style="fill: #666666; stroke: #666666"/>
     <use xlink:href="#m343e2fea3a" x="298.98426" y="163.222069" style="fill: #666666; stroke: #666666"/>
     <use xlink:href="#m343e2fea3a" x="319.021183" y="158.402019" style="fill: #666666; stroke: #666666"/>
     <use xlink:href="#m343e2fea3a" x="339.058106" y="157.426936" style="fill: #666666; stroke: #666666"/>
     <use xlink:href="#m343e2fea3a" x="359.095029" y="157.786825" style="fill: #666666; stroke: #666666"/>
     <use xlink:href="#m343e2fea3a" x="379.131952" y="160.915089" style="fill: #666666; stroke: #666666"/>
     <use xlink:href="#m343e2fea3a" x="399.168875" y="163.631173" style="fill: #666666; stroke: #666666"/>
     <use xlink:href="#m343e2fea3a" x="419.205798" y="166.144243" style="fill: #666666; stroke: #666666"/>
     <use xlink:href="#m343e2fea3a" x="439.242721" y="167.476139" style="fill: #666666; stroke: #666666"/>
     <use xlink:href="#m343e2fea3a" x="459.279644" y="168.654237" style="fill: #666666; stroke: #666666"/>
     <use xlink:href="#m343e2fea3a" x="479.316567" y="169.014126" style="fill: #666666; stroke: #666666"/>
     <use xlink:href="#m343e2fea3a" x="499.35349" y="169.42323" style="fill: #666666; stroke: #666666"/>
    </g>
   </g>
   <g id="line2d_26">
    <path d="M 38.50426 70.634258 
L 58.541183 70.634258 
L 78.578106 70.634258 
L 98.615029 70.634258 
L 118.651952 70.634258 
L 138.688875 70.634258 
L 158.725798 70.634258 
L 178.762721 70.634258 
L 198.799644 70.634258 
L 218.836567 70.634258 
L 238.87349 70.634258 
L 258.910413 70.634258 
L 278.947337 70.634258 
L 298.98426 70.634258 
L 319.021183 70.634258 
L 339.058106 70.634258 
L 359.095029 70.634258 
L 379.131952 70.634258 
L 399.168875 70.634258 
L 419.205798 70.634258 
L 439.242721 70.634258 
L 459.279644 70.634258 
L 479.316567 70.634258 
L 499.35349 70.634258 
" clip-path="url(#p908b019c10)" style="fill: none; stroke: #a61c2a; stroke-width: 1.6; stroke-linecap: square"/>
    <defs>
     <path id="m2e058521bf" d="M -2.1 2.1 
L 2.1 2.1 
L 2.1 -2.1 
L -2.1 -2.1 
z
" style="stroke: #a61c2a; stroke-linejoin: miter"/>
    </defs>
    <g clip-path="url(#p908b019c10)">
     <use xlink:href="#m2e058521bf" x="38.50426" y="70.634258" style="fill: #a61c2a; stroke: #a61c2a; stroke-linejoin: miter"/>
     <use xlink:href="#m2e058521bf" x="58.541183" y="70.634258" style="fill: #a61c2a; stroke: #a61c2a; stroke-linejoin: miter"/>
     <use xlink:href="#m2e058521bf" x="78.578106" y="70.634258" style="fill: #a61c2a; stroke: #a61c2a; stroke-linejoin: miter"/>
     <use xlink:href="#m2e058521bf" x="98.615029" y="70.634258" style="fill: #a61c2a; stroke: #a61c2a; stroke-linejoin: miter"/>
     <use xlink:href="#m2e058521bf" x="118.651952" y="70.634258" style="fill: #a61c2a; stroke: #a61c2a; stroke-linejoin: miter"/>
     <use xlink:href="#m2e058521bf" x="138.688875" y="70.634258" style="fill: #a61c2a; stroke: #a61c2a; stroke-linejoin: miter"/>
     <use xlink:href="#m2e058521bf" x="158.725798" y="70.634258" style="fill: #a61c2a; stroke: #a61c2a; stroke-linejoin: miter"/>
     <use xlink:href="#m2e058521bf" x="178.762721" y="70.634258" style="fill: #a61c2a; stroke: #a61c2a; stroke-linejoin: miter"/>
     <use xlink:href="#m2e058521bf" x="198.799644" y="70.634258" style="fill: #a61c2a; stroke: #a61c2a; stroke-linejoin: miter"/>
     <use xlink:href="#m2e058521bf" x="218.836567" y="70.634258" style="fill: #a61c2a; stroke: #a61c2a; stroke-linejoin: miter"/>
     <use xlink:href="#m2e058521bf" x="238.87349" y="70.634258" style="fill: #a61c2a; stroke: #a61c2a; stroke-linejoin: miter"/>
     <use xlink:href="#m2e058521bf" x="258.910413" y="70.634258" style="fill: #a61c2a; stroke: #a61c2a; stroke-linejoin: miter"/>
     <use xlink:href="#m2e058521bf" x="278.947337" y="70.634258" style="fill: #a61c2a; stroke: #a61c2a; stroke-linejoin: miter"/>
     <use xlink:href="#m2e058521bf" x="298.98426" y="70.634258" style="fill: #a61c2a; stroke: #a61c2a; stroke-linejoin: miter"/>
     <use xlink:href="#m2e058521bf" x="319.021183" y="70.634258" style="fill: #a61c2a; stroke: #a61c2a; stroke-linejoin: miter"/>
     <use xlink:href="#m2e058521bf" x="339.058106" y="70.634258" style="fill: #a61c2a; stroke: #a61c2a; stroke-linejoin: miter"/>
     <use xlink:href="#m2e058521bf" x="359.095029" y="70.634258" style="fill: #a61c2a; stroke: #a61c2a; stroke-linejoin: miter"/>
     <use xlink:href="#m2e058521bf" x="379.131952" y="70.634258" style="fill: #a61c2a; stroke: #a61c2a; stroke-linejoin: miter"/>
     <use xlink:href="#m2e058521bf" x="399.168875" y="70.634258" style="fill: #a61c2a; stroke: #a61c2a; stroke-linejoin: miter"/>
     <use xlink:href="#m2e058521bf" x="419.205798" y="70.634258" style="fill: #a61c2a; stroke: #a61c2a; stroke-linejoin: miter"/>
     <use xlink:href="#m2e058521bf" x="439.242721" y="70.634258" style="fill: #a61c2a; stroke: #a61c2a; stroke-linejoin: miter"/>
     <use xlink:href="#m2e058521bf" x="459.279644" y="70.634258" style="fill: #a61c2a; stroke: #a61c2a; stroke-linejoin: miter"/>
     <use xlink:href="#m2e058521bf" x="479.316567" y="70.634258" style="fill: #a61c2a; stroke: #a61c2a; stroke-linejoin: miter"/>
     <use xlink:href="#m2e058521bf" x="499.35349" y="70.634258" style="fill: #a61c2a; stroke: #a61c2a; stroke-linejoin: miter"/>
    </g>
   </g>
   <g id="line2d_27">
    <path d="M 38.50426 63.611811 
L 58.541183 64.995999 
L 78.578106 66.533986 
L 98.615029 65.558902 
L 118.651952 64.583819 
L 138.688875 62.276839 
L 158.725798 57.816678 
L 178.762721 53.356517 
L 198.799644 50.07753 
L 218.836567 49.102447 
L 238.87349 49.511551 
L 258.910413 50.640433 
L 278.947337 53.922496 
L 298.98426 56.844671 
L 319.021183 52.024621 
L 339.058106 51.049538 
L 359.095029 51.409427 
L 379.131952 54.537691 
L 399.168875 57.253775 
L 419.205798 59.766845 
L 439.242721 61.098741 
L 459.279644 62.276839 
L 479.316567 62.636728 
L 499.35349 63.045832 
" clip-path="url(#p908b019c10)" style="fill: none; stroke: #1f4e79; stroke-width: 1.6; stroke-linecap: square"/>
    <defs>
     <path id="m2b3c6d3a4b" d="M 0 -2.1 
L -2.1 2.1 
L 2.1 2.1 
z
" style="stroke: #1f4e79; stroke-linejoin: miter"/>
    </defs>
    <g clip-path="url(#p908b019c10)">
     <use xlink:href="#m2b3c6d3a4b" x="38.50426" y="63.611811" style="fill: #1f4e79; stroke: #1f4e79; stroke-linejoin: miter"/>
     <use xlink:href="#m2b3c6d3a4b" x="58.541183" y="64.995999" style="fill: #1f4e79; stroke: #1f4e79; stroke-linejoin: miter"/>
     <use xlink:href="#m2b3c6d3a4b" x="78.578106" y="66.533986" style="fill: #1f4e79; stroke: #1f4e79; stroke-linejoin: miter"/>
     <use xlink:href="#m2b3c6d3a4b" x="98.615029" y="65.558902" style="fill: #1f4e79; stroke: #1f4e79; stroke-linejoin: miter"/>
     <use xlink:href="#m2b3c6d3a4b" x="118.651952" y="64.583819" style="fill: #1f4e79; stroke: #1f4e79; stroke-linejoin: miter"/>
     <use xlink:href="#m2b3c6d3a4b" x="138.688875" y="62.276839" style="fill: #1f4e79; stroke: #1f4e79; stroke-linejoin: miter"/>
     <use xlink:href="#m2b3c6d3a4b" x="158.725798" y="57.816678" style="fill: #1f4e79; stroke: #1f4e79; stroke-linejoin: miter"/>
     <use xlink:href="#m2b3c6d3a4b" x="178.762721" y="53.356517" style="fill: #1f4e79; stroke: #1f4e79; stroke-linejoin: miter"/>
     <use xlink:href="#m2b3c6d3a4b" x="198.799644" y="50.07753" style="fill: #1f4e79; stroke: #1f4e79; stroke-linejoin: miter"/>
     <use xlink:href="#m2b3c6d3a4b" x="218.836567" y="49.102447" style="fill: #1f4e79; stroke: #1f4e79; stroke-linejoin: miter"/>
     <use xlink:href="#m2b3c6d3a4b" x="238.87349" y="49.511551" style="fill: #1f4e79; stroke: #1f4e79; stroke-linejoin: miter"/>
     <use xlink:href="#m2b3c6d3a4b" x="258.910413" y="50.640433" style="fill: #1f4e79; stroke: #1f4e79; stroke-linejoin: miter"/>
     <use xlink:href="#m2b3c6d3a4b" x="278.947337" y="53.922496" style="fill: #1f4e79; stroke: #1f4e79; stroke-linejoin: miter"/>
     <use xlink:href="#m2b3c6d3a4b" x="298.98426" y="56.844671" style="fill: #1f4e79; stroke: #1f4e79; stroke-linejoin: miter"/>
     <use xlink:href="#m2b3c6d3a4b" x="319.021183" y="52.024621" style="fill: #1f4e79; stroke: #1f4e79; stroke-linejoin: miter"/>
     <use xlink:href="#m2b3c6d3a4b" x="339.058106" y="51.049538" style="fill: #1f4e79; stroke: #1f4e79; stroke-linejoin: miter"/>
     <use xlink:href="#m2b3c6d3a4b" x="359.095029" y="51.409427" style="fill: #1f4e79; stroke: #1f4e79; stroke-linejoin: miter"/>
     <use xlink:href="#m2b3c6d3a4b" x="379.131952" y="54.537691" style="fill: #1f4e79; stroke: #1f4e79; stroke-linejoin: miter"/>
     <use xlink:href="#m2b3c6d3a4b" x="399.168875" y="57.253775" style="fill: #1f4e79; stroke: #1f4e79; stroke-linejoin: miter"/>
     <use xlink:href="#m2b3c6d3a4b" x="419.205798" y="59.766845" style="fill: #1f4e79; stroke: #1f4e79; stroke-linejoin: miter"/>
     <use xlink:href="#m2b3c6d3a4b" x="439.242721" y="61.098741" style="fill: #1f4e79; stroke: #1f4e79; stroke-linejoin: miter"/>
     <use xlink:href="#m2b3c6d3a4b" x="459.279644" y="62.276839" style="fill: #1f4e79; stroke: #1f4e79; stroke-linejoin: miter"/>
     <use xlink:href="#m2b3c6d3a4b" x="479.316567" y="62.636728" style="fill: #1f4e79; stroke: #1f4e79; stroke-linejoin: miter"/>
     <use xlink:href="#m2b3c6d3a4b" x="499.35349" y="63.045832" style="fill: #1f4e79; stroke: #1f4e79; stroke-linejoin: miter"/>
    </g>
   </g>
   <g id="patch_3">
    <path d="M 34.496875 179.101831 
L 34.496875 42.912 
" style="fill: none; stroke: #000000; stroke-width: 0.8; stroke-linejoin: miter; stroke-linecap: square"/>
   </g>
   <g id="patch_4">
    <path d="M 503.360875 179.101831 
L 503.360875 42.912 
" style="fill: none; stroke: #000000; stroke-width: 0.8; stroke-linejoin: miter; stroke-linecap: square"/>
   </g>
   <g id="patch_5">
    <path d="M 34.496875 179.101831 
L 503.360875 179.101831 
" style="fill: none; stroke: #000000; stroke-width: 0.8; stroke-linejoin: miter; stroke-linecap: square"/>
   </g>
   <g id="patch_6">
    <path d="M 34.496875 42.912 
L 503.360875 42.912 
" style="fill: none; stroke: #000000; stroke-width: 0.8; stroke-linejoin: miter; stroke-linecap: square"/>
   </g>
   <g id="legend_1">
    <g id="line2d_28">
     <path d="M 164.928875 198.133915 
L 174.528875 198.133915 
L 184.128875 198.133915 
" style="fill: none; stroke: #666666; stroke-width: 1.6; stroke-linecap: square"/>
     <g>
      <use xlink:href="#m343e2fea3a" x="174.528875" y="198.133915" style="fill: #666666; stroke: #666666"/>
     </g>
    </g>
    <g id="text_8">
     <text style="font-size: 8px; font-family: 'SimSun', 'Microsoft YaHei', 'SimHei', 'Arial Unicode MS', 'DejaVu Sans', sans-serif; text-anchor: start" x="190.528875" y="200.933915" transform="rotate(-0 190.528875 200.933915)">常规电负荷</text>
    </g>
    <g id="line2d_29">
     <path d="M 240.128875 198.133915 
L 249.728875 198.133915 
L 259.328875 198.133915 
" style="fill: none; stroke: #a61c2a; stroke-width: 1.6; stroke-linecap: square"/>
     <g>
      <use xlink:href="#m2e058521bf" x="249.728875" y="198.133915" style="fill: #a61c2a; stroke: #a61c2a; stroke-linejoin: miter"/>
     </g>
    </g>
    <g id="text_9">
     <text style="font-size: 8px; font-family: 'SimSun', 'Microsoft YaHei', 'SimHei', 'Arial Unicode MS', 'DejaVu Sans', sans-serif; text-anchor: start" x="265.728875" y="200.933915" transform="rotate(-0 265.728875 200.933915)">制氢制氨负荷</text>
    </g>
    <g id="line2d_30">
     <path d="M 323.328875 198.133915 
L 332.928875 198.133915 
L 342.528875 198.133915 
" style="fill: none; stroke: #1f4e79; stroke-width: 1.6; stroke-linecap: square"/>
     <g>
      <use xlink:href="#m2b3c6d3a4b" x="332.928875" y="198.133915" style="fill: #1f4e79; stroke: #1f4e79; stroke-linejoin: miter"/>
     </g>
    </g>
    <g id="text_10">
     <text style="font-size: 8px; font-family: 'SimSun', 'Microsoft YaHei', 'SimHei', 'Arial Unicode MS', 'DejaVu Sans', sans-serif; text-anchor: start" x="348.928875" y="200.933915" transform="rotate(-0 348.928875 200.933915)">总负荷</text>
    </g>
   </g>
  </g>
  <g id="axes_2">
   <g id="patch_7">
    <path d="M 34.496875 364.32 
L 503.360875 364.32 
L 503.360875 228.130169 
L 34.496875 228.130169 
z
" style="fill: #ffffff"/>
   </g>
   <g id="FillBetweenPolyCollection_1">
    <path d="M 38.50426 340.981733 
L 38.50426 364.32 
L 58.541183 364.32 
L 78.578106 364.32 
L 98.615029 364.32 
L 118.651952 364.32 
L 138.688875 364.32 
L 158.725798 364.32 
L 178.762721 364.32 
L 198.799644 364.32 
L 218.836567 364.32 
L 238.87349 364.32 
L 258.910413 364.32 
L 278.947337 364.32 
L 298.98426 364.32 
L 319.021183 364.32 
L 339.058106 364.32 
L 359.095029 364.32 
L 379.131952 364.32 
L 399.168875 364.32 
L 419.205798 364.32 
L 439.242721 364.32 
L 459.279644 364.32 
L 479.316567 364.32 
L 499.35349 364.32 
L 499.35349 357.488035 
L 499.35349 357.488035 
L 479.316567 358.96915 
L 459.279644 353.875141 
L 439.242721 356.417865 
L 419.205798 356.289445 
L 399.168875 352.04301 
L 379.131952 350.561895 
L 359.095029 350.65607 
L 339.058106 342.685444 
L 319.021183 340.399561 
L 298.98426 349.9626 
L 278.947337 333.242264 
L 258.910413 346.007251 
L 238.87349 347.76233 
L 218.836567 338.841393 
L 198.799644 333.653209 
L 178.762721 326.110651 
L 158.725798 315.511688 
L 138.688875 343.712807 
L 118.651952 324.244275 
L 98.615029 332.060796 
L 78.578106 335.827795 
L 58.541183 331.889569 
L 38.50426 340.981733 
z
" clip-path="url(#p9a98ec4a9e)" style="fill: #9dc3e6; fill-opacity: 0.85"/>
   </g>
   <g id="FillBetweenPolyCollection_2">
    <path d="M 38.50426 340.981733 
L 38.50426 340.981733 
L 58.541183 331.889569 
L 78.578106 335.827795 
L 98.615029 332.060796 
L 118.651952 324.244275 
L 138.688875 343.712807 
L 158.725798 315.511688 
L 178.762721 326.110651 
L 198.799644 333.653209 
L 218.836567 338.841393 
L 238.87349 347.76233 
L 258.910413 346.007251 
L 278.947337 333.242264 
L 298.98426 349.9626 
L 319.021183 340.399561 
L 339.058106 342.685444 
L 359.095029 350.65607 
L 379.131952 350.561895 
L 399.168875 352.04301 
L 419.205798 356.289445 
L 439.242721 356.417865 
L 459.279644 353.875141 
L 479.316567 358.96915 
L 499.35349 357.488035 
L 499.35349 357.488035 
L 499.35349 357.488035 
L 479.316567 358.96915 
L 459.279644 353.875141 
L 439.242721 356.417865 
L 419.205798 356.289445 
L 399.168875 352.04301 
L 379.131952 339.603354 
L 359.095029 312.301178 
L 339.058106 281.043654 
L 319.021183 260.950142 
L 298.98426 258.184823 
L 278.947337 234.6154 
L 258.910413 250.120022 
L 238.87349 255.984553 
L 218.836567 259.391975 
L 198.799644 272.011419 
L 178.762721 287.75576 
L 158.725798 299.073877 
L 138.688875 340.973172 
L 118.651952 324.244275 
L 98.615029 332.060796 
L 78.578106 335.827795 
L 58.541183 331.889569 
L 38.50426 340.981733 
z
" clip-path="url(#p9a98ec4a9e)" style="fill: #f7c97f; fill-opacity: 0.85"/>
   </g>
   <g id="matplotlib.axis_3">
    <g id="xtick_13">
     <g id="line2d_31">
      <g>
       <use xlink:href="#me7b6ef0c50" x="38.50426" y="364.32" style="stroke: #000000; stroke-width: 0.8"/>
      </g>
     </g>
     <g id="text_11">
      <text style="font-size: 8px; font-family: 'SimSun', 'Microsoft YaHei', 'SimHei', 'Arial Unicode MS', 'DejaVu Sans', sans-serif; text-anchor: middle" x="38.50426" y="377.03875" transform="rotate(-0 38.50426 377.03875)">0</text>
     </g>
    </g>
    <g id="xtick_14">
     <g id="line2d_32">
      <g>
       <use xlink:href="#me7b6ef0c50" x="78.578106" y="364.32" style="stroke: #000000; stroke-width: 0.8"/>
      </g>
     </g>
     <g id="text_12">
      <text style="font-size: 8px; font-family: 'SimSun', 'Microsoft YaHei', 'SimHei', 'Arial Unicode MS', 'DejaVu Sans', sans-serif; text-anchor: middle" x="78.578106" y="377.03875" transform="rotate(-0 78.578106 377.03875)">2</text>
     </g>
    </g>
    <g id="xtick_15">
     <g id="line2d_33">
      <g>
       <use xlink:href="#me7b6ef0c50" x="118.651952" y="364.32" style="stroke: #000000; stroke-width: 0.8"/>
      </g>
     </g>
     <g id="text_13">
      <text style="font-size: 8px; font-family: 'SimSun', 'Microsoft YaHei', 'SimHei', 'Arial Unicode MS', 'DejaVu Sans', sans-serif; text-anchor: middle" x="118.651952" y="377.03875" transform="rotate(-0 118.651952 377.03875)">4</text>
     </g>
    </g>
    <g id="xtick_16">
     <g id="line2d_34">
      <g>
       <use xlink:href="#me7b6ef0c50" x="158.725798" y="364.32" style="stroke: #000000; stroke-width: 0.8"/>
      </g>
     </g>
     <g id="text_14">
      <text style="font-size: 8px; font-family: 'SimSun', 'Microsoft YaHei', 'SimHei', 'Arial Unicode MS', 'DejaVu Sans', sans-serif; text-anchor: middle" x="158.725798" y="377.03875" transform="rotate(-0 158.725798 377.03875)">6</text>
     </g>
    </g>
    <g id="xtick_17">
     <g id="line2d_35">
      <g>
       <use xlink:href="#me7b6ef0c50" x="198.799644" y="364.32" style="stroke: #000000; stroke-width: 0.8"/>
      </g>
     </g>
     <g id="text_15">
      <text style="font-size: 8px; font-family: 'SimSun', 'Microsoft YaHei', 'SimHei', 'Arial Unicode MS', 'DejaVu Sans', sans-serif; text-anchor: middle" x="198.799644" y="377.03875" transform="rotate(-0 198.799644 377.03875)">8</text>
     </g>
    </g>
    <g id="xtick_18">
     <g id="line2d_36">
      <g>
       <use xlink:href="#me7b6ef0c50" x="238.87349" y="364.32" style="stroke: #000000; stroke-width: 0.8"/>
      </g>
     </g>
     <g id="text_16">
      <text style="font-size: 8px; font-family: 'SimSun', 'Microsoft YaHei', 'SimHei', 'Arial Unicode MS', 'DejaVu Sans', sans-serif; text-anchor: middle" x="238.87349" y="377.03875" transform="rotate(-0 238.87349 377.03875)">10</text>
     </g>
    </g>
    <g id="xtick_19">
     <g id="line2d_37">
      <g>
       <use xlink:href="#me7b6ef0c50" x="278.947337" y="364.32" style="stroke: #000000; stroke-width: 0.8"/>
      </g>
     </g>
     <g id="text_17">
      <text style="font-size: 8px; font-family: 'SimSun', 'Microsoft YaHei', 'SimHei', 'Arial Unicode MS', 'DejaVu Sans', sans-serif; text-anchor: middle" x="278.947337" y="377.03875" transform="rotate(-0 278.947337 377.03875)">12</text>
     </g>
    </g>
    <g id="xtick_20">
     <g id="line2d_38">
      <g>
       <use xlink:href="#me7b6ef0c50" x="319.021183" y="364.32" style="stroke: #000000; stroke-width: 0.8"/>
      </g>
     </g>
     <g id="text_18">
      <text style="font-size: 8px; font-family: 'SimSun', 'Microsoft YaHei', 'SimHei', 'Arial Unicode MS', 'DejaVu Sans', sans-serif; text-anchor: middle" x="319.021183" y="377.03875" transform="rotate(-0 319.021183 377.03875)">14</text>
     </g>
    </g>
    <g id="xtick_21">
     <g id="line2d_39">
      <g>
       <use xlink:href="#me7b6ef0c50" x="359.095029" y="364.32" style="stroke: #000000; stroke-width: 0.8"/>
      </g>
     </g>
     <g id="text_19">
      <text style="font-size: 8px; font-family: 'SimSun', 'Microsoft YaHei', 'SimHei', 'Arial Unicode MS', 'DejaVu Sans', sans-serif; text-anchor: middle" x="359.095029" y="377.03875" transform="rotate(-0 359.095029 377.03875)">16</text>
     </g>
    </g>
    <g id="xtick_22">
     <g id="line2d_40">
      <g>
       <use xlink:href="#me7b6ef0c50" x="399.168875" y="364.32" style="stroke: #000000; stroke-width: 0.8"/>
      </g>
     </g>
     <g id="text_20">
      <text style="font-size: 8px; font-family: 'SimSun', 'Microsoft YaHei', 'SimHei', 'Arial Unicode MS', 'DejaVu Sans', sans-serif; text-anchor: middle" x="399.168875" y="377.03875" transform="rotate(-0 399.168875 377.03875)">18</text>
     </g>
    </g>
    <g id="xtick_23">
     <g id="line2d_41">
      <g>
       <use xlink:href="#me7b6ef0c50" x="439.242721" y="364.32" style="stroke: #000000; stroke-width: 0.8"/>
      </g>
     </g>
     <g id="text_21">
      <text style="font-size: 8px; font-family: 'SimSun', 'Microsoft YaHei', 'SimHei', 'Arial Unicode MS', 'DejaVu Sans', sans-serif; text-anchor: middle" x="439.242721" y="377.03875" transform="rotate(-0 439.242721 377.03875)">20</text>
     </g>
    </g>
    <g id="xtick_24">
     <g id="line2d_42">
      <g>
       <use xlink:href="#me7b6ef0c50" x="479.316567" y="364.32" style="stroke: #000000; stroke-width: 0.8"/>
      </g>
     </g>
     <g id="text_22">
      <text style="font-size: 8px; font-family: 'SimSun', 'Microsoft YaHei', 'SimHei', 'Arial Unicode MS', 'DejaVu Sans', sans-serif; text-anchor: middle" x="479.316567" y="377.03875" transform="rotate(-0 479.316567 377.03875)">22</text>
     </g>
    </g>
    <g id="text_23">
     <text style="font-size: 9px; font-family: 'SimSun', 'Microsoft YaHei', 'SimHei', 'Arial Unicode MS', 'DejaVu Sans', sans-serif; text-anchor: middle" x="268.928875" y="389.10125" transform="rotate(-0 268.928875 389.10125)">时段/h</text>
    </g>
   </g>
   <g id="matplotlib.axis_4">
    <g id="ytick_7">
     <g id="line2d_43">
      <path d="M 34.496875 364.32 
L 503.360875 364.32 
" clip-path="url(#p9a98ec4a9e)" style="fill: none; stroke-dasharray: 1.665,0.72; stroke-dashoffset: 0; stroke: #b0b0b0; stroke-opacity: 0.45; stroke-width: 0.45"/>
     </g>
     <g id="line2d_44">
      <g>
       <use xlink:href="#m71b7b4737c" x="34.496875" y="364.32" style="stroke: #000000; stroke-width: 0.8"/>
      </g>
     </g>
     <g id="text_24">
      <text style="font-size: 8px; font-family: 'SimSun', 'Microsoft YaHei', 'SimHei', 'Arial Unicode MS', 'DejaVu Sans', sans-serif; text-anchor: end" x="27.496875" y="367.179375" transform="rotate(-0 27.496875 367.179375)">0</text>
     </g>
    </g>
    <g id="ytick_8">
     <g id="line2d_45">
      <path d="M 34.496875 342.916601 
L 503.360875 342.916601 
" clip-path="url(#p9a98ec4a9e)" style="fill: none; stroke-dasharray: 1.665,0.72; stroke-dashoffset: 0; stroke: #b0b0b0; stroke-opacity: 0.45; stroke-width: 0.45"/>
     </g>
     <g id="line2d_46">
      <g>
       <use xlink:href="#m71b7b4737c" x="34.496875" y="342.916601" style="stroke: #000000; stroke-width: 0.8"/>
      </g>
     </g>
     <g id="text_25">
      <text style="font-size: 8px; font-family: 'SimSun', 'Microsoft YaHei', 'SimHei', 'Arial Unicode MS', 'DejaVu Sans', sans-serif; text-anchor: end" x="27.496875" y="345.775976" transform="rotate(-0 27.496875 345.775976)">10</text>
     </g>
    </g>
    <g id="ytick_9">
     <g id="line2d_47">
      <path d="M 34.496875 321.513201 
L 503.360875 321.513201 
" clip-path="url(#p9a98ec4a9e)" style="fill: none; stroke-dasharray: 1.665,0.72; stroke-dashoffset: 0; stroke: #b0b0b0; stroke-opacity: 0.45; stroke-width: 0.45"/>
     </g>
     <g id="line2d_48">
      <g>
       <use xlink:href="#m71b7b4737c" x="34.496875" y="321.513201" style="stroke: #000000; stroke-width: 0.8"/>
      </g>
     </g>
     <g id="text_26">
      <text style="font-size: 8px; font-family: 'SimSun', 'Microsoft YaHei', 'SimHei', 'Arial Unicode MS', 'DejaVu Sans', sans-serif; text-anchor: end" x="27.496875" y="324.372576" transform="rotate(-0 27.496875 324.372576)">20</text>
     </g>
    </g>
    <g id="ytick_10">
     <g id="line2d_49">
      <path d="M 34.496875 300.109802 
L 503.360875 300.109802 
" clip-path="url(#p9a98ec4a9e)" style="fill: none; stroke-dasharray: 1.665,0.72; stroke-dashoffset: 0; stroke: #b0b0b0; stroke-opacity: 0.45; stroke-width: 0.45"/>
     </g>
     <g id="line2d_50">
      <g>
       <use xlink:href="#m71b7b4737c" x="34.496875" y="300.109802" style="stroke: #000000; stroke-width: 0.8"/>
      </g>
     </g>
     <g id="text_27">
      <text style="font-size: 8px; font-family: 'SimSun', 'Microsoft YaHei', 'SimHei', 'Arial Unicode MS', 'DejaVu Sans', sans-serif; text-anchor: end" x="27.496875" y="302.969177" transform="rotate(-0 27.496875 302.969177)">30</text>
     </g>
    </g>
    <g id="ytick_11">
     <g id="line2d_51">
      <path d="M 34.496875 278.706402 
L 503.360875 278.706402 
" clip-path="url(#p9a98ec4a9e)" style="fill: none; stroke-dasharray: 1.665,0.72; stroke-dashoffset: 0; stroke: #b0b0b0; stroke-opacity: 0.45; stroke-width: 0.45"/>
     </g>
     <g id="line2d_52">
      <g>
       <use xlink:href="#m71b7b4737c" x="34.496875" y="278.706402" style="stroke: #000000; stroke-width: 0.8"/>
      </g>
     </g>
     <g id="text_28">
      <text style="font-size: 8px; font-family: 'SimSun', 'Microsoft YaHei', 'SimHei', 'Arial Unicode MS', 'DejaVu Sans', sans-serif; text-anchor: end" x="27.496875" y="281.565777" transform="rotate(-0 27.496875 281.565777)">40</text>
     </g>
    </g>
    <g id="ytick_12">
     <g id="line2d_53">
      <path d="M 34.496875 257.303003 
L 503.360875 257.303003 
" clip-path="url(#p9a98ec4a9e)" style="fill: none; stroke-dasharray: 1.665,0.72; stroke-dashoffset: 0; stroke: #b0b0b0; stroke-opacity: 0.45; stroke-width: 0.45"/>
     </g>
     <g id="line2d_54">
      <g>
       <use xlink:href="#m71b7b4737c" x="34.496875" y="257.303003" style="stroke: #000000; stroke-width: 0.8"/>
      </g>
     </g>
     <g id="text_29">
      <text style="font-size: 8px; font-family: 'SimSun', 'Microsoft YaHei', 'SimHei', 'Arial Unicode MS', 'DejaVu Sans', sans-serif; text-anchor: end" x="27.496875" y="260.162378" transform="rotate(-0 27.496875 260.162378)">50</text>
     </g>
    </g>
    <g id="ytick_13">
     <g id="line2d_55">
      <path d="M 34.496875 235.899603 
L 503.360875 235.899603 
" clip-path="url(#p9a98ec4a9e)" style="fill: none; stroke-dasharray: 1.665,0.72; stroke-dashoffset: 0; stroke: #b0b0b0; stroke-opacity: 0.45; stroke-width: 0.45"/>
     </g>
     <g id="line2d_56">
      <g>
       <use xlink:href="#m71b7b4737c" x="34.496875" y="235.899603" style="stroke: #000000; stroke-width: 0.8"/>
      </g>
     </g>
     <g id="text_30">
      <text style="font-size: 8px; font-family: 'SimSun', 'Microsoft YaHei', 'SimHei', 'Arial Unicode MS', 'DejaVu Sans', sans-serif; text-anchor: end" x="27.496875" y="238.758978" transform="rotate(-0 27.496875 238.758978)">60</text>
     </g>
    </g>
    <g id="text_31">
     <text style="font-size: 9px; font-family: 'SimSun', 'Microsoft YaHei', 'SimHei', 'Arial Unicode MS', 'DejaVu Sans', sans-serif; text-anchor: middle" x="14.336719" y="296.225085" transform="rotate(-90 14.336719 296.225085)">发电功率/MW</text>
    </g>
   </g>
   <g id="line2d_57">
    <path d="M 38.50426 340.981733 
L 58.541183 331.889569 
L 78.578106 335.827795 
L 98.615029 332.060796 
L 118.651952 324.244275 
L 138.688875 340.973172 
L 158.725798 299.073877 
L 178.762721 287.75576 
L 198.799644 272.011419 
L 218.836567 259.391975 
L 238.87349 255.984553 
L 258.910413 250.120022 
L 278.947337 234.6154 
L 298.98426 258.184823 
L 319.021183 260.950142 
L 339.058106 281.043654 
L 359.095029 312.301178 
L 379.131952 339.603354 
L 399.168875 352.04301 
L 419.205798 356.289445 
L 439.242721 356.417865 
L 459.279644 353.875141 
L 479.316567 358.96915 
L 499.35349 357.488035 
" clip-path="url(#p9a98ec4a9e)" style="fill: none; stroke: #2f6b4f; stroke-width: 1.6; stroke-linecap: square"/>
    <defs>
     <path id="m4f3cb87534" d="M 0 2.1 
C 0.556927 2.1 1.091118 1.878731 1.484924 1.484924 
C 1.878731 1.091118 2.1 0.556927 2.1 0 
C 2.1 -0.556927 1.878731 -1.091118 1.484924 -1.484924 
C 1.091118 -1.878731 0.556927 -2.1 0 -2.1 
C -0.556927 -2.1 -1.091118 -1.878731 -1.484924 -1.484924 
C -1.878731 -1.091118 -2.1 -0.556927 -2.1 0 
C -2.1 0.556927 -1.878731 1.091118 -1.484924 1.484924 
C -1.091118 1.878731 -0.556927 2.1 0 2.1 
z
" style="stroke: #2f6b4f"/>
    </defs>
    <g clip-path="url(#p9a98ec4a9e)">
     <use xlink:href="#m4f3cb87534" x="38.50426" y="340.981733" style="fill: #2f6b4f; stroke: #2f6b4f"/>
     <use xlink:href="#m4f3cb87534" x="58.541183" y="331.889569" style="fill: #2f6b4f; stroke: #2f6b4f"/>
     <use xlink:href="#m4f3cb87534" x="78.578106" y="335.827795" style="fill: #2f6b4f; stroke: #2f6b4f"/>
     <use xlink:href="#m4f3cb87534" x="98.615029" y="332.060796" style="fill: #2f6b4f; stroke: #2f6b4f"/>
     <use xlink:href="#m4f3cb87534" x="118.651952" y="324.244275" style="fill: #2f6b4f; stroke: #2f6b4f"/>
     <use xlink:href="#m4f3cb87534" x="138.688875" y="340.973172" style="fill: #2f6b4f; stroke: #2f6b4f"/>
     <use xlink:href="#m4f3cb87534" x="158.725798" y="299.073877" style="fill: #2f6b4f; stroke: #2f6b4f"/>
     <use xlink:href="#m4f3cb87534" x="178.762721" y="287.75576" style="fill: #2f6b4f; stroke: #2f6b4f"/>
     <use xlink:href="#m4f3cb87534" x="198.799644" y="272.011419" style="fill: #2f6b4f; stroke: #2f6b4f"/>
     <use xlink:href="#m4f3cb87534" x="218.836567" y="259.391975" style="fill: #2f6b4f; stroke: #2f6b4f"/>
     <use xlink:href="#m4f3cb87534" x="238.87349" y="255.984553" style="fill: #2f6b4f; stroke: #2f6b4f"/>
     <use xlink:href="#m4f3cb87534" x="258.910413" y="250.120022" style="fill: #2f6b4f; stroke: #2f6b4f"/>
     <use xlink:href="#m4f3cb87534" x="278.947337" y="234.6154" style="fill: #2f6b4f; stroke: #2f6b4f"/>
     <use xlink:href="#m4f3cb87534" x="298.98426" y="258.184823" style="fill: #2f6b4f; stroke: #2f6b4f"/>
     <use xlink:href="#m4f3cb87534" x="319.021183" y="260.950142" style="fill: #2f6b4f; stroke: #2f6b4f"/>
     <use xlink:href="#m4f3cb87534" x="339.058106" y="281.043654" style="fill: #2f6b4f; stroke: #2f6b4f"/>
     <use xlink:href="#m4f3cb87534" x="359.095029" y="312.301178" style="fill: #2f6b4f; stroke: #2f6b4f"/>
     <use xlink:href="#m4f3cb87534" x="379.131952" y="339.603354" style="fill: #2f6b4f; stroke: #2f6b4f"/>
     <use xlink:href="#m4f3cb87534" x="399.168875" y="352.04301" style="fill: #2f6b4f; stroke: #2f6b4f"/>
     <use xlink:href="#m4f3cb87534" x="419.205798" y="356.289445" style="fill: #2f6b4f; stroke: #2f6b4f"/>
     <use xlink:href="#m4f3cb87534" x="439.242721" y="356.417865" style="fill: #2f6b4f; stroke: #2f6b4f"/>
     <use xlink:href="#m4f3cb87534" x="459.279644" y="353.875141" style="fill: #2f6b4f; stroke: #2f6b4f"/>
     <use xlink:href="#m4f3cb87534" x="479.316567" y="358.96915" style="fill: #2f6b4f; stroke: #2f6b4f"/>
     <use xlink:href="#m4f3cb87534" x="499.35349" y="357.488035" style="fill: #2f6b4f; stroke: #2f6b4f"/>
    </g>
   </g>
   <g id="patch_8">
    <path d="M 34.496875 364.32 
L 34.496875 228.130169 
" style="fill: none; stroke: #000000; stroke-width: 0.8; stroke-linejoin: miter; stroke-linecap: square"/>
   </g>
   <g id="patch_9">
    <path d="M 503.360875 364.32 
L 503.360875 228.130169 
" style="fill: none; stroke: #000000; stroke-width: 0.8; stroke-linejoin: miter; stroke-linecap: square"/>
   </g>
   <g id="patch_10">
    <path d="M 34.496875 364.32 
L 503.360875 364.32 
" style="fill: none; stroke: #000000; stroke-width: 0.8; stroke-linejoin: miter; stroke-linecap: square"/>
   </g>
   <g id="patch_11">
    <path d="M 34.496875 228.130169 
L 503.360875 228.130169 
" style="fill: none; stroke: #000000; stroke-width: 0.8; stroke-linejoin: miter; stroke-linecap: square"/>
   </g>
   <g id="legend_2">
    <g id="patch_12">
     <path d="M 188.928875 403.825513 
L 208.128875 403.825513 
L 208.128875 398.225513 
L 188.928875 398.225513 
z
" style="fill: #9dc3e6; fill-opacity: 0.85"/>
    </g>
    <g id="text_32">
     <text style="font-size: 8px; font-family: 'SimSun', 'Microsoft YaHei', 'SimHei', 'Arial Unicode MS', 'DejaVu Sans', sans-serif; text-anchor: start" x="214.528875" y="403.825513" transform="rotate(-0 214.528875 403.825513)">风电</text>
    </g>
    <g id="patch_13">
     <path d="M 240.128875 403.825513 
L 259.328875 403.825513 
L 259.328875 398.225513 
L 240.128875 398.225513 
z
" style="fill: #f7c97f; fill-opacity: 0.85"/>
    </g>
    <g id="text_33">
     <text style="font-size: 8px; font-family: 'SimSun', 'Microsoft YaHei', 'SimHei', 'Arial Unicode MS', 'DejaVu Sans', sans-serif; text-anchor: start" x="265.728875" y="403.825513" transform="rotate(-0 265.728875 403.825513)">光伏</text>
    </g>
    <g id="line2d_58">
     <path d="M 291.328875 401.025513 
L 300.928875 401.025513 
L 310.528875 401.025513 
" style="fill: none; stroke: #2f6b4f; stroke-width: 1.6; stroke-linecap: square"/>
     <g>
      <use xlink:href="#m4f3cb87534" x="300.928875" y="401.025513" style="fill: #2f6b4f; stroke: #2f6b4f"/>
     </g>
    </g>
    <g id="text_34">
     <text style="font-size: 8px; font-family: 'SimSun', 'Microsoft YaHei', 'SimHei', 'Arial Unicode MS', 'DejaVu Sans', sans-serif; text-anchor: start" x="316.928875" y="403.825513" transform="rotate(-0 316.928875 403.825513)">风光合计</text>
    </g>
   </g>
  </g>
  <g id="text_35">
   <text style="font-size: 10px; font-family: 'SimSun', 'Microsoft YaHei', 'SimHei', 'Arial Unicode MS', 'DejaVu Sans', sans-serif; text-anchor: middle" x="247.616875" y="15.16875" transform="rotate(-0 247.616875 15.16875)">典型日负荷与新能源出力分项曲线</text>
  </g>
 </g>
 <defs>
  <clipPath id="p908b019c10">
   <rect x="34.496875" y="42.912" width="468.864" height="136.189831"/>
  </clipPath>
  <clipPath id="p9a98ec4a9e">
   <rect x="34.496875" y="228.130169" width="468.864" height="136.189831"/>
  </clipPath>
 </defs>
</svg>
