<?xml version="1.0" encoding="UTF-8"?>
<svg xmlns="http://www.w3.org/2000/svg" width="2400" height="1350" viewBox="0 0 2400 1350">
<defs>
<marker id="arrow" viewBox="0 0 10 10" refX="9" refY="5" markerWidth="9" markerHeight="9" orient="auto-start-reverse">
<path d="M 0 0 L 10 5 L 0 10 z" fill="#6F7B83"/>
</marker>
<filter id="shadow" x="-10%" y="-10%" width="120%" height="120%">
<feDropShadow dx="0" dy="8" stdDeviation="7" flood-color="#263645" flood-opacity="0.14"/>
</filter>
</defs>
<rect width="2400" height="1350" fill="#F7FAFC"/>
<text x="1200.0" y="86.0" font-family="Microsoft YaHei, SimHei, Noto Sans CJK SC, Arial, sans-serif" font-size="52" font-weight="700" text-anchor="middle" fill="#17324D"><tspan x="1200.0" dy="0.0">制氨负荷柔性递进与储能配置逻辑</tspan></text>
<text x="1200.0" y="148.0" font-family="Microsoft YaHei, SimHei, Noto Sans CJK SC, Arial, sans-serif" font-size="34" font-weight="700" text-anchor="middle" fill="#5D6974"><tspan x="1200.0" dy="0.0">从“固定生产”到“小时级柔性”，再到“完全离网可靠性”的建模升级</tspan></text>
<rect x="110.0" y="240.0" width="470.0" height="570.0" rx="28.0" fill="#FFFFFF" stroke="#A64245" stroke-width="6"/>
<text x="345.0" y="306.0" font-family="Microsoft YaHei, SimHei, Noto Sans CJK SC, Arial, sans-serif" font-size="38" font-weight="700" text-anchor="middle" fill="#A64245"><tspan x="345.0" dy="0.0">Q1 刚性满负荷</tspan></text>
<rect x="165.0" y="375.0" width="360.0" height="165.0" rx="16.0" fill="#FFFFFF" stroke="#D7E0E6" stroke-width="2.2"/>
<line x1="189.0" y1="508.0" x2="507.0" y2="508.0" stroke="#BAC5CC" stroke-width="3" stroke-linecap="round" fill="none"/>
<line x1="193.0" y1="445.0" x2="503.0" y2="445.0" stroke="#A64245" stroke-width="8" stroke-linecap="round" fill="none"/>
<text x="345.0" y="645.0" font-family="Microsoft YaHei, SimHei, Noto Sans CJK SC, Arial, sans-serif" font-size="31" font-weight="400" text-anchor="middle" fill="#17324D"><tspan x="345.0" dy="0.0">生产负荷全天固定</tspan><tspan x="345.0" dy="38.8">上网比例35.92%</tspan><tspan x="345.0" dy="38.8">作为后续基准</tspan></text>
<rect x="675.0" y="240.0" width="470.0" height="570.0" rx="28.0" fill="#FFFFFF" stroke="#C46A1A" stroke-width="6"/>
<text x="910.0" y="306.0" font-family="Microsoft YaHei, SimHei, Noto Sans CJK SC, Arial, sans-serif" font-size="38" font-weight="700" text-anchor="middle" fill="#C46A1A"><tspan x="910.0" dy="0.0">Q2 离散开停</tspan></text>
<rect x="730.0" y="375.0" width="360.0" height="165.0" rx="16.0" fill="#FFFFFF" stroke="#D7E0E6" stroke-width="2.2"/>
<line x1="754.0" y1="508.0" x2="1072.0" y2="508.0" stroke="#BAC5CC" stroke-width="3" stroke-linecap="round" fill="none"/>
<polyline points="758.0,508.0 820.0,508.0 820.0,435.0 900.0,435.0 900.0,508.0 980.0,508.0 980.0,435.0 1065.0,435.0" stroke="#C46A1A" stroke-width="7" stroke-linecap="round" stroke-linejoin="round" fill="none"/>
<text x="910.0" y="645.0" font-family="Microsoft YaHei, SimHei, Noto Sans CJK SC, Arial, sans-serif" font-size="31" font-weight="400" text-anchor="middle" fill="#17324D"><tspan x="910.0" dy="0.0">选择生产小时</tspan><tspan x="910.0" dy="38.8">边际成本排序</tspan><tspan x="910.0" dy="38.8">54 t/d典型合规</tspan></text>
<rect x="1240.0" y="240.0" width="470.0" height="570.0" rx="28.0" fill="#FFFFFF" stroke="#138A94" stroke-width="6"/>
<text x="1475.0" y="306.0" font-family="Microsoft YaHei, SimHei, Noto Sans CJK SC, Arial, sans-serif" font-size="38" font-weight="700" text-anchor="middle" fill="#138A94"><tspan x="1475.0" dy="0.0">Q3 连续调节</tspan></text>
<rect x="1295.0" y="375.0" width="360.0" height="165.0" rx="16.0" fill="#FFFFFF" stroke="#D7E0E6" stroke-width="2.2"/>
<line x1="1319.0" y1="508.0" x2="1637.0" y2="508.0" stroke="#BAC5CC" stroke-width="3" stroke-linecap="round" fill="none"/>
<polyline points="1323.0,445.0 1326.4,447.8 1329.9,450.6 1333.3,453.3 1336.7,455.9 1340.1,458.4 1343.6,460.8 1347.0,463.0 1350.4,465.1 1353.8,466.9 1357.3,468.6 1360.7,470.0 1364.1,471.1 1367.6,472.0 1371.0,472.6 1374.4,472.9 1377.8,473.0 1381.3,472.8 1384.7,472.3 1388.1,471.5 1391.5,470.5 1395.0,469.2 1398.4,467.6 1401.8,465.9 1405.2,463.9 1408.7,461.8 1412.1,459.4 1415.5,457.0 1419.0,454.4 1422.4,451.7 1425.8,449.0 1429.2,446.2 1432.7,443.4 1436.1,440.6 1439.5,437.8 1442.9,435.2 1446.4,432.6 1449.8,430.2 1453.2,427.9 1456.7,425.7 1460.1,423.8 1463.5,422.1 1466.9,420.6 1470.4,419.3 1473.8,418.4 1477.2,417.6 1480.6,417.2 1484.1,417.0 1487.5,417.1 1490.9,417.5 1494.3,418.2 1497.8,419.1 1501.2,420.3 1504.6,421.7 1508.1,423.4 1511.5,425.2 1514.9,427.3 1518.3,429.6 1521.8,432.0 1525.2,434.5 1528.6,437.2 1532.0,439.9 1535.5,442.7 1538.9,445.5 1542.3,448.3 1545.8,451.0 1549.2,453.7 1552.6,456.3 1556.0,458.8 1559.5,461.2 1562.9,463.4 1566.3,465.4 1569.7,467.2 1573.2,468.8 1576.6,470.2 1580.0,471.3 1583.4,472.1 1586.9,472.7 1590.3,473.0 1593.7,473.0 1597.2,472.7 1600.6,472.2 1604.0,471.3 1607.4,470.3 1610.9,468.9 1614.3,467.4 1617.7,465.6 1621.1,463.6 1624.6,461.4 1628.0,459.0" stroke="#138A94" stroke-width="7" stroke-linecap="round" stroke-linejoin="round" fill="none"/>
<text x="1475.0" y="645.0" font-family="Microsoft YaHei, SimHei, Noto Sans CJK SC, Arial, sans-serif" font-size="31" font-weight="400" text-anchor="middle" fill="#17324D"><tspan x="1475.0" dy="0.0">10%--100%负荷率</tspan><tspan x="1475.0" dy="38.8">MILP+购售电互斥</tspan><tspan x="1475.0" dy="38.8">提高全满足天数</tspan></text>
<rect x="1805.0" y="240.0" width="470.0" height="570.0" rx="28.0" fill="#FFFFFF" stroke="#6A57A5" stroke-width="6"/>
<text x="2040.0" y="306.0" font-family="Microsoft YaHei, SimHei, Noto Sans CJK SC, Arial, sans-serif" font-size="38" font-weight="700" text-anchor="middle" fill="#6A57A5"><tspan x="2040.0" dy="0.0">Q4 离网储能</tspan></text>
<rect x="1860.0" y="375.0" width="360.0" height="165.0" rx="16.0" fill="#FFFFFF" stroke="#D7E0E6" stroke-width="2.2"/>
<line x1="1884.0" y1="508.0" x2="2202.0" y2="508.0" stroke="#BAC5CC" stroke-width="3" stroke-linecap="round" fill="none"/>
<polyline points="1888.0,465.0 1955.0,430.0 2020.0,473.0 2090.0,425.0 2192.0,455.0" stroke="#6A57A5" stroke-width="7" stroke-linecap="round" stroke-linejoin="round" fill="none"/>
<text x="2040.0" y="645.0" font-family="Microsoft YaHei, SimHei, Noto Sans CJK SC, Arial, sans-serif" font-size="31" font-weight="400" text-anchor="middle" fill="#17324D"><tspan x="2040.0" dy="0.0">删除购售电变量</tspan><tspan x="2040.0" dy="38.8">SOC闭环+容量扫描</tspan><tspan x="2040.0" dy="38.8">5/80/155 MWh权衡</tspan></text>
<line x1="590.0" y1="525.0" x2="655.0" y2="525.0" stroke="#6F7B83" stroke-width="4" stroke-linecap="round" fill="none" marker-end="url(#arrow)"/>
<line x1="1155.0" y1="525.0" x2="1220.0" y2="525.0" stroke="#6F7B83" stroke-width="4" stroke-linecap="round" fill="none" marker-end="url(#arrow)"/>
<line x1="1720.0" y1="525.0" x2="1785.0" y2="525.0" stroke="#6F7B83" stroke-width="4" stroke-linecap="round" fill="none" marker-end="url(#arrow)"/>
<rect x="230.0" y="930.0" width="2150.0" height="210.0" rx="30.0" fill="#EAF1FA" stroke="#2F5F9F" stroke-width="5"/>
<text x="1200.0" y="992.0" font-family="Microsoft YaHei, SimHei, Noto Sans CJK SC, Arial, sans-serif" font-size="40" font-weight="700" text-anchor="middle" fill="#2F5F9F"><tspan x="1200.0" dy="0.0">Q5 系统影响分析</tspan></text>
<text x="1200.0" y="1066.0" font-family="Microsoft YaHei, SimHei, Noto Sans CJK SC, Arial, sans-serif" font-size="34" font-weight="400" text-anchor="middle" fill="#17324D"><tspan x="1200.0" dy="0.0">将前四问输出转化为新能源消纳、电网调峰、备用配置、费用分担和政策准入证据</tspan><tspan x="1200.0" dy="44.9">形成“模型依据--系统影响--政策含义”的闭环</tspan></text>
</svg>
