<?xml version="1.0" encoding="utf-8" standalone="no"?>
<!DOCTYPE svg PUBLIC "-//W3C//DTD SVG 1.1//EN"
  "http://www.w3.org/Graphics/SVG/1.1/DTD/svg11.dtd">
<svg xmlns:xlink="http://www.w3.org/1999/xlink" width="510.788906pt" height="314.51587pt" viewBox="0 0 510.788906 314.51587" xmlns="http://www.w3.org/2000/svg" version="1.1">
 <metadata>
  <rdf:RDF xmlns:dc="http://purl.org/dc/elements/1.1/" xmlns:cc="http://creativecommons.org/ns#" xmlns:rdf="http://www.w3.org/1999/02/22-rdf-syntax-ns#">
   <cc:Work>
    <dc:type rdf:resource="http://purl.org/dc/dcmitype/StillImage"/>
    <dc:date>2026-05-23T16:45:26.922169</dc:date>
    <dc:format>image/svg+xml</dc:format>
    <dc:creator>
     <cc:Agent>
      <dc:title>Matplotlib v3.10.8, https://matplotlib.org/</dc:title>
     </cc:Agent>
    </dc:creator>
   </cc:Work>
  </rdf:RDF>
 </metadata>
 <defs>
  <style type="text/css">*{stroke-linejoin: round; stroke-linecap: butt}</style>
 </defs>
 <g id="figure_1">
  <g id="patch_1">
   <path d="M 0 314.51587 
L 510.788906 314.51587 
L 510.788906 0 
L 0 0 
z
" style="fill: #ffffff"/>
  </g>
  <g id="axes_1">
   <g id="patch_2">
    <path d="M 34.496875 242.35275 
L 472.256875 242.35275 
L 472.256875 21.16875 
L 34.496875 21.16875 
z
" style="fill: #ffffff"/>
   </g>
   <g id="FillBetweenPolyCollection_1">
    <path d="M 43.616875 204.449397 
L 43.616875 242.35275 
L 61.856875 242.35275 
L 80.096875 242.35275 
L 98.336875 242.35275 
L 116.576875 242.35275 
L 134.816875 242.35275 
L 153.056875 242.35275 
L 171.296875 242.35275 
L 189.536875 242.35275 
L 207.776875 242.35275 
L 226.016875 242.35275 
L 244.256875 242.35275 
L 262.496875 242.35275 
L 280.736875 242.35275 
L 298.976875 242.35275 
L 317.216875 242.35275 
L 335.456875 242.35275 
L 353.696875 242.35275 
L 371.936875 242.35275 
L 390.176875 242.35275 
L 408.416875 242.35275 
L 426.656875 242.35275 
L 444.896875 242.35275 
L 463.136875 242.35275 
L 463.136875 231.257051 
L 463.136875 231.257051 
L 444.896875 233.66251 
L 426.656875 225.389401 
L 408.416875 229.519003 
L 390.176875 229.310437 
L 371.936875 222.413862 
L 353.696875 220.008404 
L 335.456875 220.161352 
L 317.216875 207.21637 
L 298.976875 203.503899 
L 280.736875 219.035097 
L 262.496875 191.879833 
L 244.256875 212.611271 
L 226.016875 215.46167 
L 207.776875 200.973301 
L 189.536875 192.547244 
L 171.296875 180.297481 
L 153.056875 163.083853 
L 134.816875 208.884896 
L 116.576875 177.266325 
L 98.336875 189.961028 
L 80.096875 196.078958 
L 61.856875 189.682941 
L 43.616875 204.449397 
z
" clip-path="url(#p0c25659ee5)" style="fill: #9dc3e6; fill-opacity: 0.82"/>
   </g>
   <g id="FillBetweenPolyCollection_2">
    <path d="M 43.616875 204.449397 
L 43.616875 204.449397 
L 61.856875 189.682941 
L 80.096875 196.078958 
L 98.336875 189.961028 
L 116.576875 177.266325 
L 134.816875 208.884896 
L 153.056875 163.083853 
L 171.296875 180.297481 
L 189.536875 192.547244 
L 207.776875 200.973301 
L 226.016875 215.46167 
L 244.256875 212.611271 
L 262.496875 191.879833 
L 280.736875 219.035097 
L 298.976875 203.503899 
L 317.216875 207.21637 
L 335.456875 220.161352 
L 353.696875 220.008404 
L 371.936875 222.413862 
L 390.176875 229.310437 
L 408.416875 229.519003 
L 426.656875 225.389401 
L 444.896875 233.66251 
L 463.136875 231.257051 
L 463.136875 231.257051 
L 463.136875 231.257051 
L 444.896875 233.66251 
L 426.656875 225.389401 
L 408.416875 229.519003 
L 390.176875 229.310437 
L 371.936875 222.413862 
L 353.696875 202.210791 
L 335.456875 157.869708 
L 317.216875 107.1048 
L 298.976875 74.471209 
L 280.736875 69.980093 
L 262.496875 31.701321 
L 244.256875 56.882162 
L 226.016875 66.406666 
L 207.776875 71.940611 
L 189.536875 92.435674 
L 171.296875 118.005837 
L 153.056875 136.387434 
L 134.816875 204.435493 
L 116.576875 177.266325 
L 98.336875 189.961028 
L 80.096875 196.078958 
L 61.856875 189.682941 
L 43.616875 204.449397 
z
" clip-path="url(#p0c25659ee5)" style="fill: #f7c97f; fill-opacity: 0.82"/>
   </g>
   <g id="patch_3">
    <path d="M 37.232875 242.35275 
L 43.434475 242.35275 
L 43.434475 131.236555 
L 37.232875 131.236555 
z
" clip-path="url(#p0c25659ee5)" style="fill: #f4b6b2; stroke: #a61c2a; stroke-width: 0.5; stroke-linejoin: miter"/>
   </g>
   <g id="patch_4">
    <path d="M 55.472875 242.35275 
L 61.674475 242.35275 
L 61.674475 146.941557 
L 55.472875 146.941557 
z
" clip-path="url(#p0c25659ee5)" style="fill: #f4b6b2; stroke: #a61c2a; stroke-width: 0.5; stroke-linejoin: miter"/>
   </g>
   <g id="patch_5">
    <path d="M 73.712875 242.35275 
L 79.914475 242.35275 
L 79.914475 141.588369 
L 73.712875 141.588369 
z
" clip-path="url(#p0c25659ee5)" style="fill: #f4b6b2; stroke: #a61c2a; stroke-width: 0.5; stroke-linejoin: miter"/>
   </g>
   <g id="patch_6">
    <path d="M 91.952875 242.35275 
L 98.154475 242.35275 
L 98.154475 147.045145 
L 91.952875 147.045145 
z
" clip-path="url(#p0c25659ee5)" style="fill: #f4b6b2; stroke: #a61c2a; stroke-width: 0.5; stroke-linejoin: miter"/>
   </g>
   <g id="patch_7">
    <path d="M 110.192875 242.35275 
L 116.394475 242.35275 
L 116.394475 159.078695 
L 110.192875 159.078695 
z
" clip-path="url(#p0c25659ee5)" style="fill: #f4b6b2; stroke: #a61c2a; stroke-width: 0.5; stroke-linejoin: miter"/>
   </g>
   <g id="patch_8">
    <path d="M 128.432875 242.35275 
L 134.634475 242.35275 
L 134.634475 130.345284 
L 128.432875 130.345284 
z
" clip-path="url(#p0c25659ee5)" style="fill: #f4b6b2; stroke: #a61c2a; stroke-width: 0.5; stroke-linejoin: miter"/>
   </g>
   <g id="patch_9">
    <path d="M 146.672875 242.35275 
L 152.874475 242.35275 
L 152.874475 195.369139 
L 146.672875 195.369139 
z
" clip-path="url(#p0c25659ee5)" style="fill: #f4b6b2; stroke: #a61c2a; stroke-width: 0.5; stroke-linejoin: miter"/>
   </g>
   <g id="patch_10">
    <path d="M 164.912875 242.35275 
L 171.114475 242.35275 
L 171.114475 242.35275 
L 164.912875 242.35275 
z
" clip-path="url(#p0c25659ee5)" style="fill: #f4b6b2; stroke: #a61c2a; stroke-width: 0.5; stroke-linejoin: miter"/>
   </g>
   <g id="patch_11">
    <path d="M 183.152875 242.35275 
L 189.354475 242.35275 
L 189.354475 242.35275 
L 183.152875 242.35275 
z
" clip-path="url(#p0c25659ee5)" style="fill: #f4b6b2; stroke: #a61c2a; stroke-width: 0.5; stroke-linejoin: miter"/>
   </g>
   <g id="patch_12">
    <path d="M 201.392875 242.35275 
L 207.594475 242.35275 
L 207.594475 242.35275 
L 201.392875 242.35275 
z
" clip-path="url(#p0c25659ee5)" style="fill: #f4b6b2; stroke: #a61c2a; stroke-width: 0.5; stroke-linejoin: miter"/>
   </g>
   <g id="patch_13">
    <path d="M 219.632875 242.35275 
L 225.834475 242.35275 
L 225.834475 242.35275 
L 219.632875 242.35275 
z
" clip-path="url(#p0c25659ee5)" style="fill: #f4b6b2; stroke: #a61c2a; stroke-width: 0.5; stroke-linejoin: miter"/>
   </g>
   <g id="patch_14">
    <path d="M 237.872875 242.35275 
L 244.074475 242.35275 
L 244.074475 242.35275 
L 237.872875 242.35275 
z
" clip-path="url(#p0c25659ee5)" style="fill: #f4b6b2; stroke: #a61c2a; stroke-width: 0.5; stroke-linejoin: miter"/>
   </g>
   <g id="patch_15">
    <path d="M 256.112875 242.35275 
L 262.314475 242.35275 
L 262.314475 242.35275 
L 256.112875 242.35275 
z
" clip-path="url(#p0c25659ee5)" style="fill: #f4b6b2; stroke: #a61c2a; stroke-width: 0.5; stroke-linejoin: miter"/>
   </g>
   <g id="patch_16">
    <path d="M 274.352875 242.35275 
L 280.554475 242.35275 
L 280.554475 242.35275 
L 274.352875 242.35275 
z
" clip-path="url(#p0c25659ee5)" style="fill: #f4b6b2; stroke: #a61c2a; stroke-width: 0.5; stroke-linejoin: miter"/>
   </g>
   <g id="patch_17">
    <path d="M 292.592875 242.35275 
L 298.794475 242.35275 
L 298.794475 242.35275 
L 292.592875 242.35275 
z
" clip-path="url(#p0c25659ee5)" style="fill: #f4b6b2; stroke: #a61c2a; stroke-width: 0.5; stroke-linejoin: miter"/>
   </g>
   <g id="patch_18">
    <path d="M 310.832875 242.35275 
L 317.034475 242.35275 
L 317.034475 242.35275 
L 310.832875 242.35275 
z
" clip-path="url(#p0c25659ee5)" style="fill: #f4b6b2; stroke: #a61c2a; stroke-width: 0.5; stroke-linejoin: miter"/>
   </g>
   <g id="patch_19">
    <path d="M 329.072875 242.35275 
L 335.274475 242.35275 
L 335.274475 242.35275 
L 329.072875 242.35275 
z
" clip-path="url(#p0c25659ee5)" style="fill: #f4b6b2; stroke: #a61c2a; stroke-width: 0.5; stroke-linejoin: miter"/>
   </g>
   <g id="patch_20">
    <path d="M 347.312875 242.35275 
L 353.514475 242.35275 
L 353.514475 242.35275 
L 347.312875 242.35275 
z
" clip-path="url(#p0c25659ee5)" style="fill: #f4b6b2; stroke: #a61c2a; stroke-width: 0.5; stroke-linejoin: miter"/>
   </g>
   <g id="patch_21">
    <path d="M 365.552875 242.35275 
L 371.754475 242.35275 
L 371.754475 238.793228 
L 365.552875 238.793228 
z
" clip-path="url(#p0c25659ee5)" style="fill: #f4b6b2; stroke: #a61c2a; stroke-width: 0.5; stroke-linejoin: miter"/>
   </g>
   <g id="patch_22">
    <path d="M 383.792875 242.35275 
L 389.994475 242.35275 
L 389.994475 233.600635 
L 383.792875 233.600635 
z
" clip-path="url(#p0c25659ee5)" style="fill: #f4b6b2; stroke: #a61c2a; stroke-width: 0.5; stroke-linejoin: miter"/>
   </g>
   <g id="patch_23">
    <path d="M 402.032875 242.35275 
L 408.234475 242.35275 
L 408.234475 234.295159 
L 402.032875 234.295159 
z
" clip-path="url(#p0c25659ee5)" style="fill: #f4b6b2; stroke: #a61c2a; stroke-width: 0.5; stroke-linejoin: miter"/>
   </g>
   <g id="patch_24">
    <path d="M 420.272875 242.35275 
L 426.474475 242.35275 
L 426.474475 239.223568 
L 420.272875 239.223568 
z
" clip-path="url(#p0c25659ee5)" style="fill: #f4b6b2; stroke: #a61c2a; stroke-width: 0.5; stroke-linejoin: miter"/>
   </g>
   <g id="patch_25">
    <path d="M 438.512875 242.35275 
L 444.714475 242.35275 
L 444.714475 197.54587 
L 438.512875 197.54587 
z
" clip-path="url(#p0c25659ee5)" style="fill: #f4b6b2; stroke: #a61c2a; stroke-width: 0.5; stroke-linejoin: miter"/>
   </g>
   <g id="patch_26">
    <path d="M 456.752875 242.35275 
L 462.954475 242.35275 
L 462.954475 104.04514 
L 456.752875 104.04514 
z
" clip-path="url(#p0c25659ee5)" style="fill: #f4b6b2; stroke: #a61c2a; stroke-width: 0.5; stroke-linejoin: miter"/>
   </g>
   <g id="patch_27">
    <path d="M 43.799275 242.35275 
L 50.000875 242.35275 
L 50.000875 242.35275 
L 43.799275 242.35275 
z
" clip-path="url(#p0c25659ee5)" style="fill: #9dc3e6; stroke: #1f4e79; stroke-width: 0.5; stroke-linejoin: miter"/>
   </g>
   <g id="patch_28">
    <path d="M 62.039275 242.35275 
L 68.240875 242.35275 
L 68.240875 242.35275 
L 62.039275 242.35275 
z
" clip-path="url(#p0c25659ee5)" style="fill: #9dc3e6; stroke: #1f4e79; stroke-width: 0.5; stroke-linejoin: miter"/>
   </g>
   <g id="patch_29">
    <path d="M 80.279275 242.35275 
L 86.480875 242.35275 
L 86.480875 242.35275 
L 80.279275 242.35275 
z
" clip-path="url(#p0c25659ee5)" style="fill: #9dc3e6; stroke: #1f4e79; stroke-width: 0.5; stroke-linejoin: miter"/>
   </g>
   <g id="patch_30">
    <path d="M 98.519275 242.35275 
L 104.720875 242.35275 
L 104.720875 242.35275 
L 98.519275 242.35275 
z
" clip-path="url(#p0c25659ee5)" style="fill: #9dc3e6; stroke: #1f4e79; stroke-width: 0.5; stroke-linejoin: miter"/>
   </g>
   <g id="patch_31">
    <path d="M 116.759275 242.35275 
L 122.960875 242.35275 
L 122.960875 242.35275 
L 116.759275 242.35275 
z
" clip-path="url(#p0c25659ee5)" style="fill: #9dc3e6; stroke: #1f4e79; stroke-width: 0.5; stroke-linejoin: miter"/>
   </g>
   <g id="patch_32">
    <path d="M 134.999275 242.35275 
L 141.200875 242.35275 
L 141.200875 242.35275 
L 134.999275 242.35275 
z
" clip-path="url(#p0c25659ee5)" style="fill: #9dc3e6; stroke: #1f4e79; stroke-width: 0.5; stroke-linejoin: miter"/>
   </g>
   <g id="patch_33">
    <path d="M 153.239275 242.35275 
L 159.440875 242.35275 
L 159.440875 242.35275 
L 153.239275 242.35275 
z
" clip-path="url(#p0c25659ee5)" style="fill: #9dc3e6; stroke: #1f4e79; stroke-width: 0.5; stroke-linejoin: miter"/>
   </g>
   <g id="patch_34">
    <path d="M 171.479275 242.35275 
L 177.680875 242.35275 
L 177.680875 242.35275 
L 171.479275 242.35275 
z
" clip-path="url(#p0c25659ee5)" style="fill: #9dc3e6; stroke: #1f4e79; stroke-width: 0.5; stroke-linejoin: miter"/>
   </g>
   <g id="patch_35">
    <path d="M 189.719275 242.35275 
L 195.920875 242.35275 
L 195.920875 242.35275 
L 189.719275 242.35275 
z
" clip-path="url(#p0c25659ee5)" style="fill: #9dc3e6; stroke: #1f4e79; stroke-width: 0.5; stroke-linejoin: miter"/>
   </g>
   <g id="patch_36">
    <path d="M 207.959275 242.35275 
L 214.160875 242.35275 
L 214.160875 230.798206 
L 207.959275 230.798206 
z
" clip-path="url(#p0c25659ee5)" style="fill: #9dc3e6; stroke: #1f4e79; stroke-width: 0.5; stroke-linejoin: miter"/>
   </g>
   <g id="patch_37">
    <path d="M 226.199275 242.35275 
L 232.400875 242.35275 
L 232.400875 224.986869 
L 226.199275 224.986869 
z
" clip-path="url(#p0c25659ee5)" style="fill: #9dc3e6; stroke: #1f4e79; stroke-width: 0.5; stroke-linejoin: miter"/>
   </g>
   <g id="patch_38">
    <path d="M 244.439275 242.35275 
L 250.640875 242.35275 
L 250.640875 214.696929 
L 244.439275 214.696929 
z
" clip-path="url(#p0c25659ee5)" style="fill: #9dc3e6; stroke: #1f4e79; stroke-width: 0.5; stroke-linejoin: miter"/>
   </g>
   <g id="patch_39">
    <path d="M 262.679275 242.35275 
L 268.880875 242.35275 
L 268.880875 187.290691 
L 262.679275 187.290691 
z
" clip-path="url(#p0c25659ee5)" style="fill: #9dc3e6; stroke: #1f4e79; stroke-width: 0.5; stroke-linejoin: miter"/>
   </g>
   <g id="patch_40">
    <path d="M 280.919275 242.35275 
L 287.120875 242.35275 
L 287.120875 223.588088 
L 280.919275 223.588088 
z
" clip-path="url(#p0c25659ee5)" style="fill: #9dc3e6; stroke: #1f4e79; stroke-width: 0.5; stroke-linejoin: miter"/>
   </g>
   <g id="patch_41">
    <path d="M 299.159275 242.35275 
L 305.360875 242.35275 
L 305.360875 231.347429 
L 299.159275 231.347429 
z
" clip-path="url(#p0c25659ee5)" style="fill: #9dc3e6; stroke: #1f4e79; stroke-width: 0.5; stroke-linejoin: miter"/>
   </g>
   <g id="patch_42">
    <path d="M 317.399275 242.35275 
L 323.600875 242.35275 
L 323.600875 242.35275 
L 317.399275 242.35275 
z
" clip-path="url(#p0c25659ee5)" style="fill: #9dc3e6; stroke: #1f4e79; stroke-width: 0.5; stroke-linejoin: miter"/>
   </g>
   <g id="patch_43">
    <path d="M 335.639275 242.35275 
L 341.840875 242.35275 
L 341.840875 242.35275 
L 335.639275 242.35275 
z
" clip-path="url(#p0c25659ee5)" style="fill: #9dc3e6; stroke: #1f4e79; stroke-width: 0.5; stroke-linejoin: miter"/>
   </g>
   <g id="patch_44">
    <path d="M 353.879275 242.35275 
L 360.080875 242.35275 
L 360.080875 242.35275 
L 353.879275 242.35275 
z
" clip-path="url(#p0c25659ee5)" style="fill: #9dc3e6; stroke: #1f4e79; stroke-width: 0.5; stroke-linejoin: miter"/>
   </g>
   <g id="patch_45">
    <path d="M 372.119275 242.35275 
L 378.320875 242.35275 
L 378.320875 242.35275 
L 372.119275 242.35275 
z
" clip-path="url(#p0c25659ee5)" style="fill: #9dc3e6; stroke: #1f4e79; stroke-width: 0.5; stroke-linejoin: miter"/>
   </g>
   <g id="patch_46">
    <path d="M 390.359275 242.35275 
L 396.560875 242.35275 
L 396.560875 242.35275 
L 390.359275 242.35275 
z
" clip-path="url(#p0c25659ee5)" style="fill: #9dc3e6; stroke: #1f4e79; stroke-width: 0.5; stroke-linejoin: miter"/>
   </g>
   <g id="patch_47">
    <path d="M 408.599275 242.35275 
L 414.800875 242.35275 
L 414.800875 242.35275 
L 408.599275 242.35275 
z
" clip-path="url(#p0c25659ee5)" style="fill: #9dc3e6; stroke: #1f4e79; stroke-width: 0.5; stroke-linejoin: miter"/>
   </g>
   <g id="patch_48">
    <path d="M 426.839275 242.35275 
L 433.040875 242.35275 
L 433.040875 242.35275 
L 426.839275 242.35275 
z
" clip-path="url(#p0c25659ee5)" style="fill: #9dc3e6; stroke: #1f4e79; stroke-width: 0.5; stroke-linejoin: miter"/>
   </g>
   <g id="patch_49">
    <path d="M 445.079275 242.35275 
L 451.280875 242.35275 
L 451.280875 242.35275 
L 445.079275 242.35275 
z
" clip-path="url(#p0c25659ee5)" style="fill: #9dc3e6; stroke: #1f4e79; stroke-width: 0.5; stroke-linejoin: miter"/>
   </g>
   <g id="patch_50">
    <path d="M 463.319275 242.35275 
L 469.520875 242.35275 
L 469.520875 242.35275 
L 463.319275 242.35275 
z
" clip-path="url(#p0c25659ee5)" style="fill: #9dc3e6; stroke: #1f4e79; stroke-width: 0.5; stroke-linejoin: miter"/>
   </g>
   <g id="matplotlib.axis_1">
    <g id="xtick_1">
     <g id="line2d_1">
      <defs>
       <path id="m8c077b9ed3" d="M 0 0 
L 0 3.5 
" style="stroke: #000000; stroke-width: 0.8"/>
      </defs>
      <g>
       <use xlink:href="#m8c077b9ed3" x="43.616875" y="242.35275" style="stroke: #000000; stroke-width: 0.8"/>
      </g>
     </g>
     <g id="text_1">
      <text style="font-size: 8px; font-family: 'SimSun', 'Microsoft YaHei', 'SimHei', 'Arial Unicode MS', 'DejaVu Sans', sans-serif; text-anchor: middle" x="43.616875" y="255.0715" transform="rotate(-0 43.616875 255.0715)">0</text>
     </g>
    </g>
    <g id="xtick_2">
     <g id="line2d_2">
      <g>
       <use xlink:href="#m8c077b9ed3" x="80.096875" y="242.35275" style="stroke: #000000; stroke-width: 0.8"/>
      </g>
     </g>
     <g id="text_2">
      <text style="font-size: 8px; font-family: 'SimSun', 'Microsoft YaHei', 'SimHei', 'Arial Unicode MS', 'DejaVu Sans', sans-serif; text-anchor: middle" x="80.096875" y="255.0715" transform="rotate(-0 80.096875 255.0715)">2</text>
     </g>
    </g>
    <g id="xtick_3">
     <g id="line2d_3">
      <g>
       <use xlink:href="#m8c077b9ed3" x="116.576875" y="242.35275" style="stroke: #000000; stroke-width: 0.8"/>
      </g>
     </g>
     <g id="text_3">
      <text style="font-size: 8px; font-family: 'SimSun', 'Microsoft YaHei', 'SimHei', 'Arial Unicode MS', 'DejaVu Sans', sans-serif; text-anchor: middle" x="116.576875" y="255.0715" transform="rotate(-0 116.576875 255.0715)">4</text>
     </g>
    </g>
    <g id="xtick_4">
     <g id="line2d_4">
      <g>
       <use xlink:href="#m8c077b9ed3" x="153.056875" y="242.35275" style="stroke: #000000; stroke-width: 0.8"/>
      </g>
     </g>
     <g id="text_4">
      <text style="font-size: 8px; font-family: 'SimSun', 'Microsoft YaHei', 'SimHei', 'Arial Unicode MS', 'DejaVu Sans', sans-serif; text-anchor: middle" x="153.056875" y="255.0715" transform="rotate(-0 153.056875 255.0715)">6</text>
     </g>
    </g>
    <g id="xtick_5">
     <g id="line2d_5">
      <g>
       <use xlink:href="#m8c077b9ed3" x="189.536875" y="242.35275" style="stroke: #000000; stroke-width: 0.8"/>
      </g>
     </g>
     <g id="text_5">
      <text style="font-size: 8px; font-family: 'SimSun', 'Microsoft YaHei', 'SimHei', 'Arial Unicode MS', 'DejaVu Sans', sans-serif; text-anchor: middle" x="189.536875" y="255.0715" transform="rotate(-0 189.536875 255.0715)">8</text>
     </g>
    </g>
    <g id="xtick_6">
     <g id="line2d_6">
      <g>
       <use xlink:href="#m8c077b9ed3" x="226.016875" y="242.35275" style="stroke: #000000; stroke-width: 0.8"/>
      </g>
     </g>
     <g id="text_6">
      <text style="font-size: 8px; font-family: 'SimSun', 'Microsoft YaHei', 'SimHei', 'Arial Unicode MS', 'DejaVu Sans', sans-serif; text-anchor: middle" x="226.016875" y="255.0715" transform="rotate(-0 226.016875 255.0715)">10</text>
     </g>
    </g>
    <g id="xtick_7">
     <g id="line2d_7">
      <g>
       <use xlink:href="#m8c077b9ed3" x="262.496875" y="242.35275" style="stroke: #000000; stroke-width: 0.8"/>
      </g>
     </g>
     <g id="text_7">
      <text style="font-size: 8px; font-family: 'SimSun', 'Microsoft YaHei', 'SimHei', 'Arial Unicode MS', 'DejaVu Sans', sans-serif; text-anchor: middle" x="262.496875" y="255.0715" transform="rotate(-0 262.496875 255.0715)">12</text>
     </g>
    </g>
    <g id="xtick_8">
     <g id="line2d_8">
      <g>
       <use xlink:href="#m8c077b9ed3" x="298.976875" y="242.35275" style="stroke: #000000; stroke-width: 0.8"/>
      </g>
     </g>
     <g id="text_8">
      <text style="font-size: 8px; font-family: 'SimSun', 'Microsoft YaHei', 'SimHei', 'Arial Unicode MS', 'DejaVu Sans', sans-serif; text-anchor: middle" x="298.976875" y="255.0715" transform="rotate(-0 298.976875 255.0715)">14</text>
     </g>
    </g>
    <g id="xtick_9">
     <g id="line2d_9">
      <g>
       <use xlink:href="#m8c077b9ed3" x="335.456875" y="242.35275" style="stroke: #000000; stroke-width: 0.8"/>
      </g>
     </g>
     <g id="text_9">
      <text style="font-size: 8px; font-family: 'SimSun', 'Microsoft YaHei', 'SimHei', 'Arial Unicode MS', 'DejaVu Sans', sans-serif; text-anchor: middle" x="335.456875" y="255.0715" transform="rotate(-0 335.456875 255.0715)">16</text>
     </g>
    </g>
    <g id="xtick_10">
     <g id="line2d_10">
      <g>
       <use xlink:href="#m8c077b9ed3" x="371.936875" y="242.35275" style="stroke: #000000; stroke-width: 0.8"/>
      </g>
     </g>
     <g id="text_10">
      <text style="font-size: 8px; font-family: 'SimSun', 'Microsoft YaHei', 'SimHei', 'Arial Unicode MS', 'DejaVu Sans', sans-serif; text-anchor: middle" x="371.936875" y="255.0715" transform="rotate(-0 371.936875 255.0715)">18</text>
     </g>
    </g>
    <g id="xtick_11">
     <g id="line2d_11">
      <g>
       <use xlink:href="#m8c077b9ed3" x="408.416875" y="242.35275" style="stroke: #000000; stroke-width: 0.8"/>
      </g>
     </g>
     <g id="text_11">
      <text style="font-size: 8px; font-family: 'SimSun', 'Microsoft YaHei', 'SimHei', 'Arial Unicode MS', 'DejaVu Sans', sans-serif; text-anchor: middle" x="408.416875" y="255.0715" transform="rotate(-0 408.416875 255.0715)">20</text>
     </g>
    </g>
    <g id="xtick_12">
     <g id="line2d_12">
      <g>
       <use xlink:href="#m8c077b9ed3" x="444.896875" y="242.35275" style="stroke: #000000; stroke-width: 0.8"/>
      </g>
     </g>
     <g id="text_12">
      <text style="font-size: 8px; font-family: 'SimSun', 'Microsoft YaHei', 'SimHei', 'Arial Unicode MS', 'DejaVu Sans', sans-serif; text-anchor: middle" x="444.896875" y="255.0715" transform="rotate(-0 444.896875 255.0715)">22</text>
     </g>
    </g>
    <g id="text_13">
     <text style="font-size: 9px; font-family: 'SimSun', 'Microsoft YaHei', 'SimHei', 'Arial Unicode MS', 'DejaVu Sans', sans-serif; text-anchor: middle" x="253.376875" y="267.134" transform="rotate(-0 253.376875 267.134)">时段/h</text>
    </g>
   </g>
   <g id="matplotlib.axis_2">
    <g id="ytick_1">
     <g id="line2d_13">
      <path d="M 34.496875 242.35275 
L 472.256875 242.35275 
" clip-path="url(#p0c25659ee5)" style="fill: none; stroke-dasharray: 1.665,0.72; stroke-dashoffset: 0; stroke: #b0b0b0; stroke-opacity: 0.4; stroke-width: 0.45"/>
     </g>
     <g id="line2d_14">
      <defs>
       <path id="m510dc32530" d="M 0 0 
L -3.5 0 
" style="stroke: #000000; stroke-width: 0.8"/>
      </defs>
      <g>
       <use xlink:href="#m510dc32530" x="34.496875" y="242.35275" style="stroke: #000000; stroke-width: 0.8"/>
      </g>
     </g>
     <g id="text_14">
      <text style="font-size: 8px; font-family: 'SimSun', 'Microsoft YaHei', 'SimHei', 'Arial Unicode MS', 'DejaVu Sans', sans-serif; text-anchor: end" x="27.496875" y="245.212125" transform="rotate(-0 27.496875 245.212125)">0</text>
     </g>
    </g>
    <g id="ytick_2">
     <g id="line2d_15">
      <path d="M 34.496875 207.591788 
L 472.256875 207.591788 
" clip-path="url(#p0c25659ee5)" style="fill: none; stroke-dasharray: 1.665,0.72; stroke-dashoffset: 0; stroke: #b0b0b0; stroke-opacity: 0.4; stroke-width: 0.45"/>
     </g>
     <g id="line2d_16">
      <g>
       <use xlink:href="#m510dc32530" x="34.496875" y="207.591788" style="stroke: #000000; stroke-width: 0.8"/>
      </g>
     </g>
     <g id="text_15">
      <text style="font-size: 8px; font-family: 'SimSun', 'Microsoft YaHei', 'SimHei', 'Arial Unicode MS', 'DejaVu Sans', sans-serif; text-anchor: end" x="27.496875" y="210.451163" transform="rotate(-0 27.496875 210.451163)">10</text>
     </g>
    </g>
    <g id="ytick_3">
     <g id="line2d_17">
      <path d="M 34.496875 172.830826 
L 472.256875 172.830826 
" clip-path="url(#p0c25659ee5)" style="fill: none; stroke-dasharray: 1.665,0.72; stroke-dashoffset: 0; stroke: #b0b0b0; stroke-opacity: 0.4; stroke-width: 0.45"/>
     </g>
     <g id="line2d_18">
      <g>
       <use xlink:href="#m510dc32530" x="34.496875" y="172.830826" style="stroke: #000000; stroke-width: 0.8"/>
      </g>
     </g>
     <g id="text_16">
      <text style="font-size: 8px; font-family: 'SimSun', 'Microsoft YaHei', 'SimHei', 'Arial Unicode MS', 'DejaVu Sans', sans-serif; text-anchor: end" x="27.496875" y="175.690201" transform="rotate(-0 27.496875 175.690201)">20</text>
     </g>
    </g>
    <g id="ytick_4">
     <g id="line2d_19">
      <path d="M 34.496875 138.069865 
L 472.256875 138.069865 
" clip-path="url(#p0c25659ee5)" style="fill: none; stroke-dasharray: 1.665,0.72; stroke-dashoffset: 0; stroke: #b0b0b0; stroke-opacity: 0.4; stroke-width: 0.45"/>
     </g>
     <g id="line2d_20">
      <g>
       <use xlink:href="#m510dc32530" x="34.496875" y="138.069865" style="stroke: #000000; stroke-width: 0.8"/>
      </g>
     </g>
     <g id="text_17">
      <text style="font-size: 8px; font-family: 'SimSun', 'Microsoft YaHei', 'SimHei', 'Arial Unicode MS', 'DejaVu Sans', sans-serif; text-anchor: end" x="27.496875" y="140.92924" transform="rotate(-0 27.496875 140.92924)">30</text>
     </g>
    </g>
    <g id="ytick_5">
     <g id="line2d_21">
      <path d="M 34.496875 103.308903 
L 472.256875 103.308903 
" clip-path="url(#p0c25659ee5)" style="fill: none; stroke-dasharray: 1.665,0.72; stroke-dashoffset: 0; stroke: #b0b0b0; stroke-opacity: 0.4; stroke-width: 0.45"/>
     </g>
     <g id="line2d_22">
      <g>
       <use xlink:href="#m510dc32530" x="34.496875" y="103.308903" style="stroke: #000000; stroke-width: 0.8"/>
      </g>
     </g>
     <g id="text_18">
      <text style="font-size: 8px; font-family: 'SimSun', 'Microsoft YaHei', 'SimHei', 'Arial Unicode MS', 'DejaVu Sans', sans-serif; text-anchor: end" x="27.496875" y="106.168278" transform="rotate(-0 27.496875 106.168278)">40</text>
     </g>
    </g>
    <g id="ytick_6">
     <g id="line2d_23">
      <path d="M 34.496875 68.547941 
L 472.256875 68.547941 
" clip-path="url(#p0c25659ee5)" style="fill: none; stroke-dasharray: 1.665,0.72; stroke-dashoffset: 0; stroke: #b0b0b0; stroke-opacity: 0.4; stroke-width: 0.45"/>
     </g>
     <g id="line2d_24">
      <g>
       <use xlink:href="#m510dc32530" x="34.496875" y="68.547941" style="stroke: #000000; stroke-width: 0.8"/>
      </g>
     </g>
     <g id="text_19">
      <text style="font-size: 8px; font-family: 'SimSun', 'Microsoft YaHei', 'SimHei', 'Arial Unicode MS', 'DejaVu Sans', sans-serif; text-anchor: end" x="27.496875" y="71.407316" transform="rotate(-0 27.496875 71.407316)">50</text>
     </g>
    </g>
    <g id="ytick_7">
     <g id="line2d_25">
      <path d="M 34.496875 33.786979 
L 472.256875 33.786979 
" clip-path="url(#p0c25659ee5)" style="fill: none; stroke-dasharray: 1.665,0.72; stroke-dashoffset: 0; stroke: #b0b0b0; stroke-opacity: 0.4; stroke-width: 0.45"/>
     </g>
     <g id="line2d_26">
      <g>
       <use xlink:href="#m510dc32530" x="34.496875" y="33.786979" style="stroke: #000000; stroke-width: 0.8"/>
      </g>
     </g>
     <g id="text_20">
      <text style="font-size: 8px; font-family: 'SimSun', 'Microsoft YaHei', 'SimHei', 'Arial Unicode MS', 'DejaVu Sans', sans-serif; text-anchor: end" x="27.496875" y="36.646354" transform="rotate(-0 27.496875 36.646354)">60</text>
     </g>
    </g>
    <g id="text_21">
     <text style="font-size: 9px; font-family: 'SimSun', 'Microsoft YaHei', 'SimHei', 'Arial Unicode MS', 'DejaVu Sans', sans-serif; text-anchor: middle" x="14.336719" y="131.76075" transform="rotate(-90 14.336719 131.76075)">功率/MW</text>
    </g>
   </g>
   <g id="line2d_27">
    <path d="M 43.616875 93.333202 
L 61.856875 94.271748 
L 80.096875 95.314577 
L 98.336875 94.653423 
L 116.576875 93.99227 
L 134.816875 92.428026 
L 153.056875 89.403823 
L 171.296875 118.005837 
L 189.536875 92.435674 
L 207.776875 83.495155 
L 226.016875 83.772547 
L 244.256875 84.537983 
L 262.496875 86.76338 
L 280.736875 88.744755 
L 298.976875 85.476529 
L 317.216875 107.1048 
L 335.456875 157.869708 
L 353.696875 202.210791 
L 371.936875 218.85434 
L 390.176875 220.558322 
L 408.416875 221.461412 
L 426.656875 222.260219 
L 444.896875 188.85563 
L 463.136875 92.949441 
" clip-path="url(#p0c25659ee5)" style="fill: none; stroke: #a61c2a; stroke-width: 1.6; stroke-linecap: square"/>
    <defs>
     <path id="meca89ce9d9" d="M 0 2.1 
C 0.556927 2.1 1.091118 1.878731 1.484924 1.484924 
C 1.878731 1.091118 2.1 0.556927 2.1 0 
C 2.1 -0.556927 1.878731 -1.091118 1.484924 -1.484924 
C 1.091118 -1.878731 0.556927 -2.1 0 -2.1 
C -0.556927 -2.1 -1.091118 -1.878731 -1.484924 -1.484924 
C -1.878731 -1.091118 -2.1 -0.556927 -2.1 0 
C -2.1 0.556927 -1.878731 1.091118 -1.484924 1.484924 
C -1.091118 1.878731 -0.556927 2.1 0 2.1 
z
" style="stroke: #a61c2a"/>
    </defs>
    <g clip-path="url(#p0c25659ee5)">
     <use xlink:href="#meca89ce9d9" x="43.616875" y="93.333202" style="fill: #a61c2a; stroke: #a61c2a"/>
     <use xlink:href="#meca89ce9d9" x="61.856875" y="94.271748" style="fill: #a61c2a; stroke: #a61c2a"/>
     <use xlink:href="#meca89ce9d9" x="80.096875" y="95.314577" style="fill: #a61c2a; stroke: #a61c2a"/>
     <use xlink:href="#meca89ce9d9" x="98.336875" y="94.653423" style="fill: #a61c2a; stroke: #a61c2a"/>
     <use xlink:href="#meca89ce9d9" x="116.576875" y="93.99227" style="fill: #a61c2a; stroke: #a61c2a"/>
     <use xlink:href="#meca89ce9d9" x="134.816875" y="92.428026" style="fill: #a61c2a; stroke: #a61c2a"/>
     <use xlink:href="#meca89ce9d9" x="153.056875" y="89.403823" style="fill: #a61c2a; stroke: #a61c2a"/>
     <use xlink:href="#meca89ce9d9" x="171.296875" y="118.005837" style="fill: #a61c2a; stroke: #a61c2a"/>
     <use xlink:href="#meca89ce9d9" x="189.536875" y="92.435674" style="fill: #a61c2a; stroke: #a61c2a"/>
     <use xlink:href="#meca89ce9d9" x="207.776875" y="83.495155" style="fill: #a61c2a; stroke: #a61c2a"/>
     <use xlink:href="#meca89ce9d9" x="226.016875" y="83.772547" style="fill: #a61c2a; stroke: #a61c2a"/>
     <use xlink:href="#meca89ce9d9" x="244.256875" y="84.537983" style="fill: #a61c2a; stroke: #a61c2a"/>
     <use xlink:href="#meca89ce9d9" x="262.496875" y="86.76338" style="fill: #a61c2a; stroke: #a61c2a"/>
     <use xlink:href="#meca89ce9d9" x="280.736875" y="88.744755" style="fill: #a61c2a; stroke: #a61c2a"/>
     <use xlink:href="#meca89ce9d9" x="298.976875" y="85.476529" style="fill: #a61c2a; stroke: #a61c2a"/>
     <use xlink:href="#meca89ce9d9" x="317.216875" y="107.1048" style="fill: #a61c2a; stroke: #a61c2a"/>
     <use xlink:href="#meca89ce9d9" x="335.456875" y="157.869708" style="fill: #a61c2a; stroke: #a61c2a"/>
     <use xlink:href="#meca89ce9d9" x="353.696875" y="202.210791" style="fill: #a61c2a; stroke: #a61c2a"/>
     <use xlink:href="#meca89ce9d9" x="371.936875" y="218.85434" style="fill: #a61c2a; stroke: #a61c2a"/>
     <use xlink:href="#meca89ce9d9" x="390.176875" y="220.558322" style="fill: #a61c2a; stroke: #a61c2a"/>
     <use xlink:href="#meca89ce9d9" x="408.416875" y="221.461412" style="fill: #a61c2a; stroke: #a61c2a"/>
     <use xlink:href="#meca89ce9d9" x="426.656875" y="222.260219" style="fill: #a61c2a; stroke: #a61c2a"/>
     <use xlink:href="#meca89ce9d9" x="444.896875" y="188.85563" style="fill: #a61c2a; stroke: #a61c2a"/>
     <use xlink:href="#meca89ce9d9" x="463.136875" y="92.949441" style="fill: #a61c2a; stroke: #a61c2a"/>
    </g>
   </g>
   <g id="patch_51">
    <path d="M 34.496875 242.35275 
L 34.496875 21.16875 
" style="fill: none; stroke: #000000; stroke-width: 0.8; stroke-linejoin: miter; stroke-linecap: square"/>
   </g>
   <g id="patch_52">
    <path d="M 472.256875 242.35275 
L 472.256875 21.16875 
" style="fill: none; stroke: #000000; stroke-width: 0.8; stroke-linejoin: miter; stroke-linecap: square"/>
   </g>
   <g id="patch_53">
    <path d="M 34.496875 242.35275 
L 472.256875 242.35275 
" style="fill: none; stroke: #000000; stroke-width: 0.8; stroke-linejoin: miter; stroke-linecap: square"/>
   </g>
   <g id="patch_54">
    <path d="M 34.496875 21.16875 
L 472.256875 21.16875 
" style="fill: none; stroke: #000000; stroke-width: 0.8; stroke-linejoin: miter; stroke-linecap: square"/>
   </g>
   <g id="text_22">
    <text style="font-size: 10px; font-family: 'SimSun', 'Microsoft YaHei', 'SimHei', 'Arial Unicode MS', 'DejaVu Sans', sans-serif; text-anchor: middle" x="253.376875" y="15.16875" transform="rotate(-0 253.376875 15.16875)">典型场景连续调节功率平衡（54 t/d）</text>
   </g>
   <g id="legend_1">
    <g id="patch_55">
     <path d="M 131.776875 291.70962 
L 147.776875 291.70962 
L 147.776875 286.10962 
L 131.776875 286.10962 
z
" style="fill: #9dc3e6; fill-opacity: 0.82"/>
    </g>
    <g id="text_23">
     <text style="font-size: 8px; font-family: 'SimSun', 'Microsoft YaHei', 'SimHei', 'Arial Unicode MS', 'DejaVu Sans', sans-serif; text-anchor: start" x="154.176875" y="291.70962" transform="rotate(-0 154.176875 291.70962)">风电</text>
    </g>
    <g id="patch_56">
     <path d="M 131.776875 303.08462 
L 147.776875 303.08462 
L 147.776875 297.48462 
L 131.776875 297.48462 
z
" style="fill: #f7c97f; fill-opacity: 0.82"/>
    </g>
    <g id="text_24">
     <text style="font-size: 8px; font-family: 'SimSun', 'Microsoft YaHei', 'SimHei', 'Arial Unicode MS', 'DejaVu Sans', sans-serif; text-anchor: start" x="154.176875" y="303.08462" transform="rotate(-0 154.176875 303.08462)">光伏</text>
    </g>
    <g id="line2d_28">
     <path d="M 178.976875 288.90962 
L 186.976875 288.90962 
L 194.976875 288.90962 
" style="fill: none; stroke: #a61c2a; stroke-width: 1.6; stroke-linecap: square"/>
     <g>
      <use xlink:href="#meca89ce9d9" x="186.976875" y="288.90962" style="fill: #a61c2a; stroke: #a61c2a"/>
     </g>
    </g>
    <g id="text_25">
     <text style="font-size: 8px; font-family: 'SimSun', 'Microsoft YaHei', 'SimHei', 'Arial Unicode MS', 'DejaVu Sans', sans-serif; text-anchor: start" x="201.376875" y="291.70962" transform="rotate(-0 201.376875 291.70962)">总负荷</text>
    </g>
    <g id="patch_57">
     <path d="M 234.176875 291.70962 
L 250.176875 291.70962 
L 250.176875 286.10962 
L 234.176875 286.10962 
z
" style="fill: #f4b6b2; stroke: #a61c2a; stroke-width: 0.5; stroke-linejoin: miter"/>
    </g>
    <g id="text_26">
     <text style="font-size: 8px; font-family: 'SimSun', 'Microsoft YaHei', 'SimHei', 'Arial Unicode MS', 'DejaVu Sans', sans-serif; text-anchor: start" x="256.576875" y="291.70962" transform="rotate(-0 256.576875 291.70962)">购电</text>
    </g>
    <g id="patch_58">
     <path d="M 281.376875 291.70962 
L 297.376875 291.70962 
L 297.376875 286.10962 
L 281.376875 286.10962 
z
" style="fill: #9dc3e6; stroke: #1f4e79; stroke-width: 0.5; stroke-linejoin: miter"/>
    </g>
    <g id="text_27">
     <text style="font-size: 8px; font-family: 'SimSun', 'Microsoft YaHei', 'SimHei', 'Arial Unicode MS', 'DejaVu Sans', sans-serif; text-anchor: start" x="303.776875" y="291.70962" transform="rotate(-0 303.776875 291.70962)">上网</text>
    </g>
    <g id="line2d_29">
     <path d="M 328.576875 288.90962 
L 336.576875 288.90962 
L 344.576875 288.90962 
" style="fill: none; stroke: #5b4b8a; stroke-width: 1.2; stroke-linecap: square"/>
     <defs>
      <path id="m7c348dfc97" d="M -2.1 2.1 
L 2.1 2.1 
L 2.1 -2.1 
L -2.1 -2.1 
z
" style="stroke: #5b4b8a; stroke-linejoin: miter"/>
     </defs>
     <g>
      <use xlink:href="#m7c348dfc97" x="336.576875" y="288.90962" style="fill: #5b4b8a; stroke: #5b4b8a; stroke-linejoin: miter"/>
     </g>
    </g>
    <g id="text_28">
     <text style="font-size: 8px; font-family: 'SimSun', 'Microsoft YaHei', 'SimHei', 'Arial Unicode MS', 'DejaVu Sans', sans-serif; text-anchor: start" x="350.976875" y="291.70962" transform="rotate(-0 350.976875 291.70962)">负荷率</text>
    </g>
   </g>
  </g>
  <g id="axes_2">
   <g id="matplotlib.axis_3">
    <g id="ytick_8">
     <g id="line2d_30">
      <defs>
       <path id="m5e128ca0fd" d="M 0 0 
L 3.5 0 
" style="stroke: #000000; stroke-width: 0.8"/>
      </defs>
      <g>
       <use xlink:href="#m5e128ca0fd" x="472.256875" y="242.35275" style="stroke: #000000; stroke-width: 0.8"/>
      </g>
     </g>
     <g id="text_29">
      <text style="font-size: 8px; font-family: 'SimSun', 'Microsoft YaHei', 'SimHei', 'Arial Unicode MS', 'DejaVu Sans', sans-serif; text-anchor: start" x="479.256875" y="245.212125" transform="rotate(-0 479.256875 245.212125)">0</text>
     </g>
    </g>
    <g id="ytick_9">
     <g id="line2d_31">
      <g>
       <use xlink:href="#m5e128ca0fd" x="472.256875" y="200.222464" style="stroke: #000000; stroke-width: 0.8"/>
      </g>
     </g>
     <g id="text_30">
      <text style="font-size: 8px; font-family: 'SimSun', 'Microsoft YaHei', 'SimHei', 'Arial Unicode MS', 'DejaVu Sans', sans-serif; text-anchor: start" x="479.256875" y="203.081839" transform="rotate(-0 479.256875 203.081839)">20</text>
     </g>
    </g>
    <g id="ytick_10">
     <g id="line2d_32">
      <g>
       <use xlink:href="#m5e128ca0fd" x="472.256875" y="158.092179" style="stroke: #000000; stroke-width: 0.8"/>
      </g>
     </g>
     <g id="text_31">
      <text style="font-size: 8px; font-family: 'SimSun', 'Microsoft YaHei', 'SimHei', 'Arial Unicode MS', 'DejaVu Sans', sans-serif; text-anchor: start" x="479.256875" y="160.951554" transform="rotate(-0 479.256875 160.951554)">40</text>
     </g>
    </g>
    <g id="ytick_11">
     <g id="line2d_33">
      <g>
       <use xlink:href="#m5e128ca0fd" x="472.256875" y="115.961893" style="stroke: #000000; stroke-width: 0.8"/>
      </g>
     </g>
     <g id="text_32">
      <text style="font-size: 8px; font-family: 'SimSun', 'Microsoft YaHei', 'SimHei', 'Arial Unicode MS', 'DejaVu Sans', sans-serif; text-anchor: start" x="479.256875" y="118.821268" transform="rotate(-0 479.256875 118.821268)">60</text>
     </g>
    </g>
    <g id="ytick_12">
     <g id="line2d_34">
      <g>
       <use xlink:href="#m5e128ca0fd" x="472.256875" y="73.831607" style="stroke: #000000; stroke-width: 0.8"/>
      </g>
     </g>
     <g id="text_33">
      <text style="font-size: 8px; font-family: 'SimSun', 'Microsoft YaHei', 'SimHei', 'Arial Unicode MS', 'DejaVu Sans', sans-serif; text-anchor: start" x="479.256875" y="76.690982" transform="rotate(-0 479.256875 76.690982)">80</text>
     </g>
    </g>
    <g id="ytick_13">
     <g id="line2d_35">
      <g>
       <use xlink:href="#m5e128ca0fd" x="472.256875" y="31.701321" style="stroke: #000000; stroke-width: 0.8"/>
      </g>
     </g>
     <g id="text_34">
      <text style="font-size: 8px; font-family: 'SimSun', 'Microsoft YaHei', 'SimHei', 'Arial Unicode MS', 'DejaVu Sans', sans-serif; text-anchor: start" x="479.256875" y="34.560696" transform="rotate(-0 479.256875 34.560696)">100</text>
     </g>
    </g>
    <g id="text_35">
     <text style="font-size: 9px; font-family: 'SimSun', 'Microsoft YaHei', 'SimHei', 'Arial Unicode MS', 'DejaVu Sans', sans-serif; text-anchor: middle" x="502.42875" y="131.76075" transform="rotate(-90 502.42875 131.76075)">制氨负荷率/%</text>
    </g>
   </g>
   <g id="line2d_36">
    <path d="M 43.616875 31.701321 
L 61.856875 31.701321 
L 80.096875 31.701321 
L 98.336875 31.701321 
L 116.576875 31.701321 
L 134.816875 31.701321 
L 153.056875 31.701321 
L 171.296875 77.883221 
L 189.536875 43.791191 
L 207.776875 31.701321 
L 226.016875 31.701321 
L 244.256875 31.701321 
L 262.496875 31.701321 
L 280.736875 31.701321 
L 298.976875 31.701321 
L 317.216875 64.249251 
L 335.456875 138.02192 
L 353.696875 199.673248 
L 371.936875 221.287607 
L 390.176875 221.287607 
L 408.416875 221.287607 
L 426.656875 221.287607 
L 444.896875 172.152527 
L 463.136875 31.701321 
" clip-path="url(#p0c25659ee5)" style="fill: none; stroke: #5b4b8a; stroke-width: 1.2; stroke-linecap: square"/>
    <g clip-path="url(#p0c25659ee5)">
     <use xlink:href="#m7c348dfc97" x="43.616875" y="31.701321" style="fill: #5b4b8a; stroke: #5b4b8a; stroke-linejoin: miter"/>
     <use xlink:href="#m7c348dfc97" x="61.856875" y="31.701321" style="fill: #5b4b8a; stroke: #5b4b8a; stroke-linejoin: miter"/>
     <use xlink:href="#m7c348dfc97" x="80.096875" y="31.701321" style="fill: #5b4b8a; stroke: #5b4b8a; stroke-linejoin: miter"/>
     <use xlink:href="#m7c348dfc97" x="98.336875" y="31.701321" style="fill: #5b4b8a; stroke: #5b4b8a; stroke-linejoin: miter"/>
     <use xlink:href="#m7c348dfc97" x="116.576875" y="31.701321" style="fill: #5b4b8a; stroke: #5b4b8a; stroke-linejoin: miter"/>
     <use xlink:href="#m7c348dfc97" x="134.816875" y="31.701321" style="fill: #5b4b8a; stroke: #5b4b8a; stroke-linejoin: miter"/>
     <use xlink:href="#m7c348dfc97" x="153.056875" y="31.701321" style="fill: #5b4b8a; stroke: #5b4b8a; stroke-linejoin: miter"/>
     <use xlink:href="#m7c348dfc97" x="171.296875" y="77.883221" style="fill: #5b4b8a; stroke: #5b4b8a; stroke-linejoin: miter"/>
     <use xlink:href="#m7c348dfc97" x="189.536875" y="43.791191" style="fill: #5b4b8a; stroke: #5b4b8a; stroke-linejoin: miter"/>
     <use xlink:href="#m7c348dfc97" x="207.776875" y="31.701321" style="fill: #5b4b8a; stroke: #5b4b8a; stroke-linejoin: miter"/>
     <use xlink:href="#m7c348dfc97" x="226.016875" y="31.701321" style="fill: #5b4b8a; stroke: #5b4b8a; stroke-linejoin: miter"/>
     <use xlink:href="#m7c348dfc97" x="244.256875" y="31.701321" style="fill: #5b4b8a; stroke: #5b4b8a; stroke-linejoin: miter"/>
     <use xlink:href="#m7c348dfc97" x="262.496875" y="31.701321" style="fill: #5b4b8a; stroke: #5b4b8a; stroke-linejoin: miter"/>
     <use xlink:href="#m7c348dfc97" x="280.736875" y="31.701321" style="fill: #5b4b8a; stroke: #5b4b8a; stroke-linejoin: miter"/>
     <use xlink:href="#m7c348dfc97" x="298.976875" y="31.701321" style="fill: #5b4b8a; stroke: #5b4b8a; stroke-linejoin: miter"/>
     <use xlink:href="#m7c348dfc97" x="317.216875" y="64.249251" style="fill: #5b4b8a; stroke: #5b4b8a; stroke-linejoin: miter"/>
     <use xlink:href="#m7c348dfc97" x="335.456875" y="138.02192" style="fill: #5b4b8a; stroke: #5b4b8a; stroke-linejoin: miter"/>
     <use xlink:href="#m7c348dfc97" x="353.696875" y="199.673248" style="fill: #5b4b8a; stroke: #5b4b8a; stroke-linejoin: miter"/>
     <use xlink:href="#m7c348dfc97" x="371.936875" y="221.287607" style="fill: #5b4b8a; stroke: #5b4b8a; stroke-linejoin: miter"/>
     <use xlink:href="#m7c348dfc97" x="390.176875" y="221.287607" style="fill: #5b4b8a; stroke: #5b4b8a; stroke-linejoin: miter"/>
     <use xlink:href="#m7c348dfc97" x="408.416875" y="221.287607" style="fill: #5b4b8a; stroke: #5b4b8a; stroke-linejoin: miter"/>
     <use xlink:href="#m7c348dfc97" x="426.656875" y="221.287607" style="fill: #5b4b8a; stroke: #5b4b8a; stroke-linejoin: miter"/>
     <use xlink:href="#m7c348dfc97" x="444.896875" y="172.152527" style="fill: #5b4b8a; stroke: #5b4b8a; stroke-linejoin: miter"/>
     <use xlink:href="#m7c348dfc97" x="463.136875" y="31.701321" style="fill: #5b4b8a; stroke: #5b4b8a; stroke-linejoin: miter"/>
    </g>
   </g>
   <g id="patch_59">
    <path d="M 34.496875 242.35275 
L 34.496875 21.16875 
" style="fill: none; stroke: #000000; stroke-width: 0.8; stroke-linejoin: miter; stroke-linecap: square"/>
   </g>
   <g id="patch_60">
    <path d="M 472.256875 242.35275 
L 472.256875 21.16875 
" style="fill: none; stroke: #000000; stroke-width: 0.8; stroke-linejoin: miter; stroke-linecap: square"/>
   </g>
   <g id="patch_61">
    <path d="M 34.496875 242.35275 
L 472.256875 242.35275 
" style="fill: none; stroke: #000000; stroke-width: 0.8; stroke-linejoin: miter; stroke-linecap: square"/>
   </g>
   <g id="patch_62">
    <path d="M 34.496875 21.16875 
L 472.256875 21.16875 
" style="fill: none; stroke: #000000; stroke-width: 0.8; stroke-linejoin: miter; stroke-linecap: square"/>
   </g>
  </g>
 </g>
 <defs>
  <clipPath id="p0c25659ee5">
   <rect x="34.496875" y="21.16875" width="437.76" height="221.184"/>
  </clipPath>
 </defs>
</svg>
