<?xml version="1.0" encoding="utf-8" standalone="no"?>
<!DOCTYPE svg PUBLIC "-//W3C//DTD SVG 1.1//EN"
  "http://www.w3.org/Graphics/SVG/1.1/DTD/svg11.dtd">
<svg xmlns:xlink="http://www.w3.org/1999/xlink" width="513.303187pt" height="290.452312pt" viewBox="0 0 513.303187 290.452312" xmlns="http://www.w3.org/2000/svg" version="1.1">
 <metadata>
  <rdf:RDF xmlns:dc="http://purl.org/dc/elements/1.1/" xmlns:cc="http://creativecommons.org/ns#" xmlns:rdf="http://www.w3.org/1999/02/22-rdf-syntax-ns#">
   <cc:Work>
    <dc:type rdf:resource="http://purl.org/dc/dcmitype/StillImage"/>
    <dc:date>2026-05-23T16:45:22.920287</dc:date>
    <dc:format>image/svg+xml</dc:format>
    <dc:creator>
     <cc:Agent>
      <dc:title>Matplotlib v3.10.8, https://matplotlib.org/</dc:title>
     </cc:Agent>
    </dc:creator>
   </cc:Work>
  </rdf:RDF>
 </metadata>
 <defs>
  <style type="text/css">*{stroke-linejoin: round; stroke-linecap: butt}</style>
 </defs>
 <g id="figure_1">
  <g id="patch_1">
   <path d="M 0 290.452312 
L 513.303187 290.452312 
L 513.303187 0 
L 0 0 
z
" style="fill: #ffffff"/>
  </g>
  <g id="axes_1">
   <g id="patch_2">
    <path d="M 42.567188 228.567812 
L 506.103187 228.567812 
L 506.103187 21.207812 
L 42.567188 21.207812 
z
" style="fill: #ffffff"/>
   </g>
   <g id="matplotlib.axis_1">
    <g id="xtick_1">
     <g id="line2d_1">
      <path d="M 42.567188 228.567812 
L 42.567188 21.207812 
" clip-path="url(#p6bbe498611)" style="fill: none; stroke-dasharray: 1.665,0.72; stroke-dashoffset: 0; stroke: #b0b0b0; stroke-opacity: 0.4; stroke-width: 0.45"/>
     </g>
     <g id="line2d_2">
      <defs>
       <path id="ma9e12db5ca" d="M 0 0 
L 0 3.5 
" style="stroke: #000000; stroke-width: 0.8"/>
      </defs>
      <g>
       <use xlink:href="#ma9e12db5ca" x="42.567188" y="228.567812" style="stroke: #000000; stroke-width: 0.8"/>
      </g>
     </g>
     <g id="text_1">
      <text style="font-size: 8px; font-family: 'SimSun', 'Microsoft YaHei', 'SimHei', 'Arial Unicode MS', 'DejaVu Sans', sans-serif; text-anchor: middle" x="42.567188" y="241.286562" transform="rotate(-0 42.567188 241.286562)">0</text>
     </g>
    </g>
    <g id="xtick_2">
     <g id="line2d_3">
      <path d="M 106.947188 228.567812 
L 106.947188 21.207812 
" clip-path="url(#p6bbe498611)" style="fill: none; stroke-dasharray: 1.665,0.72; stroke-dashoffset: 0; stroke: #b0b0b0; stroke-opacity: 0.4; stroke-width: 0.45"/>
     </g>
     <g id="line2d_4">
      <g>
       <use xlink:href="#ma9e12db5ca" x="106.947188" y="228.567812" style="stroke: #000000; stroke-width: 0.8"/>
      </g>
     </g>
     <g id="text_2">
      <text style="font-size: 8px; font-family: 'SimSun', 'Microsoft YaHei', 'SimHei', 'Arial Unicode MS', 'DejaVu Sans', sans-serif; text-anchor: middle" x="106.947188" y="241.286562" transform="rotate(-0 106.947188 241.286562)">50</text>
     </g>
    </g>
    <g id="xtick_3">
     <g id="line2d_5">
      <path d="M 171.327188 228.567812 
L 171.327188 21.207812 
" clip-path="url(#p6bbe498611)" style="fill: none; stroke-dasharray: 1.665,0.72; stroke-dashoffset: 0; stroke: #b0b0b0; stroke-opacity: 0.4; stroke-width: 0.45"/>
     </g>
     <g id="line2d_6">
      <g>
       <use xlink:href="#ma9e12db5ca" x="171.327188" y="228.567812" style="stroke: #000000; stroke-width: 0.8"/>
      </g>
     </g>
     <g id="text_3">
      <text style="font-size: 8px; font-family: 'SimSun', 'Microsoft YaHei', 'SimHei', 'Arial Unicode MS', 'DejaVu Sans', sans-serif; text-anchor: middle" x="171.327188" y="241.286562" transform="rotate(-0 171.327188 241.286562)">100</text>
     </g>
    </g>
    <g id="xtick_4">
     <g id="line2d_7">
      <path d="M 235.707188 228.567812 
L 235.707188 21.207812 
" clip-path="url(#p6bbe498611)" style="fill: none; stroke-dasharray: 1.665,0.72; stroke-dashoffset: 0; stroke: #b0b0b0; stroke-opacity: 0.4; stroke-width: 0.45"/>
     </g>
     <g id="line2d_8">
      <g>
       <use xlink:href="#ma9e12db5ca" x="235.707188" y="228.567812" style="stroke: #000000; stroke-width: 0.8"/>
      </g>
     </g>
     <g id="text_4">
      <text style="font-size: 8px; font-family: 'SimSun', 'Microsoft YaHei', 'SimHei', 'Arial Unicode MS', 'DejaVu Sans', sans-serif; text-anchor: middle" x="235.707188" y="241.286562" transform="rotate(-0 235.707188 241.286562)">150</text>
     </g>
    </g>
    <g id="xtick_5">
     <g id="line2d_9">
      <path d="M 300.087188 228.567812 
L 300.087188 21.207812 
" clip-path="url(#p6bbe498611)" style="fill: none; stroke-dasharray: 1.665,0.72; stroke-dashoffset: 0; stroke: #b0b0b0; stroke-opacity: 0.4; stroke-width: 0.45"/>
     </g>
     <g id="line2d_10">
      <g>
       <use xlink:href="#ma9e12db5ca" x="300.087188" y="228.567812" style="stroke: #000000; stroke-width: 0.8"/>
      </g>
     </g>
     <g id="text_5">
      <text style="font-size: 8px; font-family: 'SimSun', 'Microsoft YaHei', 'SimHei', 'Arial Unicode MS', 'DejaVu Sans', sans-serif; text-anchor: middle" x="300.087188" y="241.286562" transform="rotate(-0 300.087188 241.286562)">200</text>
     </g>
    </g>
    <g id="xtick_6">
     <g id="line2d_11">
      <path d="M 364.467188 228.567812 
L 364.467188 21.207812 
" clip-path="url(#p6bbe498611)" style="fill: none; stroke-dasharray: 1.665,0.72; stroke-dashoffset: 0; stroke: #b0b0b0; stroke-opacity: 0.4; stroke-width: 0.45"/>
     </g>
     <g id="line2d_12">
      <g>
       <use xlink:href="#ma9e12db5ca" x="364.467188" y="228.567812" style="stroke: #000000; stroke-width: 0.8"/>
      </g>
     </g>
     <g id="text_6">
      <text style="font-size: 8px; font-family: 'SimSun', 'Microsoft YaHei', 'SimHei', 'Arial Unicode MS', 'DejaVu Sans', sans-serif; text-anchor: middle" x="364.467188" y="241.286562" transform="rotate(-0 364.467188 241.286562)">250</text>
     </g>
    </g>
    <g id="xtick_7">
     <g id="line2d_13">
      <path d="M 428.847188 228.567812 
L 428.847188 21.207812 
" clip-path="url(#p6bbe498611)" style="fill: none; stroke-dasharray: 1.665,0.72; stroke-dashoffset: 0; stroke: #b0b0b0; stroke-opacity: 0.4; stroke-width: 0.45"/>
     </g>
     <g id="line2d_14">
      <g>
       <use xlink:href="#ma9e12db5ca" x="428.847188" y="228.567812" style="stroke: #000000; stroke-width: 0.8"/>
      </g>
     </g>
     <g id="text_7">
      <text style="font-size: 8px; font-family: 'SimSun', 'Microsoft YaHei', 'SimHei', 'Arial Unicode MS', 'DejaVu Sans', sans-serif; text-anchor: middle" x="428.847188" y="241.286562" transform="rotate(-0 428.847188 241.286562)">300</text>
     </g>
    </g>
    <g id="xtick_8">
     <g id="line2d_15">
      <path d="M 493.227188 228.567812 
L 493.227188 21.207812 
" clip-path="url(#p6bbe498611)" style="fill: none; stroke-dasharray: 1.665,0.72; stroke-dashoffset: 0; stroke: #b0b0b0; stroke-opacity: 0.4; stroke-width: 0.45"/>
     </g>
     <g id="line2d_16">
      <g>
       <use xlink:href="#ma9e12db5ca" x="493.227188" y="228.567812" style="stroke: #000000; stroke-width: 0.8"/>
      </g>
     </g>
     <g id="text_8">
      <text style="font-size: 8px; font-family: 'SimSun', 'Microsoft YaHei', 'SimHei', 'Arial Unicode MS', 'DejaVu Sans', sans-serif; text-anchor: middle" x="493.227188" y="241.286562" transform="rotate(-0 493.227188 241.286562)">350</text>
     </g>
    </g>
    <g id="text_9">
     <text style="font-size: 9px; font-family: 'SimSun', 'Microsoft YaHei', 'SimHei', 'Arial Unicode MS', 'DejaVu Sans', sans-serif; text-anchor: middle" x="274.335188" y="253.454531" transform="rotate(-0 274.335188 253.454531)">累计代表天数/d</text>
    </g>
   </g>
   <g id="matplotlib.axis_2">
    <g id="ytick_1">
     <g id="line2d_17">
      <path d="M 42.567188 228.06737 
L 506.103187 228.06737 
" clip-path="url(#p6bbe498611)" style="fill: none; stroke-dasharray: 1.665,0.72; stroke-dashoffset: 0; stroke: #b0b0b0; stroke-opacity: 0.4; stroke-width: 0.45"/>
     </g>
     <g id="line2d_18">
      <defs>
       <path id="m3ac275f2f1" d="M 0 0 
L -3.5 0 
" style="stroke: #000000; stroke-width: 0.8"/>
      </defs>
      <g>
       <use xlink:href="#m3ac275f2f1" x="42.567188" y="228.06737" style="stroke: #000000; stroke-width: 0.8"/>
      </g>
     </g>
     <g id="text_10">
      <text style="font-size: 8px; font-family: 'SimSun', 'Microsoft YaHei', 'SimHei', 'Arial Unicode MS', 'DejaVu Sans', sans-serif; text-anchor: end" x="35.567188" y="230.926745" transform="rotate(-0 35.567188 230.926745)">1000</text>
     </g>
    </g>
    <g id="ytick_2">
     <g id="line2d_19">
      <path d="M 42.567188 204.203201 
L 506.103187 204.203201 
" clip-path="url(#p6bbe498611)" style="fill: none; stroke-dasharray: 1.665,0.72; stroke-dashoffset: 0; stroke: #b0b0b0; stroke-opacity: 0.4; stroke-width: 0.45"/>
     </g>
     <g id="line2d_20">
      <g>
       <use xlink:href="#m3ac275f2f1" x="42.567188" y="204.203201" style="stroke: #000000; stroke-width: 0.8"/>
      </g>
     </g>
     <g id="text_11">
      <text style="font-size: 8px; font-family: 'SimSun', 'Microsoft YaHei', 'SimHei', 'Arial Unicode MS', 'DejaVu Sans', sans-serif; text-anchor: end" x="35.567188" y="207.062576" transform="rotate(-0 35.567188 207.062576)">2000</text>
     </g>
    </g>
    <g id="ytick_3">
     <g id="line2d_21">
      <path d="M 42.567188 180.339032 
L 506.103187 180.339032 
" clip-path="url(#p6bbe498611)" style="fill: none; stroke-dasharray: 1.665,0.72; stroke-dashoffset: 0; stroke: #b0b0b0; stroke-opacity: 0.4; stroke-width: 0.45"/>
     </g>
     <g id="line2d_22">
      <g>
       <use xlink:href="#m3ac275f2f1" x="42.567188" y="180.339032" style="stroke: #000000; stroke-width: 0.8"/>
      </g>
     </g>
     <g id="text_12">
      <text style="font-size: 8px; font-family: 'SimSun', 'Microsoft YaHei', 'SimHei', 'Arial Unicode MS', 'DejaVu Sans', sans-serif; text-anchor: end" x="35.567188" y="183.198407" transform="rotate(-0 35.567188 183.198407)">3000</text>
     </g>
    </g>
    <g id="ytick_4">
     <g id="line2d_23">
      <path d="M 42.567188 156.474863 
L 506.103187 156.474863 
" clip-path="url(#p6bbe498611)" style="fill: none; stroke-dasharray: 1.665,0.72; stroke-dashoffset: 0; stroke: #b0b0b0; stroke-opacity: 0.4; stroke-width: 0.45"/>
     </g>
     <g id="line2d_24">
      <g>
       <use xlink:href="#m3ac275f2f1" x="42.567188" y="156.474863" style="stroke: #000000; stroke-width: 0.8"/>
      </g>
     </g>
     <g id="text_13">
      <text style="font-size: 8px; font-family: 'SimSun', 'Microsoft YaHei', 'SimHei', 'Arial Unicode MS', 'DejaVu Sans', sans-serif; text-anchor: end" x="35.567188" y="159.334238" transform="rotate(-0 35.567188 159.334238)">4000</text>
     </g>
    </g>
    <g id="ytick_5">
     <g id="line2d_25">
      <path d="M 42.567188 132.610693 
L 506.103187 132.610693 
" clip-path="url(#p6bbe498611)" style="fill: none; stroke-dasharray: 1.665,0.72; stroke-dashoffset: 0; stroke: #b0b0b0; stroke-opacity: 0.4; stroke-width: 0.45"/>
     </g>
     <g id="line2d_26">
      <g>
       <use xlink:href="#m3ac275f2f1" x="42.567188" y="132.610693" style="stroke: #000000; stroke-width: 0.8"/>
      </g>
     </g>
     <g id="text_14">
      <text style="font-size: 8px; font-family: 'SimSun', 'Microsoft YaHei', 'SimHei', 'Arial Unicode MS', 'DejaVu Sans', sans-serif; text-anchor: end" x="35.567188" y="135.470068" transform="rotate(-0 35.567188 135.470068)">5000</text>
     </g>
    </g>
    <g id="ytick_6">
     <g id="line2d_27">
      <path d="M 42.567188 108.746524 
L 506.103187 108.746524 
" clip-path="url(#p6bbe498611)" style="fill: none; stroke-dasharray: 1.665,0.72; stroke-dashoffset: 0; stroke: #b0b0b0; stroke-opacity: 0.4; stroke-width: 0.45"/>
     </g>
     <g id="line2d_28">
      <g>
       <use xlink:href="#m3ac275f2f1" x="42.567188" y="108.746524" style="stroke: #000000; stroke-width: 0.8"/>
      </g>
     </g>
     <g id="text_15">
      <text style="font-size: 8px; font-family: 'SimSun', 'Microsoft YaHei', 'SimHei', 'Arial Unicode MS', 'DejaVu Sans', sans-serif; text-anchor: end" x="35.567188" y="111.605899" transform="rotate(-0 35.567188 111.605899)">6000</text>
     </g>
    </g>
    <g id="ytick_7">
     <g id="line2d_29">
      <path d="M 42.567188 84.882355 
L 506.103187 84.882355 
" clip-path="url(#p6bbe498611)" style="fill: none; stroke-dasharray: 1.665,0.72; stroke-dashoffset: 0; stroke: #b0b0b0; stroke-opacity: 0.4; stroke-width: 0.45"/>
     </g>
     <g id="line2d_30">
      <g>
       <use xlink:href="#m3ac275f2f1" x="42.567188" y="84.882355" style="stroke: #000000; stroke-width: 0.8"/>
      </g>
     </g>
     <g id="text_16">
      <text style="font-size: 8px; font-family: 'SimSun', 'Microsoft YaHei', 'SimHei', 'Arial Unicode MS', 'DejaVu Sans', sans-serif; text-anchor: end" x="35.567188" y="87.74173" transform="rotate(-0 35.567188 87.74173)">7000</text>
     </g>
    </g>
    <g id="ytick_8">
     <g id="line2d_31">
      <path d="M 42.567188 61.018185 
L 506.103187 61.018185 
" clip-path="url(#p6bbe498611)" style="fill: none; stroke-dasharray: 1.665,0.72; stroke-dashoffset: 0; stroke: #b0b0b0; stroke-opacity: 0.4; stroke-width: 0.45"/>
     </g>
     <g id="line2d_32">
      <g>
       <use xlink:href="#m3ac275f2f1" x="42.567188" y="61.018185" style="stroke: #000000; stroke-width: 0.8"/>
      </g>
     </g>
     <g id="text_17">
      <text style="font-size: 8px; font-family: 'SimSun', 'Microsoft YaHei', 'SimHei', 'Arial Unicode MS', 'DejaVu Sans', sans-serif; text-anchor: end" x="35.567188" y="63.87756" transform="rotate(-0 35.567188 63.87756)">8000</text>
     </g>
    </g>
    <g id="ytick_9">
     <g id="line2d_33">
      <path d="M 42.567188 37.154016 
L 506.103187 37.154016 
" clip-path="url(#p6bbe498611)" style="fill: none; stroke-dasharray: 1.665,0.72; stroke-dashoffset: 0; stroke: #b0b0b0; stroke-opacity: 0.4; stroke-width: 0.45"/>
     </g>
     <g id="line2d_34">
      <g>
       <use xlink:href="#m3ac275f2f1" x="42.567188" y="37.154016" style="stroke: #000000; stroke-width: 0.8"/>
      </g>
     </g>
     <g id="text_18">
      <text style="font-size: 8px; font-family: 'SimSun', 'Microsoft YaHei', 'SimHei', 'Arial Unicode MS', 'DejaVu Sans', sans-serif; text-anchor: end" x="35.567188" y="40.013391" transform="rotate(-0 35.567188 40.013391)">9000</text>
     </g>
    </g>
    <g id="text_19">
     <text style="font-size: 9px; font-family: 'SimSun', 'Microsoft YaHei', 'SimHei', 'Arial Unicode MS', 'DejaVu Sans', sans-serif; text-anchor: middle" x="14.407031" y="124.887812" transform="rotate(-90 14.407031 124.887812)">吨氨成本/(元/t)</text>
    </g>
   </g>
   <g id="line2d_35">
    <path d="M 61.881188 135.228584 
L 81.195188 135.228584 
L 81.195188 129.447951 
L 100.509187 129.447951 
L 100.509187 126.96272 
L 119.823188 126.96272 
L 119.823188 123.436803 
L 139.137188 123.436803 
L 139.137188 121.455618 
L 158.451188 121.455618 
L 158.451188 113.75149 
L 177.765188 113.75149 
L 177.765188 105.463544 
L 197.079187 105.463544 
L 197.079187 99.0791 
L 216.393188 99.0791 
L 216.393188 93.985129 
L 235.707188 93.985129 
L 235.707188 90.68115 
L 255.021187 90.68115 
L 255.021187 85.096855 
L 274.335188 85.096855 
L 274.335188 77.24349 
L 293.649188 77.24349 
L 293.649188 73.188127 
L 312.963188 73.188127 
L 312.963188 66.944561 
L 332.277188 66.944561 
L 332.277188 60.988949 
L 351.591187 60.988949 
L 351.591187 60.098386 
L 370.905188 60.098386 
L 370.905188 58.208905 
L 390.219188 58.208905 
L 390.219188 53.85482 
L 409.533187 53.85482 
L 409.533187 51.576373 
L 428.847188 51.576373 
L 428.847188 47.899208 
L 448.161188 47.899208 
L 448.161188 45.119164 
L 467.475188 45.119164 
L 467.475188 43.723008 
L 486.789188 43.723008 
L 486.789188 38.486632 
L 506.103187 38.486632 
L 506.103187 30.633267 
" clip-path="url(#p6bbe498611)" style="fill: none; stroke: #1f77b4; stroke-width: 1.4; stroke-linecap: square"/>
   </g>
   <g id="line2d_36">
    <path d="M 61.881188 159.240889 
L 81.195188 159.240889 
L 81.195188 152.975708 
L 100.509187 152.975708 
L 100.509187 150.158786 
L 119.823188 150.158786 
L 119.823188 146.861038 
L 139.137188 146.861038 
L 139.137188 143.966298 
L 158.451188 143.966298 
L 158.451188 135.805109 
L 177.765188 135.805109 
L 177.765188 127.17169 
L 197.079187 127.17169 
L 197.079187 119.587551 
L 216.393188 119.587551 
L 216.393188 114.497136 
L 235.707188 114.497136 
L 235.707188 111.172034 
L 255.021187 111.172034 
L 255.021187 104.789982 
L 274.335188 104.789982 
L 274.335188 95.814708 
L 293.649188 95.814708 
L 293.649188 91.180008 
L 312.963188 91.180008 
L 312.963188 84.044504 
L 332.277188 84.044504 
L 332.277188 77.238089 
L 351.591187 77.238089 
L 351.591187 76.220304 
L 370.905188 76.220304 
L 370.905188 74.060896 
L 390.219188 74.060896 
L 390.219188 69.0848 
L 409.533187 69.0848 
L 409.533187 66.48086 
L 428.847188 66.48086 
L 428.847188 62.278386 
L 448.161188 62.278386 
L 448.161188 59.101193 
L 467.475188 59.101193 
L 467.475188 57.505586 
L 486.789188 57.505586 
L 486.789188 51.521156 
L 506.103187 51.521156 
L 506.103187 42.545882 
" clip-path="url(#p6bbe498611)" style="fill: none; stroke: #ff7f0e; stroke-width: 1.4; stroke-linecap: square"/>
   </g>
   <g id="line2d_37">
    <path d="M 61.881188 175.222016 
L 81.195188 175.222016 
L 81.195188 169.86101 
L 100.509187 169.86101 
L 100.509187 166.141322 
L 119.823188 166.141322 
L 119.823188 163.555425 
L 139.137188 163.555425 
L 139.137188 159.898322 
L 158.451188 159.898322 
L 158.451188 152.628094 
L 177.765188 152.628094 
L 177.765188 145.97392 
L 197.079187 145.97392 
L 197.079187 137.582383 
L 216.393188 137.582383 
L 216.393188 131.643566 
L 235.707188 131.643566 
L 235.707188 128.326837 
L 255.021187 128.326837 
L 255.021187 121.192172 
L 274.335188 121.192172 
L 274.335188 111.714345 
L 293.649188 111.714345 
L 293.649188 111.547638 
L 312.963188 111.547638 
L 312.963188 102.877359 
L 332.277188 102.877359 
L 332.277188 97.716194 
L 351.591187 97.716194 
L 351.591187 96.317429 
L 370.905188 96.317429 
L 370.905188 93.378379 
L 390.219188 93.378379 
L 390.219188 88.954147 
L 409.533187 88.954147 
L 409.533187 85.488094 
L 428.847188 85.488094 
L 428.847188 81.450623 
L 448.161188 81.450623 
L 448.161188 77.743898 
L 467.475188 77.743898 
L 467.475188 75.84356 
L 486.789188 75.84356 
L 486.789188 68.900522 
L 506.103187 68.900522 
L 506.103187 58.429369 
" clip-path="url(#p6bbe498611)" style="fill: none; stroke: #2ca02c; stroke-width: 1.4; stroke-linecap: square"/>
   </g>
   <g id="line2d_38">
    <path d="M 61.881188 192.790153 
L 81.195188 192.790153 
L 81.195188 186.356945 
L 100.509187 186.356945 
L 100.509187 181.89332 
L 119.823188 181.89332 
L 119.823188 178.790244 
L 139.137188 178.790244 
L 139.137188 174.40172 
L 158.451188 174.40172 
L 158.451188 165.677446 
L 177.765188 165.677446 
L 177.765188 157.692438 
L 197.079187 157.692438 
L 197.079187 151.259231 
L 216.393188 151.259231 
L 216.393188 146.795605 
L 235.707188 146.795605 
L 235.707188 143.692529 
L 255.021187 143.692529 
L 255.021187 139.304005 
L 274.335188 139.304005 
L 274.335188 131.733502 
L 293.649188 131.733502 
L 293.649188 130.579731 
L 312.963188 130.579731 
L 312.963188 121.129119 
L 332.277188 121.129119 
L 332.277188 115.025647 
L 351.591187 115.025647 
L 351.591187 113.257203 
L 370.905188 113.257203 
L 370.905188 109.730343 
L 390.219188 109.730343 
L 390.219188 104.421265 
L 409.533187 104.421265 
L 409.533187 100.262001 
L 428.847188 100.262001 
L 428.847188 96.549349 
L 448.161188 96.549349 
L 448.161188 92.988156 
L 467.475188 92.988156 
L 467.475188 88.68856 
L 486.789188 88.68856 
L 486.789188 83.250096 
L 506.103187 83.250096 
L 506.103187 71.368489 
" clip-path="url(#p6bbe498611)" style="fill: none; stroke: #d62728; stroke-width: 1.4; stroke-linecap: square"/>
   </g>
   <g id="line2d_39">
    <path d="M 61.881188 219.142358 
L 81.195188 219.142358 
L 81.195188 211.100849 
L 100.509187 211.100849 
L 100.509187 205.521317 
L 119.823188 205.521317 
L 119.823188 201.642472 
L 139.137188 201.642472 
L 139.137188 196.156817 
L 158.451188 196.156817 
L 158.451188 185.251475 
L 177.765188 185.251475 
L 177.765188 175.270215 
L 197.079187 175.270215 
L 197.079187 167.228706 
L 216.393188 167.228706 
L 216.393188 161.649174 
L 235.707188 161.649174 
L 235.707188 157.770329 
L 255.021187 157.770329 
L 255.021187 152.284674 
L 274.335188 152.284674 
L 274.335188 146.931842 
L 293.649188 146.931842 
L 293.649188 141.379331 
L 312.963188 141.379331 
L 312.963188 138.890333 
L 332.277188 138.890333 
L 332.277188 135.880971 
L 351.591187 135.880971 
L 351.591187 133.310802 
L 370.905188 133.310802 
L 370.905188 129.431956 
L 390.219188 129.431956 
L 390.219188 127.621941 
L 409.533187 127.621941 
L 409.533187 122.422861 
L 428.847188 122.422861 
L 428.847188 117.782047 
L 448.161188 117.782047 
L 448.161188 113.330555 
L 467.475188 113.330555 
L 467.475188 107.95606 
L 486.789188 107.95606 
L 486.789188 101.157981 
L 506.103187 101.157981 
L 506.103187 86.305972 
" clip-path="url(#p6bbe498611)" style="fill: none; stroke: #9467bd; stroke-width: 1.4; stroke-linecap: square"/>
   </g>
   <g id="patch_3">
    <path d="M 42.567188 228.567812 
L 42.567188 21.207812 
" style="fill: none; stroke: #000000; stroke-width: 0.8; stroke-linejoin: miter; stroke-linecap: square"/>
   </g>
   <g id="patch_4">
    <path d="M 506.103187 228.567812 
L 506.103187 21.207812 
" style="fill: none; stroke: #000000; stroke-width: 0.8; stroke-linejoin: miter; stroke-linecap: square"/>
   </g>
   <g id="patch_5">
    <path d="M 42.567188 228.567812 
L 506.103187 228.567812 
" style="fill: none; stroke: #000000; stroke-width: 0.8; stroke-linejoin: miter; stroke-linecap: square"/>
   </g>
   <g id="patch_6">
    <path d="M 42.567188 21.207812 
L 506.103187 21.207812 
" style="fill: none; stroke: #000000; stroke-width: 0.8; stroke-linejoin: miter; stroke-linecap: square"/>
   </g>
   <g id="text_20">
    <text style="font-size: 10px; font-family: 'SimSun', 'Microsoft YaHei', 'SimHei', 'Arial Unicode MS', 'DejaVu Sans', sans-serif; text-anchor: middle" x="274.335188" y="15.207812" transform="rotate(-0 274.335188 15.207812)">连续调节下全年代表场景吨氨成本分布曲线</text>
   </g>
   <g id="legend_1">
    <g id="line2d_40">
     <path d="M 131.135188 276.221062 
L 140.735188 276.221062 
L 140.735188 276.221062 
L 150.335188 276.221062 
L 150.335188 276.221062 
" style="fill: none; stroke: #1f77b4; stroke-width: 1.4; stroke-linecap: square"/>
    </g>
    <g id="text_21">
     <text style="font-size: 8px; font-family: 'SimSun', 'Microsoft YaHei', 'SimHei', 'Arial Unicode MS', 'DejaVu Sans', sans-serif; text-anchor: start" x="156.735188" y="279.021062" transform="rotate(-0 156.735188 279.021062)">72 t/d</text>
    </g>
    <g id="line2d_41">
     <path d="M 190.335188 276.221062 
L 199.935188 276.221062 
L 199.935188 276.221062 
L 209.535188 276.221062 
L 209.535188 276.221062 
" style="fill: none; stroke: #ff7f0e; stroke-width: 1.4; stroke-linecap: square"/>
    </g>
    <g id="text_22">
     <text style="font-size: 8px; font-family: 'SimSun', 'Microsoft YaHei', 'SimHei', 'Arial Unicode MS', 'DejaVu Sans', sans-serif; text-anchor: start" x="215.935188" y="279.021062" transform="rotate(-0 215.935188 279.021062)">63 t/d</text>
    </g>
    <g id="line2d_42">
     <path d="M 249.535188 276.221062 
L 259.135188 276.221062 
L 259.135188 276.221062 
L 268.735188 276.221062 
L 268.735188 276.221062 
" style="fill: none; stroke: #2ca02c; stroke-width: 1.4; stroke-linecap: square"/>
    </g>
    <g id="text_23">
     <text style="font-size: 8px; font-family: 'SimSun', 'Microsoft YaHei', 'SimHei', 'Arial Unicode MS', 'DejaVu Sans', sans-serif; text-anchor: start" x="275.135188" y="279.021062" transform="rotate(-0 275.135188 279.021062)">54 t/d</text>
    </g>
    <g id="line2d_43">
     <path d="M 308.735188 276.221062 
L 318.335188 276.221062 
L 318.335188 276.221062 
L 327.935188 276.221062 
L 327.935188 276.221062 
" style="fill: none; stroke: #d62728; stroke-width: 1.4; stroke-linecap: square"/>
    </g>
    <g id="text_24">
     <text style="font-size: 8px; font-family: 'SimSun', 'Microsoft YaHei', 'SimHei', 'Arial Unicode MS', 'DejaVu Sans', sans-serif; text-anchor: start" x="334.335188" y="279.021062" transform="rotate(-0 334.335188 279.021062)">45 t/d</text>
    </g>
    <g id="line2d_44">
     <path d="M 367.935188 276.221062 
L 377.535188 276.221062 
L 377.535188 276.221062 
L 387.135188 276.221062 
L 387.135188 276.221062 
" style="fill: none; stroke: #9467bd; stroke-width: 1.4; stroke-linecap: square"/>
    </g>
    <g id="text_25">
     <text style="font-size: 8px; font-family: 'SimSun', 'Microsoft YaHei', 'SimHei', 'Arial Unicode MS', 'DejaVu Sans', sans-serif; text-anchor: start" x="393.535188" y="279.021062" transform="rotate(-0 393.535188 279.021062)">36 t/d</text>
    </g>
   </g>
  </g>
 </g>
 <defs>
  <clipPath id="p6bbe498611">
   <rect x="42.567188" y="21.207812" width="463.536" height="207.36"/>
  </clipPath>
 </defs>
</svg>
