<?xml version="1.0" encoding="utf-8" standalone="no"?>
<!DOCTYPE svg PUBLIC "-//W3C//DTD SVG 1.1//EN"
  "http://www.w3.org/Graphics/SVG/1.1/DTD/svg11.dtd">
<svg xmlns:xlink="http://www.w3.org/1999/xlink" width="539.268031pt" height="409.716635pt" viewBox="0 0 539.268031 409.716635" xmlns="http://www.w3.org/2000/svg" version="1.1">
 <metadata>
  <rdf:RDF xmlns:dc="http://purl.org/dc/elements/1.1/" xmlns:cc="http://creativecommons.org/ns#" xmlns:rdf="http://www.w3.org/1999/02/22-rdf-syntax-ns#">
   <cc:Work>
    <dc:type rdf:resource="http://purl.org/dc/dcmitype/StillImage"/>
    <dc:date>2026-05-23T16:45:20.699887</dc:date>
    <dc:format>image/svg+xml</dc:format>
    <dc:creator>
     <cc:Agent>
      <dc:title>Matplotlib v3.10.8, https://matplotlib.org/</dc:title>
     </cc:Agent>
    </dc:creator>
   </cc:Work>
  </rdf:RDF>
 </metadata>
 <defs>
  <style type="text/css">*{stroke-linejoin: round; stroke-linecap: butt}</style>
 </defs>
 <g id="figure_1">
  <g id="patch_1">
   <path d="M 0 409.716635 
L 539.268031 409.716635 
L 539.268031 0 
L 0 0 
z
" style="fill: #ffffff"/>
  </g>
  <g id="axes_1">
   <g id="patch_2">
    <path d="M 50.532031 173.150769 
L 532.068031 173.150769 
L 532.068031 43.92 
L 50.532031 43.92 
z
" style="fill: #ffffff"/>
   </g>
   <g id="patch_3">
    <path d="M 72.420031 173.150769 
L 89.114269 173.150769 
L 89.114269 113.446576 
L 72.420031 113.446576 
z
" clip-path="url(#p22df002c09)" style="fill: #f4b6b2; stroke: #a61c2a; stroke-width: 0.5; stroke-linejoin: miter"/>
   </g>
   <g id="patch_4">
    <path d="M 165.165794 173.150769 
L 181.860031 173.150769 
L 181.860031 101.926241 
L 165.165794 101.926241 
z
" clip-path="url(#p22df002c09)" style="fill: #f4b6b2; stroke: #a61c2a; stroke-width: 0.5; stroke-linejoin: miter"/>
   </g>
   <g id="patch_5">
    <path d="M 257.911557 173.150769 
L 274.605794 173.150769 
L 274.605794 89.530792 
L 257.911557 89.530792 
z
" clip-path="url(#p22df002c09)" style="fill: #f4b6b2; stroke: #a61c2a; stroke-width: 0.5; stroke-linejoin: miter"/>
   </g>
   <g id="patch_6">
    <path d="M 350.657319 173.150769 
L 367.351557 173.150769 
L 367.351557 71.046852 
L 350.657319 71.046852 
z
" clip-path="url(#p22df002c09)" style="fill: #f4b6b2; stroke: #a61c2a; stroke-width: 0.5; stroke-linejoin: miter"/>
   </g>
   <g id="patch_7">
    <path d="M 443.403082 173.150769 
L 460.097319 173.150769 
L 460.097319 50.073846 
L 443.403082 50.073846 
z
" clip-path="url(#p22df002c09)" style="fill: #f4b6b2; stroke: #a61c2a; stroke-width: 0.5; stroke-linejoin: miter"/>
   </g>
   <g id="patch_8">
    <path d="M 89.114269 173.150769 
L 105.808506 173.150769 
L 105.808506 122.471938 
L 89.114269 122.471938 
z
" clip-path="url(#p22df002c09)" style="fill: url(#hee6df37b1a); stroke: #a61c2a; stroke-width: 0.5; stroke-linejoin: miter"/>
   </g>
   <g id="patch_9">
    <path d="M 181.860031 173.150769 
L 198.554269 173.150769 
L 198.554269 112.174277 
L 181.860031 112.174277 
z
" clip-path="url(#p22df002c09)" style="fill: url(#hee6df37b1a); stroke: #a61c2a; stroke-width: 0.5; stroke-linejoin: miter"/>
   </g>
   <g id="patch_10">
    <path d="M 274.605794 173.150769 
L 291.300031 173.150769 
L 291.300031 96.776021 
L 274.605794 96.776021 
z
" clip-path="url(#p22df002c09)" style="fill: url(#hee6df37b1a); stroke: #a61c2a; stroke-width: 0.5; stroke-linejoin: miter"/>
   </g>
   <g id="patch_11">
    <path d="M 367.351557 173.150769 
L 384.045794 173.150769 
L 384.045794 75.017946 
L 367.351557 75.017946 
z
" clip-path="url(#p22df002c09)" style="fill: url(#hee6df37b1a); stroke: #a61c2a; stroke-width: 0.5; stroke-linejoin: miter"/>
   </g>
   <g id="patch_12">
    <path d="M 460.097319 173.150769 
L 476.791557 173.150769 
L 476.791557 50.073846 
L 460.097319 50.073846 
z
" clip-path="url(#p22df002c09)" style="fill: url(#hee6df37b1a); stroke: #a61c2a; stroke-width: 0.5; stroke-linejoin: miter"/>
   </g>
   <g id="patch_13">
    <path d="M 105.808506 173.150769 
L 122.502743 173.150769 
L 122.502743 130.024819 
L 105.808506 130.024819 
z
" clip-path="url(#p22df002c09)" style="fill: #9dc3e6; stroke: #1f4e79; stroke-width: 0.5; stroke-linejoin: miter"/>
   </g>
   <g id="patch_14">
    <path d="M 198.554269 173.150769 
L 215.248506 173.150769 
L 215.248506 143.448583 
L 198.554269 143.448583 
z
" clip-path="url(#p22df002c09)" style="fill: #9dc3e6; stroke: #1f4e79; stroke-width: 0.5; stroke-linejoin: miter"/>
   </g>
   <g id="patch_15">
    <path d="M 291.300031 173.150769 
L 307.994269 173.150769 
L 307.994269 155.997233 
L 291.300031 155.997233 
z
" clip-path="url(#p22df002c09)" style="fill: #9dc3e6; stroke: #1f4e79; stroke-width: 0.5; stroke-linejoin: miter"/>
   </g>
   <g id="patch_16">
    <path d="M 384.045794 173.150769 
L 400.740031 173.150769 
L 400.740031 162.457392 
L 384.045794 162.457392 
z
" clip-path="url(#p22df002c09)" style="fill: #9dc3e6; stroke: #1f4e79; stroke-width: 0.5; stroke-linejoin: miter"/>
   </g>
   <g id="patch_17">
    <path d="M 476.791557 173.150769 
L 493.485794 173.150769 
L 493.485794 166.428486 
L 476.791557 166.428486 
z
" clip-path="url(#p22df002c09)" style="fill: #9dc3e6; stroke: #1f4e79; stroke-width: 0.5; stroke-linejoin: miter"/>
   </g>
   <g id="patch_18">
    <path d="M 122.502743 173.150769 
L 139.19698 173.150769 
L 139.19698 139.05018 
L 122.502743 139.05018 
z
" clip-path="url(#p22df002c09)" style="fill: url(#h63619ff9e1); stroke: #1f4e79; stroke-width: 0.5; stroke-linejoin: miter"/>
   </g>
   <g id="patch_19">
    <path d="M 215.248506 173.150769 
L 231.942743 173.150769 
L 231.942743 153.696619 
L 215.248506 153.696619 
z
" clip-path="url(#p22df002c09)" style="fill: url(#h63619ff9e1); stroke: #1f4e79; stroke-width: 0.5; stroke-linejoin: miter"/>
   </g>
   <g id="patch_20">
    <path d="M 307.994269 173.150769 
L 324.688506 173.150769 
L 324.688506 163.242462 
L 307.994269 163.242462 
z
" clip-path="url(#p22df002c09)" style="fill: url(#h63619ff9e1); stroke: #1f4e79; stroke-width: 0.5; stroke-linejoin: miter"/>
   </g>
   <g id="patch_21">
    <path d="M 400.740031 173.150769 
L 417.434269 173.150769 
L 417.434269 166.428486 
L 400.740031 166.428486 
z
" clip-path="url(#p22df002c09)" style="fill: url(#h63619ff9e1); stroke: #1f4e79; stroke-width: 0.5; stroke-linejoin: miter"/>
   </g>
   <g id="patch_22">
    <path d="M 493.485794 173.150769 
L 510.180031 173.150769 
L 510.180031 166.428486 
L 493.485794 166.428486 
z
" clip-path="url(#p22df002c09)" style="fill: url(#h63619ff9e1); stroke: #1f4e79; stroke-width: 0.5; stroke-linejoin: miter"/>
   </g>
   <g id="matplotlib.axis_1">
    <g id="xtick_1">
     <g id="line2d_1">
      <defs>
       <path id="m0fe073671b" d="M 0 0 
L 0 3.5 
" style="stroke: #000000; stroke-width: 0.8"/>
      </defs>
      <g>
       <use xlink:href="#m0fe073671b" x="105.808506" y="173.150769" style="stroke: #000000; stroke-width: 0.8"/>
      </g>
     </g>
    </g>
    <g id="xtick_2">
     <g id="line2d_2">
      <g>
       <use xlink:href="#m0fe073671b" x="198.554269" y="173.150769" style="stroke: #000000; stroke-width: 0.8"/>
      </g>
     </g>
    </g>
    <g id="xtick_3">
     <g id="line2d_3">
      <g>
       <use xlink:href="#m0fe073671b" x="291.300031" y="173.150769" style="stroke: #000000; stroke-width: 0.8"/>
      </g>
     </g>
    </g>
    <g id="xtick_4">
     <g id="line2d_4">
      <g>
       <use xlink:href="#m0fe073671b" x="384.045794" y="173.150769" style="stroke: #000000; stroke-width: 0.8"/>
      </g>
     </g>
    </g>
    <g id="xtick_5">
     <g id="line2d_5">
      <g>
       <use xlink:href="#m0fe073671b" x="476.791557" y="173.150769" style="stroke: #000000; stroke-width: 0.8"/>
      </g>
     </g>
    </g>
   </g>
   <g id="matplotlib.axis_2">
    <g id="ytick_1">
     <g id="line2d_6">
      <path d="M 50.532031 173.150769 
L 532.068031 173.150769 
" clip-path="url(#p22df002c09)" style="fill: none; stroke-dasharray: 1.665,0.72; stroke-dashoffset: 0; stroke: #b0b0b0; stroke-opacity: 0.4; stroke-width: 0.45"/>
     </g>
     <g id="line2d_7">
      <defs>
       <path id="m2683685174" d="M 0 0 
L -3.5 0 
" style="stroke: #000000; stroke-width: 0.8"/>
      </defs>
      <g>
       <use xlink:href="#m2683685174" x="50.532031" y="173.150769" style="stroke: #000000; stroke-width: 0.8"/>
      </g>
     </g>
     <g id="text_1">
      <text style="font-size: 8px; font-family: 'SimSun', 'Microsoft YaHei', 'SimHei', 'Arial Unicode MS', 'DejaVu Sans', sans-serif; text-anchor: end" x="43.532031" y="176.010144" transform="rotate(-0 43.532031 176.010144)">0</text>
     </g>
    </g>
    <g id="ytick_2">
     <g id="line2d_8">
      <path d="M 50.532031 145.323795 
L 532.068031 145.323795 
" clip-path="url(#p22df002c09)" style="fill: none; stroke-dasharray: 1.665,0.72; stroke-dashoffset: 0; stroke: #b0b0b0; stroke-opacity: 0.4; stroke-width: 0.45"/>
     </g>
     <g id="line2d_9">
      <g>
       <use xlink:href="#m2683685174" x="50.532031" y="145.323795" style="stroke: #000000; stroke-width: 0.8"/>
      </g>
     </g>
     <g id="text_2">
      <text style="font-size: 8px; font-family: 'SimSun', 'Microsoft YaHei', 'SimHei', 'Arial Unicode MS', 'DejaVu Sans', sans-serif; text-anchor: end" x="43.532031" y="148.18317" transform="rotate(-0 43.532031 148.18317)">50000</text>
     </g>
    </g>
    <g id="ytick_3">
     <g id="line2d_10">
      <path d="M 50.532031 117.496821 
L 532.068031 117.496821 
" clip-path="url(#p22df002c09)" style="fill: none; stroke-dasharray: 1.665,0.72; stroke-dashoffset: 0; stroke: #b0b0b0; stroke-opacity: 0.4; stroke-width: 0.45"/>
     </g>
     <g id="line2d_11">
      <g>
       <use xlink:href="#m2683685174" x="50.532031" y="117.496821" style="stroke: #000000; stroke-width: 0.8"/>
      </g>
     </g>
     <g id="text_3">
      <text style="font-size: 8px; font-family: 'SimSun', 'Microsoft YaHei', 'SimHei', 'Arial Unicode MS', 'DejaVu Sans', sans-serif; text-anchor: end" x="43.532031" y="120.356196" transform="rotate(-0 43.532031 120.356196)">100000</text>
     </g>
    </g>
    <g id="ytick_4">
     <g id="line2d_12">
      <path d="M 50.532031 89.669847 
L 532.068031 89.669847 
" clip-path="url(#p22df002c09)" style="fill: none; stroke-dasharray: 1.665,0.72; stroke-dashoffset: 0; stroke: #b0b0b0; stroke-opacity: 0.4; stroke-width: 0.45"/>
     </g>
     <g id="line2d_13">
      <g>
       <use xlink:href="#m2683685174" x="50.532031" y="89.669847" style="stroke: #000000; stroke-width: 0.8"/>
      </g>
     </g>
     <g id="text_4">
      <text style="font-size: 8px; font-family: 'SimSun', 'Microsoft YaHei', 'SimHei', 'Arial Unicode MS', 'DejaVu Sans', sans-serif; text-anchor: end" x="43.532031" y="92.529222" transform="rotate(-0 43.532031 92.529222)">150000</text>
     </g>
    </g>
    <g id="ytick_5">
     <g id="line2d_14">
      <path d="M 50.532031 61.842874 
L 532.068031 61.842874 
" clip-path="url(#p22df002c09)" style="fill: none; stroke-dasharray: 1.665,0.72; stroke-dashoffset: 0; stroke: #b0b0b0; stroke-opacity: 0.4; stroke-width: 0.45"/>
     </g>
     <g id="line2d_15">
      <g>
       <use xlink:href="#m2683685174" x="50.532031" y="61.842874" style="stroke: #000000; stroke-width: 0.8"/>
      </g>
     </g>
     <g id="text_5">
      <text style="font-size: 8px; font-family: 'SimSun', 'Microsoft YaHei', 'SimHei', 'Arial Unicode MS', 'DejaVu Sans', sans-serif; text-anchor: end" x="43.532031" y="64.702249" transform="rotate(-0 43.532031 64.702249)">200000</text>
     </g>
    </g>
    <g id="text_6">
     <text style="font-size: 9px; font-family: 'SimSun', 'Microsoft YaHei', 'SimHei', 'Arial Unicode MS', 'DejaVu Sans', sans-serif; text-anchor: middle" x="14.371875" y="108.535385" transform="rotate(-90 14.371875 108.535385)">年度电量/MWh</text>
    </g>
   </g>
   <g id="patch_23">
    <path d="M 50.532031 173.150769 
L 50.532031 43.92 
" style="fill: none; stroke: #000000; stroke-width: 0.8; stroke-linejoin: miter; stroke-linecap: square"/>
   </g>
   <g id="patch_24">
    <path d="M 532.068031 173.150769 
L 532.068031 43.92 
" style="fill: none; stroke: #000000; stroke-width: 0.8; stroke-linejoin: miter; stroke-linecap: square"/>
   </g>
   <g id="patch_25">
    <path d="M 50.532031 173.150769 
L 532.068031 173.150769 
" style="fill: none; stroke: #000000; stroke-width: 0.8; stroke-linejoin: miter; stroke-linecap: square"/>
   </g>
   <g id="patch_26">
    <path d="M 50.532031 43.92 
L 532.068031 43.92 
" style="fill: none; stroke: #000000; stroke-width: 0.8; stroke-linejoin: miter; stroke-linecap: square"/>
   </g>
   <g id="legend_1">
    <g id="patch_27">
     <path d="M 161.700031 195.648846 
L 180.900031 195.648846 
L 180.900031 190.048846 
L 161.700031 190.048846 
z
" style="fill: #f4b6b2; stroke: #a61c2a; stroke-width: 0.5; stroke-linejoin: miter"/>
    </g>
    <g id="text_7">
     <text style="font-size: 8px; font-family: 'SimSun', 'Microsoft YaHei', 'SimHei', 'Arial Unicode MS', 'DejaVu Sans', sans-serif; text-anchor: start" x="187.300031" y="195.648846" transform="rotate(-0 187.300031 195.648846)">离散购电</text>
    </g>
    <g id="patch_28">
     <path d="M 228.900031 195.648846 
L 248.100031 195.648846 
L 248.100031 190.048846 
L 228.900031 190.048846 
z
" style="fill: url(#hee6df37b1a); stroke: #a61c2a; stroke-width: 0.5; stroke-linejoin: miter"/>
    </g>
    <g id="text_8">
     <text style="font-size: 8px; font-family: 'SimSun', 'Microsoft YaHei', 'SimHei', 'Arial Unicode MS', 'DejaVu Sans', sans-serif; text-anchor: start" x="254.500031" y="195.648846" transform="rotate(-0 254.500031 195.648846)">连续购电</text>
    </g>
    <g id="patch_29">
     <path d="M 296.100031 195.648846 
L 315.300031 195.648846 
L 315.300031 190.048846 
L 296.100031 190.048846 
z
" style="fill: #9dc3e6; stroke: #1f4e79; stroke-width: 0.5; stroke-linejoin: miter"/>
    </g>
    <g id="text_9">
     <text style="font-size: 8px; font-family: 'SimSun', 'Microsoft YaHei', 'SimHei', 'Arial Unicode MS', 'DejaVu Sans', sans-serif; text-anchor: start" x="321.700031" y="195.648846" transform="rotate(-0 321.700031 195.648846)">离散上网</text>
    </g>
    <g id="patch_30">
     <path d="M 363.300031 195.648846 
L 382.500031 195.648846 
L 382.500031 190.048846 
L 363.300031 190.048846 
z
" style="fill: url(#h63619ff9e1); stroke: #1f4e79; stroke-width: 0.5; stroke-linejoin: miter"/>
    </g>
    <g id="text_10">
     <text style="font-size: 8px; font-family: 'SimSun', 'Microsoft YaHei', 'SimHei', 'Arial Unicode MS', 'DejaVu Sans', sans-serif; text-anchor: start" x="388.900031" y="195.648846" transform="rotate(-0 388.900031 195.648846)">连续上网</text>
    </g>
   </g>
  </g>
  <g id="axes_2">
   <g id="patch_31">
    <path d="M 50.532031 346.32 
L 532.068031 346.32 
L 532.068031 217.089231 
L 50.532031 217.089231 
z
" style="fill: #ffffff"/>
   </g>
   <g id="matplotlib.axis_3">
    <g id="xtick_6">
     <g id="line2d_16">
      <g>
       <use xlink:href="#m0fe073671b" x="105.808506" y="346.32" style="stroke: #000000; stroke-width: 0.8"/>
      </g>
     </g>
     <g id="text_11">
      <text style="font-size: 8px; font-family: 'SimSun', 'Microsoft YaHei', 'SimHei', 'Arial Unicode MS', 'DejaVu Sans', sans-serif; text-anchor: middle" x="105.808506" y="359.03875" transform="rotate(-0 105.808506 359.03875)">36</text>
     </g>
    </g>
    <g id="xtick_7">
     <g id="line2d_17">
      <g>
       <use xlink:href="#m0fe073671b" x="198.554269" y="346.32" style="stroke: #000000; stroke-width: 0.8"/>
      </g>
     </g>
     <g id="text_12">
      <text style="font-size: 8px; font-family: 'SimSun', 'Microsoft YaHei', 'SimHei', 'Arial Unicode MS', 'DejaVu Sans', sans-serif; text-anchor: middle" x="198.554269" y="359.03875" transform="rotate(-0 198.554269 359.03875)">45</text>
     </g>
    </g>
    <g id="xtick_8">
     <g id="line2d_18">
      <g>
       <use xlink:href="#m0fe073671b" x="291.300031" y="346.32" style="stroke: #000000; stroke-width: 0.8"/>
      </g>
     </g>
     <g id="text_13">
      <text style="font-size: 8px; font-family: 'SimSun', 'Microsoft YaHei', 'SimHei', 'Arial Unicode MS', 'DejaVu Sans', sans-serif; text-anchor: middle" x="291.300031" y="359.03875" transform="rotate(-0 291.300031 359.03875)">54</text>
     </g>
    </g>
    <g id="xtick_9">
     <g id="line2d_19">
      <g>
       <use xlink:href="#m0fe073671b" x="384.045794" y="346.32" style="stroke: #000000; stroke-width: 0.8"/>
      </g>
     </g>
     <g id="text_14">
      <text style="font-size: 8px; font-family: 'SimSun', 'Microsoft YaHei', 'SimHei', 'Arial Unicode MS', 'DejaVu Sans', sans-serif; text-anchor: middle" x="384.045794" y="359.03875" transform="rotate(-0 384.045794 359.03875)">63</text>
     </g>
    </g>
    <g id="xtick_10">
     <g id="line2d_20">
      <g>
       <use xlink:href="#m0fe073671b" x="476.791557" y="346.32" style="stroke: #000000; stroke-width: 0.8"/>
      </g>
     </g>
     <g id="text_15">
      <text style="font-size: 8px; font-family: 'SimSun', 'Microsoft YaHei', 'SimHei', 'Arial Unicode MS', 'DejaVu Sans', sans-serif; text-anchor: middle" x="476.791557" y="359.03875" transform="rotate(-0 476.791557 359.03875)">72</text>
     </g>
    </g>
    <g id="text_16">
     <text style="font-size: 9px; font-family: 'SimSun', 'Microsoft YaHei', 'SimHei', 'Arial Unicode MS', 'DejaVu Sans', sans-serif; text-anchor: middle" x="291.300031" y="371.206719" transform="rotate(-0 291.300031 371.206719)">日产量/t</text>
    </g>
   </g>
   <g id="matplotlib.axis_4">
    <g id="ytick_6">
     <g id="line2d_21">
      <path d="M 50.532031 322.733741 
L 532.068031 322.733741 
" clip-path="url(#p471dfc1191)" style="fill: none; stroke-dasharray: 1.665,0.72; stroke-dashoffset: 0; stroke: #b0b0b0; stroke-opacity: 0.4; stroke-width: 0.45"/>
     </g>
     <g id="line2d_22">
      <g>
       <use xlink:href="#m2683685174" x="50.532031" y="322.733741" style="stroke: #000000; stroke-width: 0.8"/>
      </g>
     </g>
     <g id="text_17">
      <text style="font-size: 8px; font-family: 'SimSun', 'Microsoft YaHei', 'SimHei', 'Arial Unicode MS', 'DejaVu Sans', sans-serif; text-anchor: end" x="43.532031" y="325.593116" transform="rotate(-0 43.532031 325.593116)">20</text>
     </g>
    </g>
    <g id="ytick_7">
     <g id="line2d_23">
      <path d="M 50.532031 295.380991 
L 532.068031 295.380991 
" clip-path="url(#p471dfc1191)" style="fill: none; stroke-dasharray: 1.665,0.72; stroke-dashoffset: 0; stroke: #b0b0b0; stroke-opacity: 0.4; stroke-width: 0.45"/>
     </g>
     <g id="line2d_24">
      <g>
       <use xlink:href="#m2683685174" x="50.532031" y="295.380991" style="stroke: #000000; stroke-width: 0.8"/>
      </g>
     </g>
     <g id="text_18">
      <text style="font-size: 8px; font-family: 'SimSun', 'Microsoft YaHei', 'SimHei', 'Arial Unicode MS', 'DejaVu Sans', sans-serif; text-anchor: end" x="43.532031" y="298.240366" transform="rotate(-0 43.532031 298.240366)">40</text>
     </g>
    </g>
    <g id="ytick_8">
     <g id="line2d_25">
      <path d="M 50.532031 268.02824 
L 532.068031 268.02824 
" clip-path="url(#p471dfc1191)" style="fill: none; stroke-dasharray: 1.665,0.72; stroke-dashoffset: 0; stroke: #b0b0b0; stroke-opacity: 0.4; stroke-width: 0.45"/>
     </g>
     <g id="line2d_26">
      <g>
       <use xlink:href="#m2683685174" x="50.532031" y="268.02824" style="stroke: #000000; stroke-width: 0.8"/>
      </g>
     </g>
     <g id="text_19">
      <text style="font-size: 8px; font-family: 'SimSun', 'Microsoft YaHei', 'SimHei', 'Arial Unicode MS', 'DejaVu Sans', sans-serif; text-anchor: end" x="43.532031" y="270.887615" transform="rotate(-0 43.532031 270.887615)">60</text>
     </g>
    </g>
    <g id="ytick_9">
     <g id="line2d_27">
      <path d="M 50.532031 240.675489 
L 532.068031 240.675489 
" clip-path="url(#p471dfc1191)" style="fill: none; stroke-dasharray: 1.665,0.72; stroke-dashoffset: 0; stroke: #b0b0b0; stroke-opacity: 0.4; stroke-width: 0.45"/>
     </g>
     <g id="line2d_28">
      <g>
       <use xlink:href="#m2683685174" x="50.532031" y="240.675489" style="stroke: #000000; stroke-width: 0.8"/>
      </g>
     </g>
     <g id="text_20">
      <text style="font-size: 8px; font-family: 'SimSun', 'Microsoft YaHei', 'SimHei', 'Arial Unicode MS', 'DejaVu Sans', sans-serif; text-anchor: end" x="43.532031" y="243.534864" transform="rotate(-0 43.532031 243.534864)">80</text>
     </g>
    </g>
    <g id="text_21">
     <text style="font-size: 9px; font-family: 'SimSun', 'Microsoft YaHei', 'SimHei', 'Arial Unicode MS', 'DejaVu Sans', sans-serif; text-anchor: middle" x="30.371875" y="281.704615" transform="rotate(-90 30.371875 281.704615)">指标值/%</text>
    </g>
   </g>
   <g id="line2d_29">
    <path d="M 105.808506 275.170896 
L 198.554269 255.919493 
L 291.300031 237.923115 
L 384.045794 228.658416 
L 476.791557 222.963357 
" clip-path="url(#p471dfc1191)" style="fill: none; stroke-dasharray: 5.92,2.56; stroke-dashoffset: 0; stroke: #2f6b4f; stroke-width: 1.6"/>
    <defs>
     <path id="m83aa85bc4a" d="M 0 2.1 
C 0.556927 2.1 1.091118 1.878731 1.484924 1.484924 
C 1.878731 1.091118 2.1 0.556927 2.1 0 
C 2.1 -0.556927 1.878731 -1.091118 1.484924 -1.484924 
C 1.091118 -1.878731 0.556927 -2.1 0 -2.1 
C -0.556927 -2.1 -1.091118 -1.878731 -1.484924 -1.484924 
C -1.878731 -1.091118 -2.1 -0.556927 -2.1 0 
C -2.1 0.556927 -1.878731 1.091118 -1.484924 1.484924 
C -1.091118 1.878731 -0.556927 2.1 0 2.1 
z
" style="stroke: #2f6b4f"/>
    </defs>
    <g clip-path="url(#p471dfc1191)">
     <use xlink:href="#m83aa85bc4a" x="105.808506" y="275.170896" style="fill: #2f6b4f; stroke: #2f6b4f"/>
     <use xlink:href="#m83aa85bc4a" x="198.554269" y="255.919493" style="fill: #2f6b4f; stroke: #2f6b4f"/>
     <use xlink:href="#m83aa85bc4a" x="291.300031" y="237.923115" style="fill: #2f6b4f; stroke: #2f6b4f"/>
     <use xlink:href="#m83aa85bc4a" x="384.045794" y="228.658416" style="fill: #2f6b4f; stroke: #2f6b4f"/>
     <use xlink:href="#m83aa85bc4a" x="476.791557" y="222.963357" style="fill: #2f6b4f; stroke: #2f6b4f"/>
    </g>
   </g>
   <g id="line2d_30">
    <path d="M 105.808506 262.227368 
L 198.554269 241.222491 
L 291.300031 227.532525 
L 384.045794 222.963357 
L 476.791557 222.963357 
" clip-path="url(#p471dfc1191)" style="fill: none; stroke: #2f6b4f; stroke-width: 1.6; stroke-linecap: square"/>
    <g clip-path="url(#p471dfc1191)">
     <use xlink:href="#m83aa85bc4a" x="105.808506" y="262.227368" style="fill: #2f6b4f; stroke: #2f6b4f"/>
     <use xlink:href="#m83aa85bc4a" x="198.554269" y="241.222491" style="fill: #2f6b4f; stroke: #2f6b4f"/>
     <use xlink:href="#m83aa85bc4a" x="291.300031" y="227.532525" style="fill: #2f6b4f; stroke: #2f6b4f"/>
     <use xlink:href="#m83aa85bc4a" x="384.045794" y="222.963357" style="fill: #2f6b4f; stroke: #2f6b4f"/>
     <use xlink:href="#m83aa85bc4a" x="476.791557" y="222.963357" style="fill: #2f6b4f; stroke: #2f6b4f"/>
    </g>
   </g>
   <g id="line2d_31">
    <path d="M 105.808506 288.238335 
L 198.554269 307.489738 
L 291.300031 325.486116 
L 384.045794 334.750815 
L 476.791557 340.445874 
" clip-path="url(#p471dfc1191)" style="fill: none; stroke-dasharray: 5.92,2.56; stroke-dashoffset: 0; stroke: #a61c2a; stroke-width: 1.6"/>
    <defs>
     <path id="meeedace946" d="M 0 -2.1 
L -2.1 2.1 
L 2.1 2.1 
z
" style="stroke: #a61c2a; stroke-linejoin: miter"/>
    </defs>
    <g clip-path="url(#p471dfc1191)">
     <use xlink:href="#meeedace946" x="105.808506" y="288.238335" style="fill: #a61c2a; stroke: #a61c2a; stroke-linejoin: miter"/>
     <use xlink:href="#meeedace946" x="198.554269" y="307.489738" style="fill: #a61c2a; stroke: #a61c2a; stroke-linejoin: miter"/>
     <use xlink:href="#meeedace946" x="291.300031" y="325.486116" style="fill: #a61c2a; stroke: #a61c2a; stroke-linejoin: miter"/>
     <use xlink:href="#meeedace946" x="384.045794" y="334.750815" style="fill: #a61c2a; stroke: #a61c2a; stroke-linejoin: miter"/>
     <use xlink:href="#meeedace946" x="476.791557" y="340.445874" style="fill: #a61c2a; stroke: #a61c2a; stroke-linejoin: miter"/>
    </g>
   </g>
   <g id="line2d_32">
    <path d="M 105.808506 301.181863 
L 198.554269 322.186739 
L 291.300031 335.876706 
L 384.045794 340.445874 
L 476.791557 340.445874 
" clip-path="url(#p471dfc1191)" style="fill: none; stroke: #a61c2a; stroke-width: 1.6; stroke-linecap: square"/>
    <g clip-path="url(#p471dfc1191)">
     <use xlink:href="#meeedace946" x="105.808506" y="301.181863" style="fill: #a61c2a; stroke: #a61c2a; stroke-linejoin: miter"/>
     <use xlink:href="#meeedace946" x="198.554269" y="322.186739" style="fill: #a61c2a; stroke: #a61c2a; stroke-linejoin: miter"/>
     <use xlink:href="#meeedace946" x="291.300031" y="335.876706" style="fill: #a61c2a; stroke: #a61c2a; stroke-linejoin: miter"/>
     <use xlink:href="#meeedace946" x="384.045794" y="340.445874" style="fill: #a61c2a; stroke: #a61c2a; stroke-linejoin: miter"/>
     <use xlink:href="#meeedace946" x="476.791557" y="340.445874" style="fill: #a61c2a; stroke: #a61c2a; stroke-linejoin: miter"/>
    </g>
   </g>
   <g id="line2d_33">
    <path d="M 50.532031 268.02824 
L 532.068031 268.02824 
" clip-path="url(#p471dfc1191)" style="fill: none; stroke-dasharray: 0.8,1.32; stroke-dashoffset: 0; stroke: #2f6b4f; stroke-width: 0.8"/>
   </g>
   <g id="line2d_34">
    <path d="M 50.532031 322.733741 
L 532.068031 322.733741 
" clip-path="url(#p471dfc1191)" style="fill: none; stroke-dasharray: 0.8,1.32; stroke-dashoffset: 0; stroke: #a61c2a; stroke-width: 0.8"/>
   </g>
   <g id="patch_32">
    <path d="M 50.532031 346.32 
L 50.532031 217.089231 
" style="fill: none; stroke: #000000; stroke-width: 0.8; stroke-linejoin: miter; stroke-linecap: square"/>
   </g>
   <g id="patch_33">
    <path d="M 532.068031 346.32 
L 532.068031 217.089231 
" style="fill: none; stroke: #000000; stroke-width: 0.8; stroke-linejoin: miter; stroke-linecap: square"/>
   </g>
   <g id="patch_34">
    <path d="M 50.532031 346.32 
L 532.068031 346.32 
" style="fill: none; stroke: #000000; stroke-width: 0.8; stroke-linejoin: miter; stroke-linecap: square"/>
   </g>
   <g id="patch_35">
    <path d="M 50.532031 217.089231 
L 532.068031 217.089231 
" style="fill: none; stroke: #000000; stroke-width: 0.8; stroke-linejoin: miter; stroke-linecap: square"/>
   </g>
   <g id="legend_2">
    <g id="line2d_35">
     <path d="M 212.900031 384.110385 
L 222.500031 384.110385 
L 232.100031 384.110385 
" style="fill: none; stroke-dasharray: 5.92,2.56; stroke-dashoffset: 0; stroke: #2f6b4f; stroke-width: 1.6"/>
     <g>
      <use xlink:href="#m83aa85bc4a" x="222.500031" y="384.110385" style="fill: #2f6b4f; stroke: #2f6b4f"/>
     </g>
    </g>
    <g id="text_22">
     <text style="font-size: 8px; font-family: 'SimSun', 'Microsoft YaHei', 'SimHei', 'Arial Unicode MS', 'DejaVu Sans', sans-serif; text-anchor: start" x="238.500031" y="386.910385" transform="rotate(-0 238.500031 386.910385)">离散自发自用</text>
    </g>
    <g id="line2d_36">
     <path d="M 212.900031 395.485385 
L 222.500031 395.485385 
L 232.100031 395.485385 
" style="fill: none; stroke: #2f6b4f; stroke-width: 1.6; stroke-linecap: square"/>
     <g>
      <use xlink:href="#m83aa85bc4a" x="222.500031" y="395.485385" style="fill: #2f6b4f; stroke: #2f6b4f"/>
     </g>
    </g>
    <g id="text_23">
     <text style="font-size: 8px; font-family: 'SimSun', 'Microsoft YaHei', 'SimHei', 'Arial Unicode MS', 'DejaVu Sans', sans-serif; text-anchor: start" x="238.500031" y="398.285385" transform="rotate(-0 238.500031 398.285385)">连续自发自用</text>
    </g>
    <g id="line2d_37">
     <path d="M 296.100031 384.110385 
L 305.700031 384.110385 
L 315.300031 384.110385 
" style="fill: none; stroke-dasharray: 5.92,2.56; stroke-dashoffset: 0; stroke: #a61c2a; stroke-width: 1.6"/>
     <g>
      <use xlink:href="#meeedace946" x="305.700031" y="384.110385" style="fill: #a61c2a; stroke: #a61c2a; stroke-linejoin: miter"/>
     </g>
    </g>
    <g id="text_24">
     <text style="font-size: 8px; font-family: 'SimSun', 'Microsoft YaHei', 'SimHei', 'Arial Unicode MS', 'DejaVu Sans', sans-serif; text-anchor: start" x="321.700031" y="386.910385" transform="rotate(-0 321.700031 386.910385)">离散上网比例</text>
    </g>
    <g id="line2d_38">
     <path d="M 296.100031 395.485385 
L 305.700031 395.485385 
L 315.300031 395.485385 
" style="fill: none; stroke: #a61c2a; stroke-width: 1.6; stroke-linecap: square"/>
     <g>
      <use xlink:href="#meeedace946" x="305.700031" y="395.485385" style="fill: #a61c2a; stroke: #a61c2a; stroke-linejoin: miter"/>
     </g>
    </g>
    <g id="text_25">
     <text style="font-size: 8px; font-family: 'SimSun', 'Microsoft YaHei', 'SimHei', 'Arial Unicode MS', 'DejaVu Sans', sans-serif; text-anchor: start" x="321.700031" y="398.285385" transform="rotate(-0 321.700031 398.285385)">连续上网比例</text>
    </g>
   </g>
  </g>
  <g id="text_26">
   <text style="font-size: 10px; font-family: 'SimSun', 'Microsoft YaHei', 'SimHei', 'Arial Unicode MS', 'DejaVu Sans', sans-serif; text-anchor: middle" x="269.412031" y="15.16875" transform="rotate(-0 269.412031 15.16875)">离散开停与连续调节的购售电和绿电指标对比</text>
  </g>
 </g>
 <defs>
  <clipPath id="p22df002c09">
   <rect x="50.532031" y="43.92" width="481.536" height="129.230769"/>
  </clipPath>
  <clipPath id="p471dfc1191">
   <rect x="50.532031" y="217.089231" width="481.536" height="129.230769"/>
  </clipPath>
 </defs>
 <defs>
  <pattern id="hee6df37b1a" patternUnits="userSpaceOnUse" x="0" y="0" width="72" height="72">
   <rect x="0" y="0" width="73" height="73" fill="#f4d2cf"/>
   <path d="M -36 36 
L 36 -36 
M -30 42 
L 42 -30 
M -24 48 
L 48 -24 
M -18 54 
L 54 -18 
M -12 60 
L 60 -12 
M -6 66 
L 66 -6 
M 0 72 
L 72 0 
M 6 78 
L 78 6 
M 12 84 
L 84 12 
M 18 90 
L 90 18 
M 24 96 
L 96 24 
M 30 102 
L 102 30 
M 36 108 
L 108 36 
" style="fill: #a61c2a; stroke: #a61c2a; stroke-width: 1.0; stroke-linecap: butt; stroke-linejoin: miter"/>
  </pattern>
  <pattern id="h63619ff9e1" patternUnits="userSpaceOnUse" x="0" y="0" width="72" height="72">
   <rect x="0" y="0" width="73" height="73" fill="#c9dff2"/>
   <path d="M -36 36 
L 36 108 
M -30 30 
L 42 102 
M -24 24 
L 48 96 
M -18 18 
L 54 90 
M -12 12 
L 60 84 
M -6 6 
L 66 78 
M 0 0 
L 72 72 
M 6 -6 
L 78 66 
M 12 -12 
L 84 60 
M 18 -18 
L 90 54 
M 24 -24 
L 96 48 
M 30 -30 
L 102 42 
M 36 -36 
L 108 36 
" style="fill: #1f4e79; stroke: #1f4e79; stroke-width: 1.0; stroke-linecap: butt; stroke-linejoin: miter"/>
  </pattern>
 </defs>
</svg>
