<?xml version="1.0" encoding="utf-8" standalone="no"?>
<!DOCTYPE svg PUBLIC "-//W3C//DTD SVG 1.1//EN"
  "http://www.w3.org/Graphics/SVG/1.1/DTD/svg11.dtd">
<svg xmlns:xlink="http://www.w3.org/1999/xlink" width="513.303187pt" height="290.452312pt" viewBox="0 0 513.303187 290.452312" xmlns="http://www.w3.org/2000/svg" version="1.1">
 <metadata>
  <rdf:RDF xmlns:dc="http://purl.org/dc/elements/1.1/" xmlns:cc="http://creativecommons.org/ns#" xmlns:rdf="http://www.w3.org/1999/02/22-rdf-syntax-ns#">
   <cc:Work>
    <dc:type rdf:resource="http://purl.org/dc/dcmitype/StillImage"/>
    <dc:date>2026-05-23T16:40:42.292715</dc:date>
    <dc:format>image/svg+xml</dc:format>
    <dc:creator>
     <cc:Agent>
      <dc:title>Matplotlib v3.10.8, https://matplotlib.org/</dc:title>
     </cc:Agent>
    </dc:creator>
   </cc:Work>
  </rdf:RDF>
 </metadata>
 <defs>
  <style type="text/css">*{stroke-linejoin: round; stroke-linecap: butt}</style>
 </defs>
 <g id="figure_1">
  <g id="patch_1">
   <path d="M 0 290.452312 
L 513.303187 290.452312 
L 513.303187 0 
L 0 0 
z
" style="fill: #ffffff"/>
  </g>
  <g id="axes_1">
   <g id="patch_2">
    <path d="M 42.567188 228.567812 
L 506.103187 228.567812 
L 506.103187 21.207812 
L 42.567188 21.207812 
z
" style="fill: #ffffff"/>
   </g>
   <g id="matplotlib.axis_1">
    <g id="xtick_1">
     <g id="line2d_1">
      <path d="M 42.567188 228.567812 
L 42.567188 21.207812 
" clip-path="url(#pc5b3e45fb3)" style="fill: none; stroke-dasharray: 1.665,0.72; stroke-dashoffset: 0; stroke: #b0b0b0; stroke-opacity: 0.4; stroke-width: 0.45"/>
     </g>
     <g id="line2d_2">
      <defs>
       <path id="m762ff9f2b6" d="M 0 0 
L 0 3.5 
" style="stroke: #000000; stroke-width: 0.8"/>
      </defs>
      <g>
       <use xlink:href="#m762ff9f2b6" x="42.567188" y="228.567812" style="stroke: #000000; stroke-width: 0.8"/>
      </g>
     </g>
     <g id="text_1">
      <text style="font-size: 8px; font-family: 'SimSun', 'Microsoft YaHei', 'SimHei', 'Arial Unicode MS', 'DejaVu Sans', sans-serif; text-anchor: middle" x="42.567188" y="241.286562" transform="rotate(-0 42.567188 241.286562)">0</text>
     </g>
    </g>
    <g id="xtick_2">
     <g id="line2d_3">
      <path d="M 106.947188 228.567812 
L 106.947188 21.207812 
" clip-path="url(#pc5b3e45fb3)" style="fill: none; stroke-dasharray: 1.665,0.72; stroke-dashoffset: 0; stroke: #b0b0b0; stroke-opacity: 0.4; stroke-width: 0.45"/>
     </g>
     <g id="line2d_4">
      <g>
       <use xlink:href="#m762ff9f2b6" x="106.947188" y="228.567812" style="stroke: #000000; stroke-width: 0.8"/>
      </g>
     </g>
     <g id="text_2">
      <text style="font-size: 8px; font-family: 'SimSun', 'Microsoft YaHei', 'SimHei', 'Arial Unicode MS', 'DejaVu Sans', sans-serif; text-anchor: middle" x="106.947188" y="241.286562" transform="rotate(-0 106.947188 241.286562)">50</text>
     </g>
    </g>
    <g id="xtick_3">
     <g id="line2d_5">
      <path d="M 171.327188 228.567812 
L 171.327188 21.207812 
" clip-path="url(#pc5b3e45fb3)" style="fill: none; stroke-dasharray: 1.665,0.72; stroke-dashoffset: 0; stroke: #b0b0b0; stroke-opacity: 0.4; stroke-width: 0.45"/>
     </g>
     <g id="line2d_6">
      <g>
       <use xlink:href="#m762ff9f2b6" x="171.327188" y="228.567812" style="stroke: #000000; stroke-width: 0.8"/>
      </g>
     </g>
     <g id="text_3">
      <text style="font-size: 8px; font-family: 'SimSun', 'Microsoft YaHei', 'SimHei', 'Arial Unicode MS', 'DejaVu Sans', sans-serif; text-anchor: middle" x="171.327188" y="241.286562" transform="rotate(-0 171.327188 241.286562)">100</text>
     </g>
    </g>
    <g id="xtick_4">
     <g id="line2d_7">
      <path d="M 235.707188 228.567812 
L 235.707188 21.207812 
" clip-path="url(#pc5b3e45fb3)" style="fill: none; stroke-dasharray: 1.665,0.72; stroke-dashoffset: 0; stroke: #b0b0b0; stroke-opacity: 0.4; stroke-width: 0.45"/>
     </g>
     <g id="line2d_8">
      <g>
       <use xlink:href="#m762ff9f2b6" x="235.707188" y="228.567812" style="stroke: #000000; stroke-width: 0.8"/>
      </g>
     </g>
     <g id="text_4">
      <text style="font-size: 8px; font-family: 'SimSun', 'Microsoft YaHei', 'SimHei', 'Arial Unicode MS', 'DejaVu Sans', sans-serif; text-anchor: middle" x="235.707188" y="241.286562" transform="rotate(-0 235.707188 241.286562)">150</text>
     </g>
    </g>
    <g id="xtick_5">
     <g id="line2d_9">
      <path d="M 300.087188 228.567812 
L 300.087188 21.207812 
" clip-path="url(#pc5b3e45fb3)" style="fill: none; stroke-dasharray: 1.665,0.72; stroke-dashoffset: 0; stroke: #b0b0b0; stroke-opacity: 0.4; stroke-width: 0.45"/>
     </g>
     <g id="line2d_10">
      <g>
       <use xlink:href="#m762ff9f2b6" x="300.087188" y="228.567812" style="stroke: #000000; stroke-width: 0.8"/>
      </g>
     </g>
     <g id="text_5">
      <text style="font-size: 8px; font-family: 'SimSun', 'Microsoft YaHei', 'SimHei', 'Arial Unicode MS', 'DejaVu Sans', sans-serif; text-anchor: middle" x="300.087188" y="241.286562" transform="rotate(-0 300.087188 241.286562)">200</text>
     </g>
    </g>
    <g id="xtick_6">
     <g id="line2d_11">
      <path d="M 364.467188 228.567812 
L 364.467188 21.207812 
" clip-path="url(#pc5b3e45fb3)" style="fill: none; stroke-dasharray: 1.665,0.72; stroke-dashoffset: 0; stroke: #b0b0b0; stroke-opacity: 0.4; stroke-width: 0.45"/>
     </g>
     <g id="line2d_12">
      <g>
       <use xlink:href="#m762ff9f2b6" x="364.467188" y="228.567812" style="stroke: #000000; stroke-width: 0.8"/>
      </g>
     </g>
     <g id="text_6">
      <text style="font-size: 8px; font-family: 'SimSun', 'Microsoft YaHei', 'SimHei', 'Arial Unicode MS', 'DejaVu Sans', sans-serif; text-anchor: middle" x="364.467188" y="241.286562" transform="rotate(-0 364.467188 241.286562)">250</text>
     </g>
    </g>
    <g id="xtick_7">
     <g id="line2d_13">
      <path d="M 428.847188 228.567812 
L 428.847188 21.207812 
" clip-path="url(#pc5b3e45fb3)" style="fill: none; stroke-dasharray: 1.665,0.72; stroke-dashoffset: 0; stroke: #b0b0b0; stroke-opacity: 0.4; stroke-width: 0.45"/>
     </g>
     <g id="line2d_14">
      <g>
       <use xlink:href="#m762ff9f2b6" x="428.847188" y="228.567812" style="stroke: #000000; stroke-width: 0.8"/>
      </g>
     </g>
     <g id="text_7">
      <text style="font-size: 8px; font-family: 'SimSun', 'Microsoft YaHei', 'SimHei', 'Arial Unicode MS', 'DejaVu Sans', sans-serif; text-anchor: middle" x="428.847188" y="241.286562" transform="rotate(-0 428.847188 241.286562)">300</text>
     </g>
    </g>
    <g id="xtick_8">
     <g id="line2d_15">
      <path d="M 493.227188 228.567812 
L 493.227188 21.207812 
" clip-path="url(#pc5b3e45fb3)" style="fill: none; stroke-dasharray: 1.665,0.72; stroke-dashoffset: 0; stroke: #b0b0b0; stroke-opacity: 0.4; stroke-width: 0.45"/>
     </g>
     <g id="line2d_16">
      <g>
       <use xlink:href="#m762ff9f2b6" x="493.227188" y="228.567812" style="stroke: #000000; stroke-width: 0.8"/>
      </g>
     </g>
     <g id="text_8">
      <text style="font-size: 8px; font-family: 'SimSun', 'Microsoft YaHei', 'SimHei', 'Arial Unicode MS', 'DejaVu Sans', sans-serif; text-anchor: middle" x="493.227188" y="241.286562" transform="rotate(-0 493.227188 241.286562)">350</text>
     </g>
    </g>
    <g id="text_9">
     <text style="font-size: 9px; font-family: 'SimSun', 'Microsoft YaHei', 'SimHei', 'Arial Unicode MS', 'DejaVu Sans', sans-serif; text-anchor: middle" x="274.335188" y="253.454531" transform="rotate(-0 274.335188 253.454531)">累计代表天数/d</text>
    </g>
   </g>
   <g id="matplotlib.axis_2">
    <g id="ytick_1">
     <g id="line2d_17">
      <path d="M 42.567188 227.977514 
L 506.103187 227.977514 
" clip-path="url(#pc5b3e45fb3)" style="fill: none; stroke-dasharray: 1.665,0.72; stroke-dashoffset: 0; stroke: #b0b0b0; stroke-opacity: 0.4; stroke-width: 0.45"/>
     </g>
     <g id="line2d_18">
      <defs>
       <path id="m1f7a4ed149" d="M 0 0 
L -3.5 0 
" style="stroke: #000000; stroke-width: 0.8"/>
      </defs>
      <g>
       <use xlink:href="#m1f7a4ed149" x="42.567188" y="227.977514" style="stroke: #000000; stroke-width: 0.8"/>
      </g>
     </g>
     <g id="text_10">
      <text style="font-size: 8px; font-family: 'SimSun', 'Microsoft YaHei', 'SimHei', 'Arial Unicode MS', 'DejaVu Sans', sans-serif; text-anchor: end" x="35.567188" y="230.836889" transform="rotate(-0 35.567188 230.836889)">1000</text>
     </g>
    </g>
    <g id="ytick_2">
     <g id="line2d_19">
      <path d="M 42.567188 204.124205 
L 506.103187 204.124205 
" clip-path="url(#pc5b3e45fb3)" style="fill: none; stroke-dasharray: 1.665,0.72; stroke-dashoffset: 0; stroke: #b0b0b0; stroke-opacity: 0.4; stroke-width: 0.45"/>
     </g>
     <g id="line2d_20">
      <g>
       <use xlink:href="#m1f7a4ed149" x="42.567188" y="204.124205" style="stroke: #000000; stroke-width: 0.8"/>
      </g>
     </g>
     <g id="text_11">
      <text style="font-size: 8px; font-family: 'SimSun', 'Microsoft YaHei', 'SimHei', 'Arial Unicode MS', 'DejaVu Sans', sans-serif; text-anchor: end" x="35.567188" y="206.98358" transform="rotate(-0 35.567188 206.98358)">2000</text>
     </g>
    </g>
    <g id="ytick_3">
     <g id="line2d_21">
      <path d="M 42.567188 180.270897 
L 506.103187 180.270897 
" clip-path="url(#pc5b3e45fb3)" style="fill: none; stroke-dasharray: 1.665,0.72; stroke-dashoffset: 0; stroke: #b0b0b0; stroke-opacity: 0.4; stroke-width: 0.45"/>
     </g>
     <g id="line2d_22">
      <g>
       <use xlink:href="#m1f7a4ed149" x="42.567188" y="180.270897" style="stroke: #000000; stroke-width: 0.8"/>
      </g>
     </g>
     <g id="text_12">
      <text style="font-size: 8px; font-family: 'SimSun', 'Microsoft YaHei', 'SimHei', 'Arial Unicode MS', 'DejaVu Sans', sans-serif; text-anchor: end" x="35.567188" y="183.130272" transform="rotate(-0 35.567188 183.130272)">3000</text>
     </g>
    </g>
    <g id="ytick_4">
     <g id="line2d_23">
      <path d="M 42.567188 156.417589 
L 506.103187 156.417589 
" clip-path="url(#pc5b3e45fb3)" style="fill: none; stroke-dasharray: 1.665,0.72; stroke-dashoffset: 0; stroke: #b0b0b0; stroke-opacity: 0.4; stroke-width: 0.45"/>
     </g>
     <g id="line2d_24">
      <g>
       <use xlink:href="#m1f7a4ed149" x="42.567188" y="156.417589" style="stroke: #000000; stroke-width: 0.8"/>
      </g>
     </g>
     <g id="text_13">
      <text style="font-size: 8px; font-family: 'SimSun', 'Microsoft YaHei', 'SimHei', 'Arial Unicode MS', 'DejaVu Sans', sans-serif; text-anchor: end" x="35.567188" y="159.276964" transform="rotate(-0 35.567188 159.276964)">4000</text>
     </g>
    </g>
    <g id="ytick_5">
     <g id="line2d_25">
      <path d="M 42.567188 132.564281 
L 506.103187 132.564281 
" clip-path="url(#pc5b3e45fb3)" style="fill: none; stroke-dasharray: 1.665,0.72; stroke-dashoffset: 0; stroke: #b0b0b0; stroke-opacity: 0.4; stroke-width: 0.45"/>
     </g>
     <g id="line2d_26">
      <g>
       <use xlink:href="#m1f7a4ed149" x="42.567188" y="132.564281" style="stroke: #000000; stroke-width: 0.8"/>
      </g>
     </g>
     <g id="text_14">
      <text style="font-size: 8px; font-family: 'SimSun', 'Microsoft YaHei', 'SimHei', 'Arial Unicode MS', 'DejaVu Sans', sans-serif; text-anchor: end" x="35.567188" y="135.423656" transform="rotate(-0 35.567188 135.423656)">5000</text>
     </g>
    </g>
    <g id="ytick_6">
     <g id="line2d_27">
      <path d="M 42.567188 108.710973 
L 506.103187 108.710973 
" clip-path="url(#pc5b3e45fb3)" style="fill: none; stroke-dasharray: 1.665,0.72; stroke-dashoffset: 0; stroke: #b0b0b0; stroke-opacity: 0.4; stroke-width: 0.45"/>
     </g>
     <g id="line2d_28">
      <g>
       <use xlink:href="#m1f7a4ed149" x="42.567188" y="108.710973" style="stroke: #000000; stroke-width: 0.8"/>
      </g>
     </g>
     <g id="text_15">
      <text style="font-size: 8px; font-family: 'SimSun', 'Microsoft YaHei', 'SimHei', 'Arial Unicode MS', 'DejaVu Sans', sans-serif; text-anchor: end" x="35.567188" y="111.570348" transform="rotate(-0 35.567188 111.570348)">6000</text>
     </g>
    </g>
    <g id="ytick_7">
     <g id="line2d_29">
      <path d="M 42.567188 84.857664 
L 506.103187 84.857664 
" clip-path="url(#pc5b3e45fb3)" style="fill: none; stroke-dasharray: 1.665,0.72; stroke-dashoffset: 0; stroke: #b0b0b0; stroke-opacity: 0.4; stroke-width: 0.45"/>
     </g>
     <g id="line2d_30">
      <g>
       <use xlink:href="#m1f7a4ed149" x="42.567188" y="84.857664" style="stroke: #000000; stroke-width: 0.8"/>
      </g>
     </g>
     <g id="text_16">
      <text style="font-size: 8px; font-family: 'SimSun', 'Microsoft YaHei', 'SimHei', 'Arial Unicode MS', 'DejaVu Sans', sans-serif; text-anchor: end" x="35.567188" y="87.717039" transform="rotate(-0 35.567188 87.717039)">7000</text>
     </g>
    </g>
    <g id="ytick_8">
     <g id="line2d_31">
      <path d="M 42.567188 61.004356 
L 506.103187 61.004356 
" clip-path="url(#pc5b3e45fb3)" style="fill: none; stroke-dasharray: 1.665,0.72; stroke-dashoffset: 0; stroke: #b0b0b0; stroke-opacity: 0.4; stroke-width: 0.45"/>
     </g>
     <g id="line2d_32">
      <g>
       <use xlink:href="#m1f7a4ed149" x="42.567188" y="61.004356" style="stroke: #000000; stroke-width: 0.8"/>
      </g>
     </g>
     <g id="text_17">
      <text style="font-size: 8px; font-family: 'SimSun', 'Microsoft YaHei', 'SimHei', 'Arial Unicode MS', 'DejaVu Sans', sans-serif; text-anchor: end" x="35.567188" y="63.863731" transform="rotate(-0 35.567188 63.863731)">8000</text>
     </g>
    </g>
    <g id="ytick_9">
     <g id="line2d_33">
      <path d="M 42.567188 37.151048 
L 506.103187 37.151048 
" clip-path="url(#pc5b3e45fb3)" style="fill: none; stroke-dasharray: 1.665,0.72; stroke-dashoffset: 0; stroke: #b0b0b0; stroke-opacity: 0.4; stroke-width: 0.45"/>
     </g>
     <g id="line2d_34">
      <g>
       <use xlink:href="#m1f7a4ed149" x="42.567188" y="37.151048" style="stroke: #000000; stroke-width: 0.8"/>
      </g>
     </g>
     <g id="text_18">
      <text style="font-size: 8px; font-family: 'SimSun', 'Microsoft YaHei', 'SimHei', 'Arial Unicode MS', 'DejaVu Sans', sans-serif; text-anchor: end" x="35.567188" y="40.010423" transform="rotate(-0 35.567188 40.010423)">9000</text>
     </g>
    </g>
    <g id="text_19">
     <text style="font-size: 9px; font-family: 'SimSun', 'Microsoft YaHei', 'SimHei', 'Arial Unicode MS', 'DejaVu Sans', sans-serif; text-anchor: middle" x="14.407031" y="124.887812" transform="rotate(-90 14.407031 124.887812)">吨氨成本/(元/t)</text>
    </g>
   </g>
   <g id="line2d_35">
    <path d="M 61.881188 135.18098 
L 81.195188 135.18098 
L 81.195188 129.402978 
L 100.509187 129.402978 
L 100.509187 126.918878 
L 119.823188 126.918878 
L 119.823188 123.394565 
L 139.137188 123.394565 
L 139.137188 121.414282 
L 158.451188 121.414282 
L 158.451188 113.713661 
L 177.765188 113.713661 
L 177.765188 105.429487 
L 197.079187 105.429487 
L 197.079187 99.047949 
L 216.393188 99.047949 
L 216.393188 93.956296 
L 235.707188 93.956296 
L 235.707188 90.65382 
L 255.021187 90.65382 
L 255.021187 85.072067 
L 274.335188 85.072067 
L 274.335188 77.222276 
L 293.649188 77.222276 
L 293.649188 73.168759 
L 312.963188 73.168759 
L 312.963188 66.928035 
L 332.277188 66.928035 
L 332.277188 60.975133 
L 351.591187 60.975133 
L 351.591187 60.084976 
L 370.905188 60.084976 
L 370.905188 58.196354 
L 390.219188 58.196354 
L 390.219188 53.844251 
L 409.533187 53.844251 
L 409.533187 51.566841 
L 428.847188 51.566841 
L 428.847188 47.89135 
L 448.161188 47.89135 
L 448.161188 45.112571 
L 467.475188 45.112571 
L 467.475188 43.71705 
L 486.789188 43.71705 
L 486.789188 38.483058 
L 506.103187 38.483058 
L 506.103187 30.633267 
" clip-path="url(#pc5b3e45fb3)" style="fill: none; stroke: #1f77b4; stroke-width: 1.4; stroke-linecap: square"/>
   </g>
   <g id="line2d_36">
    <path d="M 61.881188 156.35855 
L 81.195188 156.35855 
L 81.195188 149.977599 
L 100.509187 149.977599 
L 100.509187 147.189417 
L 119.823188 147.189417 
L 119.823188 145.202849 
L 139.137188 145.202849 
L 139.137188 141.118966 
L 158.451188 141.118966 
L 158.451188 134.624993 
L 177.765188 134.624993 
L 177.765188 123.174009 
L 197.079187 123.174009 
L 197.079187 116.623376 
L 216.393188 116.623376 
L 216.393188 110.855134 
L 235.707188 110.855134 
L 235.707188 109.122094 
L 255.021187 109.122094 
L 255.021187 100.922245 
L 274.335188 100.922245 
L 274.335188 94.257793 
L 293.649188 94.257793 
L 293.649188 86.844998 
L 312.963188 86.844998 
L 312.963188 80.223496 
L 332.277188 80.223496 
L 332.277188 73.490393 
L 351.591187 73.490393 
L 351.591187 73.470969 
L 370.905188 73.470969 
L 370.905188 72.336441 
L 390.219188 72.336441 
L 390.219188 65.47633 
L 409.533187 65.47633 
L 409.533187 62.939152 
L 428.847188 62.939152 
L 428.847188 59.57475 
L 448.161188 59.57475 
L 448.161188 57.589275 
L 467.475188 57.589275 
L 467.475188 56.2747 
L 486.789188 56.2747 
L 486.789188 49.851062 
L 506.103187 49.851062 
L 506.103187 42.001096 
" clip-path="url(#pc5b3e45fb3)" style="fill: none; stroke: #ff7f0e; stroke-width: 1.4; stroke-linecap: square"/>
   </g>
   <g id="line2d_37">
    <path d="M 61.881188 175.213406 
L 81.195188 175.213406 
L 81.195188 168.820151 
L 100.509187 168.820151 
L 100.509187 165.419667 
L 119.823188 165.419667 
L 119.823188 164.125503 
L 139.137188 164.125503 
L 139.137188 158.395462 
L 158.451188 158.395462 
L 158.451188 152.250374 
L 177.765188 152.250374 
L 177.765188 138.916172 
L 197.079187 138.916172 
L 197.079187 131.943991 
L 216.393188 131.943991 
L 216.393188 125.152334 
L 235.707188 125.152334 
L 235.707188 123.523552 
L 255.021187 123.523552 
L 255.021187 113.467858 
L 274.335188 113.467858 
L 274.335188 107.215117 
L 293.649188 107.215117 
L 293.649188 100.678626 
L 312.963188 100.678626 
L 312.963188 91.640214 
L 332.277188 91.640214 
L 332.277188 88.395081 
L 351.591187 88.395081 
L 351.591187 85.543329 
L 370.905188 85.543329 
L 370.905188 84.662244 
L 390.219188 84.662244 
L 390.219188 78.925445 
L 409.533187 78.925445 
L 409.533187 75.351859 
L 428.847188 75.351859 
L 428.847188 73.127734 
L 448.161188 73.127734 
L 448.161188 72.017546 
L 467.475188 72.017546 
L 467.475188 67.727764 
L 486.789188 67.727764 
L 486.789188 62.70716 
L 506.103187 62.70716 
L 506.103187 55.5631 
" clip-path="url(#pc5b3e45fb3)" style="fill: none; stroke: #2ca02c; stroke-width: 1.4; stroke-linecap: square"/>
   </g>
   <g id="line2d_38">
    <path d="M 61.881188 192.784987 
L 81.195188 192.784987 
L 81.195188 186.286072 
L 100.509187 186.286072 
L 100.509187 181.824478 
L 119.823188 181.824478 
L 119.823188 179.706019 
L 139.137188 179.706019 
L 139.137188 174.336287 
L 158.451188 174.336287 
L 158.451188 167.82613 
L 177.765188 167.82613 
L 177.765188 154.770001 
L 197.079187 154.770001 
L 197.079187 146.961046 
L 216.393188 146.961046 
L 216.393188 141.049682 
L 235.707188 141.049682 
L 235.707188 137.063608 
L 255.021187 137.063608 
L 255.021187 128.256082 
L 274.335188 128.256082 
L 274.335188 121.729192 
L 293.649188 121.729192 
L 293.649188 116.61367 
L 312.963188 116.61367 
L 312.963188 105.177808 
L 332.277188 105.177808 
L 332.277188 104.559702 
L 351.591187 104.559702 
L 351.591187 98.996234 
L 370.905188 98.996234 
L 370.905188 98.544205 
L 390.219188 98.544205 
L 390.219188 93.108315 
L 409.533187 93.108315 
L 409.533187 88.166046 
L 428.847188 88.166046 
L 428.847188 87.192032 
L 448.161188 87.192032 
L 448.161188 85.690105 
L 467.475188 85.690105 
L 467.475188 79.779311 
L 486.789188 79.779311 
L 486.789188 76.85984 
L 506.103187 76.85984 
L 506.103187 68.061921 
" clip-path="url(#pc5b3e45fb3)" style="fill: none; stroke: #d62728; stroke-width: 1.4; stroke-linecap: square"/>
   </g>
   <g id="line2d_39">
    <path d="M 61.881188 219.142358 
L 81.195188 219.142358 
L 81.195188 211.018714 
L 100.509187 211.018714 
L 100.509187 205.441722 
L 119.823188 205.441722 
L 119.823188 202.793648 
L 139.137188 202.793648 
L 139.137188 196.081483 
L 158.451188 196.081483 
L 158.451188 187.943786 
L 177.765188 187.943786 
L 177.765188 175.290182 
L 197.079187 175.290182 
L 197.079187 166.124589 
L 216.393188 166.124589 
L 216.393188 160.093155 
L 235.707188 160.093155 
L 235.707188 155.766745 
L 255.021187 155.766745 
L 255.021187 146.842724 
L 274.335188 146.842724 
L 274.335188 139.614478 
L 293.649188 139.614478 
L 293.649188 136.388263 
L 312.963188 136.388263 
L 312.963188 124.573123 
L 332.277188 124.573123 
L 332.277188 123.006705 
L 351.591187 123.006705 
L 351.591187 116.857795 
L 370.905188 116.857795 
L 370.905188 115.622373 
L 390.219188 115.622373 
L 390.219188 110.816574 
L 409.533187 110.816574 
L 409.533187 103.856821 
L 428.847188 103.856821 
L 428.847188 103.146835 
L 448.161188 103.146835 
L 448.161188 102.240816 
L 467.475188 102.240816 
L 467.475188 95.28878 
L 486.789188 95.28878 
L 486.789188 91.494979 
L 506.103187 91.494979 
L 506.103187 81.872217 
" clip-path="url(#pc5b3e45fb3)" style="fill: none; stroke: #9467bd; stroke-width: 1.4; stroke-linecap: square"/>
   </g>
   <g id="patch_3">
    <path d="M 42.567188 228.567812 
L 42.567188 21.207812 
" style="fill: none; stroke: #000000; stroke-width: 0.8; stroke-linejoin: miter; stroke-linecap: square"/>
   </g>
   <g id="patch_4">
    <path d="M 506.103187 228.567812 
L 506.103187 21.207812 
" style="fill: none; stroke: #000000; stroke-width: 0.8; stroke-linejoin: miter; stroke-linecap: square"/>
   </g>
   <g id="patch_5">
    <path d="M 42.567188 228.567812 
L 506.103187 228.567812 
" style="fill: none; stroke: #000000; stroke-width: 0.8; stroke-linejoin: miter; stroke-linecap: square"/>
   </g>
   <g id="patch_6">
    <path d="M 42.567188 21.207812 
L 506.103187 21.207812 
" style="fill: none; stroke: #000000; stroke-width: 0.8; stroke-linejoin: miter; stroke-linecap: square"/>
   </g>
   <g id="text_20">
    <text style="font-size: 10px; font-family: 'SimSun', 'Microsoft YaHei', 'SimHei', 'Arial Unicode MS', 'DejaVu Sans', sans-serif; text-anchor: middle" x="274.335188" y="15.207812" transform="rotate(-0 274.335188 15.207812)">全年代表场景吨氨成本分布曲线</text>
   </g>
   <g id="legend_1">
    <g id="line2d_40">
     <path d="M 131.135188 276.221062 
L 140.735188 276.221062 
L 140.735188 276.221062 
L 150.335188 276.221062 
L 150.335188 276.221062 
" style="fill: none; stroke: #1f77b4; stroke-width: 1.4; stroke-linecap: square"/>
    </g>
    <g id="text_21">
     <text style="font-size: 8px; font-family: 'SimSun', 'Microsoft YaHei', 'SimHei', 'Arial Unicode MS', 'DejaVu Sans', sans-serif; text-anchor: start" x="156.735188" y="279.021062" transform="rotate(-0 156.735188 279.021062)">72 t/d</text>
    </g>
    <g id="line2d_41">
     <path d="M 190.335188 276.221062 
L 199.935188 276.221062 
L 199.935188 276.221062 
L 209.535188 276.221062 
L 209.535188 276.221062 
" style="fill: none; stroke: #ff7f0e; stroke-width: 1.4; stroke-linecap: square"/>
    </g>
    <g id="text_22">
     <text style="font-size: 8px; font-family: 'SimSun', 'Microsoft YaHei', 'SimHei', 'Arial Unicode MS', 'DejaVu Sans', sans-serif; text-anchor: start" x="215.935188" y="279.021062" transform="rotate(-0 215.935188 279.021062)">63 t/d</text>
    </g>
    <g id="line2d_42">
     <path d="M 249.535188 276.221062 
L 259.135188 276.221062 
L 259.135188 276.221062 
L 268.735188 276.221062 
L 268.735188 276.221062 
" style="fill: none; stroke: #2ca02c; stroke-width: 1.4; stroke-linecap: square"/>
    </g>
    <g id="text_23">
     <text style="font-size: 8px; font-family: 'SimSun', 'Microsoft YaHei', 'SimHei', 'Arial Unicode MS', 'DejaVu Sans', sans-serif; text-anchor: start" x="275.135188" y="279.021062" transform="rotate(-0 275.135188 279.021062)">54 t/d</text>
    </g>
    <g id="line2d_43">
     <path d="M 308.735188 276.221062 
L 318.335188 276.221062 
L 318.335188 276.221062 
L 327.935188 276.221062 
L 327.935188 276.221062 
" style="fill: none; stroke: #d62728; stroke-width: 1.4; stroke-linecap: square"/>
    </g>
    <g id="text_24">
     <text style="font-size: 8px; font-family: 'SimSun', 'Microsoft YaHei', 'SimHei', 'Arial Unicode MS', 'DejaVu Sans', sans-serif; text-anchor: start" x="334.335188" y="279.021062" transform="rotate(-0 334.335188 279.021062)">45 t/d</text>
    </g>
    <g id="line2d_44">
     <path d="M 367.935188 276.221062 
L 377.535188 276.221062 
L 377.535188 276.221062 
L 387.135188 276.221062 
L 387.135188 276.221062 
" style="fill: none; stroke: #9467bd; stroke-width: 1.4; stroke-linecap: square"/>
    </g>
    <g id="text_25">
     <text style="font-size: 8px; font-family: 'SimSun', 'Microsoft YaHei', 'SimHei', 'Arial Unicode MS', 'DejaVu Sans', sans-serif; text-anchor: start" x="393.535188" y="279.021062" transform="rotate(-0 393.535188 279.021062)">36 t/d</text>
    </g>
   </g>
  </g>
 </g>
 <defs>
  <clipPath id="pc5b3e45fb3">
   <rect x="42.567188" y="21.207812" width="463.536" height="207.36"/>
  </clipPath>
 </defs>
</svg>
